<svg id="_0347_real_estate_agent" xmlns="http://www.w3.org/2000/svg" xmlns:xlink="http://www.w3.org/1999/xlink" viewBox="0 0 500 500" data-imageid="real-estate-agent-8" imageName="Real Estate Agent" class="illustrations_image" style="width: 166px;"><defs><style>.cls-1_real-estate-agent-8{fill:url(#linear-gradient);}.cls-1_real-estate-agent-8,.cls-2_real-estate-agent-8,.cls-3_real-estate-agent-8,.cls-4_real-estate-agent-8,.cls-5_real-estate-agent-8,.cls-6_real-estate-agent-8,.cls-7_real-estate-agent-8,.cls-8_real-estate-agent-8,.cls-9_real-estate-agent-8,.cls-10_real-estate-agent-8,.cls-11_real-estate-agent-8,.cls-12_real-estate-agent-8,.cls-13_real-estate-agent-8,.cls-14_real-estate-agent-8,.cls-15_real-estate-agent-8,.cls-16_real-estate-agent-8,.cls-17_real-estate-agent-8,.cls-18_real-estate-agent-8,.cls-19_real-estate-agent-8,.cls-20_real-estate-agent-8,.cls-21_real-estate-agent-8{stroke-width:0px;}.cls-2_real-estate-agent-8{isolation:isolate;opacity:.18;}.cls-2_real-estate-agent-8,.cls-21_real-estate-agent-8{fill:#68e1fd;}.cls-3_real-estate-agent-8{fill:url(#linear-gradient-11-real-estate-agent-8);}.cls-4_real-estate-agent-8{fill:url(#linear-gradient-12-real-estate-agent-8);}.cls-5_real-estate-agent-8{fill:url(#linear-gradient-13-real-estate-agent-8);}.cls-6_real-estate-agent-8{fill:url(#linear-gradient-10-real-estate-agent-8);}.cls-7_real-estate-agent-8{fill:url(#linear-gradient-16-real-estate-agent-8);}.cls-8_real-estate-agent-8{fill:url(#linear-gradient-15-real-estate-agent-8);}.cls-9_real-estate-agent-8{fill:url(#linear-gradient-14-real-estate-agent-8);}.cls-22_real-estate-agent-8{opacity:.2;}.cls-10_real-estate-agent-8{fill:url(#linear-gradient-4-real-estate-agent-8);}.cls-11_real-estate-agent-8{fill:url(#linear-gradient-2-real-estate-agent-8);}.cls-12_real-estate-agent-8{fill:url(#linear-gradient-3-real-estate-agent-8);}.cls-13_real-estate-agent-8{fill:url(#linear-gradient-8-real-estate-agent-8);}.cls-14_real-estate-agent-8{fill:url(#linear-gradient-9-real-estate-agent-8);}.cls-15_real-estate-agent-8{fill:url(#linear-gradient-7-real-estate-agent-8);}.cls-16_real-estate-agent-8{fill:url(#linear-gradient-5-real-estate-agent-8);}.cls-17_real-estate-agent-8{fill:url(#linear-gradient-6-real-estate-agent-8);}.cls-18_real-estate-agent-8{fill:#231f20;}.cls-19_real-estate-agent-8{fill:#fff;}.cls-20_real-estate-agent-8{fill:#ffaa71;}</style><linearGradient id="linear-gradient-real-estate-agent-8" x1="-1014.64" y1="1739.35" x2="-1017.05" y2="1496.25" gradientTransform="translate(1263.74 1977.33) scale(1 -1)" gradientUnits="userSpaceOnUse"><stop offset="0" stop-color="#231f20" stop-opacity="0"/><stop offset="1" stop-color="#231f20"/></linearGradient><linearGradient id="linear-gradient-2-real-estate-agent-8" x1="-1155.39" y1="1651.05" x2="-1156.78" y2="1511.19" gradientTransform="translate(1289 1979.9) scale(1 -1)" xlink:href="#linear-gradient-real-estate-agent-8"/><linearGradient id="linear-gradient-3-real-estate-agent-8" x1="137.83" y1="265.37" x2="172.04" y2="265.04" gradientTransform="matrix(1,0,0,1,0,0)" xlink:href="#linear-gradient-real-estate-agent-8"/><linearGradient id="linear-gradient-4-real-estate-agent-8" x1="-1180.44" y1="1724.76" x2="-1133.58" y2="1736.02" xlink:href="#linear-gradient-real-estate-agent-8"/><linearGradient id="linear-gradient-5-real-estate-agent-8" x1="-1136.29" y1="1781.79" x2="-1139.88" y2="1742.27" xlink:href="#linear-gradient-real-estate-agent-8"/><linearGradient id="linear-gradient-6-real-estate-agent-8" x1="-1141.91" y1="1777.08" x2="-1142.24" y2="1723.85" xlink:href="#linear-gradient-real-estate-agent-8"/><linearGradient id="linear-gradient-7-real-estate-agent-8" x1="-1134.06" y1="1777.04" x2="-1134.38" y2="1723.8" xlink:href="#linear-gradient-real-estate-agent-8"/><linearGradient id="linear-gradient-8-real-estate-agent-8" x1="-974.23" y1="1626.8" x2="-1132.02" y2="1749.96" xlink:href="#linear-gradient-real-estate-agent-8"/><linearGradient id="linear-gradient-9-real-estate-agent-8" x1="-910.13" y1="1862.84" x2="-909.77" y2="1764.45" gradientTransform="translate(1289 1979.9) scale(1 -1)" xlink:href="#linear-gradient-real-estate-agent-8"/><linearGradient id="linear-gradient-10-real-estate-agent-8" x1="-961.83" y1="1561.17" x2="-1017.63" y2="2014.11" gradientTransform="translate(1289 1979.9) scale(1 -1)" xlink:href="#linear-gradient-real-estate-agent-8"/><linearGradient id="linear-gradient-11-real-estate-agent-8" x1="-1010.5" y1="1747.07" x2="-1012.65" y2="1704.49" gradientTransform="translate(1289 1979.9) scale(1 -1)" gradientUnits="userSpaceOnUse"><stop offset=".02" stop-color="#fff" stop-opacity="0"/><stop offset=".58" stop-color="#fff" stop-opacity=".39"/><stop offset="1" stop-color="#fff"/></linearGradient><linearGradient id="linear-gradient-12-real-estate-agent-8" x1="-924.2" y1="1609.31" x2="-928.14" y2="1675.85" xlink:href="#linear-gradient-11-real-estate-agent-8"/><linearGradient id="linear-gradient-13-real-estate-agent-8" x1="-967.17" y1="1688.5" x2="-974.32" y2="1651.65" xlink:href="#linear-gradient-real-estate-agent-8"/><linearGradient id="linear-gradient-14-real-estate-agent-8" x1="-1004.01" y1="1695.66" x2="-1011.17" y2="1658.81" xlink:href="#linear-gradient-real-estate-agent-8"/><linearGradient id="linear-gradient-15-real-estate-agent-8" x1="-1049.66" y1="1628.51" x2="-980.24" y2="1625.65" gradientTransform="translate(1289 1979.9) scale(1 -1)" xlink:href="#linear-gradient-real-estate-agent-8"/><linearGradient id="linear-gradient-16-real-estate-agent-8" x1="-1037.25" y1="1679.2" x2="-1022.76" y2="1589.04" gradientTransform="translate(1289 1979.9) scale(1 -1)" xlink:href="#linear-gradient-real-estate-agent-8"/></defs><g id="background_real-estate-agent-8"><path class="cls-2_real-estate-agent-8 targetColor" d="M462.9,317.73c-.12,3.69-.34,7.37-.71,11.13-2.6,27.21-12.17,54.38-32.8,71.88-24.49,20.77-59.23,23.83-91.33,22.65-32.1-1.18-65.02-5.53-95.74,3.84-16.82,5.13-32.21,14.2-48.99,19.43-31.94,9.95-67.87,5.02-96.54-12.14-28.67-17.16-49.82-46.03-58.7-78.23-1.66-6.06-2.95-12.21-3.86-18.43-5.06-34.03-.1-69.4-.82-104.1-.64-30.84-5.69-62.78,5.37-91.61,7.37-19.2,21.4-35.05,37.45-47.59,56.17-43.79,126.91-67.38,197.77-67.82,42.21-.27,85.35,6.46,122.38,26.7,12.04,6.57,23.47,14.74,31.94,25.45,6.3,8.01,10.8,17.3,14.49,26.78,6.4,16.46,10.53,33.72,12.28,51.3,2.26,22.84.48,45.88,1.39,68.79,1.27,30.73,7.31,61.23,6.41,91.95Z" style="fill: rgb(104, 225, 253);"/><path class="cls-21_real-estate-agent-8 targetColor" d="M462.19,328.85l-.15,1.45c-2.17,20.71-8.41,41.31-20.56,57.52-3.52,4.73-7.57,9.05-12.07,12.86-24.49,20.77-59.23,23.83-91.33,22.65-32.1-1.18-65.02-5.53-95.74,3.84-16.82,5.13-32.21,14.2-48.99,19.43-31.94,9.95-67.87,5.02-96.54-12.14-18.86-11.46-34.5-27.52-45.45-46.68-5.73-9.91-10.18-20.5-13.23-31.53-1.66-6.06-2.95-12.21-3.86-18.43l162.47-3.43,265.44-5.56Z" style="fill: rgb(104, 225, 253);"/><path class="cls-1_real-estate-agent-8" d="M462.05,330.3c-2.17,20.71-8.41,41.31-20.56,57.52H51.33c-5.73-9.91-10.18-20.5-13.23-31.53-1.66-6.06-2.95-12.21-3.86-18.43l162.47-3.43,265.32-4.14Z"/><ellipse class="cls-11_real-estate-agent-8" cx="132.92" cy="398.48" rx="60.1" ry="17.71"/></g><g id="character_real-estate-agent-8"><path class="cls-20_real-estate-agent-8" d="M144.83,383.7l.72,7.53s-2.89,4.37-6.66,4.64-5.05-1.52-5.05-1.52l.63-11.06"/><path class="cls-19_real-estate-agent-8" d="M133.85,394.35l.26-4.45,11.06-2.97.85,6.04c-2.07,1.57-4.51,2.57-7.09,2.9-3.78.28-5.07-1.52-5.07-1.52Z"/><path class="cls-20_real-estate-agent-8" d="M109.57,384.5l-.74,7.74s2.96,4.48,6.83,4.77c3.87.28,5.18-1.57,5.18-1.57l-.64-11.37"/><path class="cls-19_real-estate-agent-8" d="M120.84,395.43l-.26-4.57-11.34-3.06-.42,4.42s2.96,4.48,6.83,4.77c3.87.28,5.18-1.56,5.18-1.56Z"/><path class="cls-21_real-estate-agent-8 targetColor" d="M118.83,215.31s-14.94,7.27-15.29,9.61,1.68,60.64,1.68,60.64c0,0,4.91,6.3,19.74,6.3s19.17-4.36,19.85-6.4,3.11-60.09,2.76-62.58-14.14-7.53-14.14-7.53l-14.61-.04Z" style="fill: rgb(104, 225, 253);"/><polygon class="cls-12_real-estate-agent-8" points="141.21 242.75 138.15 287.95 144.81 285.46 145.74 271.04 141.21 242.75"/><path class="cls-10_real-estate-agent-8" d="M127.74,255.37s-17.61.15-18.73-.97-5.34-30.39-5.47-29.48c-.25,1.71.74,29.68,1.3,45.28,6.41-2.06,12.69-4.48,18.83-7.25,1.69-.72,3.14-1.9,4.18-3.41.96-1.42,1.51-3.11-.11-4.16Z"/><path class="cls-20_real-estate-agent-8" d="M121.31,207.05c-.64,2.8-1.46,5.56-2.46,8.25-.98,2.68,1.03,8.33,7.1,8.33s6.77-6.98,6.66-8.33c-.07-.97-1.65-4.18-2.04-7.27-.43-3.33-8.93-3.3-9.26-.98Z"/><polygon class="cls-18_real-estate-agent-8" points="122.59 224.92 125.17 228.53 123.33 277.29 128.23 282.68 131.65 276.06 127.61 227.93 128.53 224.38 125.82 222.7 122.59 224.92"/><polygon class="cls-19_real-estate-agent-8" points="129.5 250.74 130.11 242.1 143.99 238.67 139.58 265.62 128.63 266.92 129.5 250.74"/><path class="cls-16_real-estate-agent-8" d="M120.48,210.91s0,9.31,5.13,8.49,5.97-7.92,5.97-7.92l-11.1-.57Z"/><path class="cls-18_real-estate-agent-8" d="M107.58,286.35s-2.98,10.22-1.23,42.92c1.76,32.7,2.46,55.57,2.46,55.57,0,0,.22,2.67,5.85,2.74s7.12-3.69,7.12-3.69l5.45-83.76,5.75,85.53s6.76,3.89,12.03.97c2.91-1.61,2.65-61.26,1.34-87.54-.17-4.29-1.22-8.5-3.07-12.37,0,0-14.24,9.46-35.7-.37Z"/><path class="cls-21_real-estate-agent-8 targetColor" d="M147.57,222.87s6.81,28.56,7.37,33.41-6.83,18.35-8.06,15.78c-1.72-3.35-3.44-16.09-3.44-16.09l4.13-33.1Z" style="fill: rgb(104, 225, 253);"/><path class="cls-20_real-estate-agent-8" d="M159.87,255.21c-.01.47.25.9.66,1.12.49.12,1.01.04,1.44-.23,3.39-1.61,5.37-3.96,7.9-6.49,1.95-1.72,3.7-3.67,5.2-5.8,1.15-1.93.18-10.36-.93-10.49s-.95,2.57-.75,4.25-1.63,3.69-2.09,4.5-2-.68-3.39,1.63c-1.02,1.71-1.06,2.97-2.55,4.37-1.78,1.64-3.37,3.46-4.77,5.43-.35.42-.59.92-.7,1.45-.01.09-.01.17-.01.26Z"/><path class="cls-21_real-estate-agent-8 targetColor" d="M148.65,256.97c.23-.39,16.56-9.83,16.56-9.83,0,0,2.11,1.29,3.69,5.26,0,0-19.65,18.98-21.28,19.83s.68-3.07-2.08-8.4c-2.75-5.33,3.11-6.85,3.11-6.85Z" style="fill: rgb(104, 225, 253);"/><path class="cls-18_real-estate-agent-8" d="M101.01,397.79c-1.41.95-2.58,2.21-3.43,3.69-.83,1.55-.47,3.46.85,4.61.57.36,1.21.58,1.88.66,5.62.95,11.34-1,15.19-5.2.31-.4.68-.74,1.12-.99.96-.48,2.16,0,3.19-.37,1.44-.5,1.88-2.3,2.09-3.82s.38-3.38-.69-4.54c-1.11,1.83-3.5,2.37-5.64,2.46-1.3.14-2.61,0-3.86-.38-1.15-.42-2.09-1.65-3.41-1.47s-2.46,1.51-3.39,2.25l-3.91,3.12Z"/><path class="cls-18_real-estate-agent-8" d="M153.99,397.79c1.41.95,2.58,2.21,3.43,3.69.83,1.55.47,3.46-.85,4.61-.57.36-1.21.58-1.88.66-5.61.95-11.31-1-15.17-5.18-.31-.4-.68-.74-1.12-.99-.96-.48-2.16,0-3.19-.37-1.44-.5-1.88-2.3-2.09-3.82s-.38-3.38.69-4.54c1.11,1.83,3.5,2.37,5.64,2.46,1.3.14,2.61,0,3.86-.38,1.15-.42,2.09-1.65,3.41-1.47s2.46,1.51,3.39,2.25l3.88,3.11Z"/><path class="cls-20_real-estate-agent-8" d="M121.16,252.49c.52-.36,1.23-.5,1.82-.92s7.75-5.2,8.3-3.93c.25.58-.28,1.23-.79,1.6s-1.09.88-.98,1.52l7.27-3.59c.12-.08.26-.11.41-.1.25,0,.34.33.39.59.24,1.81-.23,3.65-1.31,5.12-1.81,2.43-4.31,4.25-7.19,5.22-3.69,1.23-7.06,2.92-8,.11-.42-1.23-1.14-3.26-.68-4.61.13-.42.39-.78.75-1.02Z"/><path class="cls-21_real-estate-agent-8 targetColor" d="M106.35,222.2c-2.13,1.46-3.96,3.3-5.42,5.43-2.37,3.5-6.29,32.86-4.48,40.82.76,3.37,28.46-9.2,28.46-9.2,0,0-.64-5.63-3.57-7.54,0,0-13.59,2.91-14.61,1.89s-.38-31.4-.38-31.4Z" style="fill: rgb(104, 225, 253);"/><path class="cls-20_real-estate-agent-8" d="M115.89,194.9s-.32,12.74,4.58,15.97c4.9,3.23,6.85,2.78,10.37,1.14,2.13-.99,3.69-8.78,4.58-14.74.91-5.62-2.32-11.09-7.68-13.01-1.82-.69-3.83-.69-5.65,0-4.37,1.58-6.98,6.06-6.2,10.64Z"/><path class="cls-18_real-estate-agent-8" d="M135.51,196.78c.29-.64.49-1.31.6-2,.23-2.31-.03-4.64-.75-6.84-.25-1.29-.7-2.53-1.34-3.69-.63-.99-1.52-1.78-2.58-2.28-.57,0-1.08-.58-1.5-.96-.89-.66-2.01-.92-3.1-.71-1.08.12-2.13.47-3.22.57-1.85.17-3.99-.32-5.42.88-.74.84-1.33,1.79-1.77,2.81-.5.85-1.23,1.55-1.79,2.35-.64.77-.97,1.74-.95,2.74.21.88.5,1.73.87,2.55.21,1.36.33,2.74.38,4.12.29,1.58,1.23,3.02,1.23,4.62l.33-8.43c-.02-.23.03-.47.14-.68.26-.42.84-.44,1.31-.57,1.14-.29,1.95-1.35,3.06-1.77.77-.23,1.58-.3,2.38-.2l6.06.29c.36,0,.72.08,1.04.25.23.18.45.39.65.6.68.55,1.68.44,2.46.88,1.06.61,1.23,2.04,1.29,3.27l.22,4.56c-.05-.81.08-1.62.38-2.37Z"/><path class="cls-21_real-estate-agent-8 targetColor" d="M119.22,214.31s3.05,7.3,6.6,8.4l-6.14,4.24-2.08-11.06,1.62-1.58Z" style="fill: rgb(104, 225, 253);"/><path class="cls-21_real-estate-agent-8 targetColor" d="M132.15,213.98l1.23,1.31-.98,11.36-6.63-3.99s5.53-3.86,6.39-8.68Z" style="fill: rgb(104, 225, 253);"/><path class="cls-17_real-estate-agent-8" d="M119.22,214.31s3.05,7.3,6.6,8.4l-6.14,4.24-2.08-11.06,1.62-1.58Z"/><path class="cls-15_real-estate-agent-8" d="M132.15,213.98l1.23,1.31-.98,11.36-6.63-3.99s5.53-3.86,6.39-8.68Z"/></g><g id="house_real-estate-agent-8"><path class="cls-21_real-estate-agent-8 targetColor" d="M269.57,296.98c1.6,14.9-3.69,45.55-20.22,51.59-4.07,1.49-8.48,1.67-12.81,1.81-16.95.56-33.91.7-50.88.42-6.79.03-13.56-.44-20.28-1.4-3.27-.54-6.65-1.36-9.19-3.49-4.29-3.61-4.99-10.5-2.1-15.32,2.89-4.82,8.71-7.37,14.31-7.19-6.87.47-12.82-4.71-13.3-11.58-.18-2.53.43-5.06,1.73-7.24,3.94-6.61,12.7-8.11,20.35-8.93-4.82-5.77-8.4-12.89-8.6-20.4-.2-7.52,3.56-15.39,10.29-18.74,6.73-3.35,16.19-.93,19.37,5.88-2.46-12.76.88-26.79,9.74-36.31,7.96-8.6,24.08-15.32,35.62-10.17,11.06,4.91,15.17,21.69,17.61,32.18,3.77,16.11,6.56,32.44,8.34,48.89Z" style="fill: rgb(104, 225, 253);"/><path class="cls-13_real-estate-agent-8" d="M269.57,296.98c1.6,14.9-3.69,45.55-20.22,51.59-4.07,1.49-8.48,1.67-12.81,1.81-16.95.56-33.91.7-50.88.42-6.79.03-13.56-.44-20.28-1.4-3.27-.54-6.65-1.36-9.19-3.49-4.29-3.61-4.99-10.5-2.1-15.32,2.89-4.82,8.71-7.37,14.31-7.19-6.87.47-12.82-4.71-13.3-11.58-.18-2.53.43-5.06,1.73-7.24,3.94-6.61,12.7-8.11,20.35-8.93-4.82-5.77-8.4-12.89-8.6-20.4-.2-7.52,3.56-15.39,10.29-18.74,6.73-3.35,16.19-.93,19.37,5.88-2.46-12.76.88-26.79,9.74-36.31,7.96-8.6,24.08-15.32,35.62-10.17,11.06,4.91,15.17,21.69,17.61,32.18,3.77,16.11,6.56,32.44,8.34,48.89Z"/><rect class="cls-21_real-estate-agent-8 targetColor" x="366.75" y="131.41" width="24.57" height="61.41" style="fill: rgb(104, 225, 253);"/><rect class="cls-14_real-estate-agent-8" x="366.75" y="131.41" width="24.57" height="61.41"/><rect class="cls-21_real-estate-agent-8 targetColor" x="361.73" y="122.7" width="34.6" height="11.77" rx="2.85" ry="2.85" style="fill: rgb(104, 225, 253);"/><polygon class="cls-21_real-estate-agent-8 targetColor" points="304.83 116.05 216.3 204.18 216.3 229.14 216.3 345.3 403.59 345.3 403.59 229.14 403.59 212.5 304.83 116.05" style="fill: rgb(104, 225, 253);"/><polygon class="cls-6_real-estate-agent-8" points="304.83 116.05 216.3 204.18 216.3 229.14 216.3 345.3 403.59 345.3 403.59 229.14 403.59 212.5 304.83 116.05"/><g class="cls-22_real-estate-agent-8"><path class="cls-21_real-estate-agent-8 targetColor" d="M307.4,110.05l-91.08,90.82v14.46l91.08-86.35,96.22,91.22v-9.09c1.47,0,2.67-1.18,2.68-2.65,0-.75-.3-1.46-.85-1.97l-98.05-96.44Z" style="fill: rgb(104, 225, 253);"/></g><rect class="cls-21_real-estate-agent-8 targetColor" x="209.02" y="345.3" width="201.87" height="14.84" style="fill: rgb(104, 225, 253);"/><rect class="cls-21_real-estate-agent-8 targetColor" x="239.97" y="251.53" width="72.15" height="59.87" style="fill: rgb(104, 225, 253);"/><rect class="cls-3_real-estate-agent-8" x="239.97" y="251.53" width="72.15" height="59.87"/><rect class="cls-21_real-estate-agent-8 targetColor" x="336.68" y="248.84" width="47.59" height="96.46" style="fill: rgb(104, 225, 253);"/><rect class="cls-21_real-estate-agent-8 targetColor" x="340.54" y="254.98" width="39.88" height="85.32" style="fill: rgb(104, 225, 253);"/><rect class="cls-4_real-estate-agent-8" x="340.54" y="254.98" width="39.88" height="85.32"/><rect class="cls-21_real-estate-agent-8 targetColor" x="333.49" y="243.47" width="54.24" height="8.06" rx="2.08" ry="2.08" style="fill: rgb(104, 225, 253);"/><path class="cls-21_real-estate-agent-8 targetColor" d="M303.16,109.95l-97.62,94.94c-2.38,2.42-2.34,6.31.08,8.69,1.11,1.09,2.6,1.72,4.15,1.76h0c1.56,0,3.07-.6,4.2-1.68l89.23-84.9c2.34-2.24,6.03-2.24,8.38,0l89.23,84.9c1.13,1.08,2.63,1.68,4.19,1.68h0c3.39-.08,6.07-2.9,5.99-6.29-.04-1.56-.66-3.04-1.76-4.15l-97.61-94.94c-2.36-2.3-6.12-2.3-8.48,0Z" style="fill: rgb(104, 225, 253);"/><rect class="cls-21_real-estate-agent-8 targetColor" x="237.89" y="248.84" width="76.31" height="2.69" style="fill: rgb(104, 225, 253);"/><rect class="cls-21_real-estate-agent-8 targetColor" x="257.56" y="251.53" width="2.43" height="54.88" style="fill: rgb(104, 225, 253);"/><rect class="cls-21_real-estate-agent-8 targetColor" x="274.83" y="251.53" width="2.43" height="54.88" style="fill: rgb(104, 225, 253);"/><rect class="cls-21_real-estate-agent-8 targetColor" x="292.1" y="251.53" width="2.43" height="54.88" style="fill: rgb(104, 225, 253);"/><rect class="cls-21_real-estate-agent-8 targetColor" x="239.97" y="280.44" width="72.15" height="2.05" style="fill: rgb(104, 225, 253);"/><path class="cls-21_real-estate-agent-8 targetColor" d="M309.93,307.33c2.37-1.24,3.92-3.64,4.07-6.31,0-1.23-.43-2.63-1.6-2.8-.5-.02-.99.09-1.42.33-1.33.63-2.51,1.52-3.48,2.63.36-1.19.5-2.44.43-3.69.01-1.8-1.44-3.26-3.23-3.28-1.05,0-2.03.49-2.65,1.34-.94,1.12-1.6,2.45-1.94,3.87-.77-2.06-2.11-3.86-3.86-5.18-.29-.24-.64-.42-1.01-.5-.43-.02-.86.08-1.23.29-2.21,1.13-3.65,3.35-3.78,5.82-.24-.9-1.02-1.55-1.94-1.65-.82-.02-1.5.64-1.52,1.46,0,.11,0,.22.03.32-1.74-1.81-4.33-2.54-6.76-1.89-2.43.77-3.95,3.17-3.61,5.69-1.11-.45-2.37.08-2.82,1.19-.05.11-.08.23-.11.34-.2,1.28.17,2.58,1.02,3.56" style="fill: rgb(104, 225, 253);"/><path class="cls-21_real-estate-agent-8 targetColor" d="M240.56,307.21l-2.78-2.33c-.61-.41-1.05-1.02-1.23-1.73-.12-1.23,1.23-2.03,2.46-1.83,1.14.32,2.16.98,2.91,1.9-.34-2.55-.53-5.54,1.35-7.37,1.54-1.27,3.67-1.51,5.45-.63,1.73.91,3.09,2.4,3.84,4.2.85-2.69,2.5-5.06,4.73-6.78.58-.66,1.58-.73,2.24-.15.08.07.16.15.22.24,1.89,1.8,2.93,4.31,2.87,6.92.35-.8.78-1.57,1.29-2.28.12-.23.32-.4.57-.49.38-.11.74.18,1.02.45.74.72,1.47,1.68,1.23,2.68.41-1.63,1.26-3.12,2.46-4.3,1.23-1.07,3.51-1.17,4.43.22.42.75.57,1.61.44,2.46-.17,1.8-.75,3.54-1.7,5.07,0-.6.91-.84,1.39-.48.44.41.64,1.03.53,1.62,0,.59-.27,1.17-.29,1.77" style="fill: rgb(104, 225, 253);"/><path class="cls-5_real-estate-agent-8" d="M309.93,307.33c2.37-1.24,3.92-3.64,4.07-6.31,0-1.23-.43-2.63-1.6-2.8-.5-.02-.99.09-1.42.33-1.33.63-2.51,1.52-3.48,2.63.36-1.19.5-2.44.43-3.69.01-1.8-1.44-3.26-3.23-3.28-1.05,0-2.03.49-2.65,1.34-.94,1.12-1.6,2.45-1.94,3.87-.77-2.06-2.11-3.86-3.86-5.18-.29-.24-.64-.42-1.01-.5-.43-.02-.86.08-1.23.29-2.21,1.13-3.65,3.35-3.78,5.82-.24-.9-1.02-1.55-1.94-1.65-.82-.02-1.5.64-1.52,1.46,0,.11,0,.22.03.32-1.74-1.81-4.33-2.54-6.76-1.89-2.43.77-3.95,3.17-3.61,5.69-1.11-.45-2.37.08-2.82,1.19-.05.11-.08.23-.11.34-.2,1.28.17,2.58,1.02,3.56"/><rect class="cls-21_real-estate-agent-8 targetColor" x="235.66" y="306.41" width="80.79" height="16.89" rx="4.54" ry="4.54" style="fill: rgb(104, 225, 253);"/><path class="cls-9_real-estate-agent-8" d="M240.56,307.21l-2.78-2.33c-.61-.41-1.05-1.02-1.23-1.73-.12-1.23,1.23-2.03,2.46-1.83,1.14.32,2.16.98,2.91,1.9-.34-2.55-.53-5.54,1.35-7.37,1.54-1.27,3.67-1.51,5.45-.63,1.73.91,3.09,2.4,3.84,4.2.85-2.69,2.5-5.06,4.73-6.78.58-.66,1.58-.73,2.24-.15.08.07.16.15.22.24,1.89,1.8,2.93,4.31,2.87,6.92.35-.8.78-1.57,1.29-2.28.12-.23.32-.4.57-.49.38-.11.74.18,1.02.45.74.72,1.47,1.68,1.23,2.68.41-1.63,1.26-3.12,2.46-4.3,1.23-1.07,3.51-1.17,4.43.22.42.75.57,1.61.44,2.46-.17,1.8-.75,3.54-1.7,5.07,0-.6.91-.84,1.39-.48.44.41.64,1.03.53,1.62,0,.59-.27,1.17-.29,1.77"/><rect class="cls-21_real-estate-agent-8 targetColor" x="254.65" y="315.61" width="10.44" height="73.25" style="fill: rgb(104, 225, 253);"/><rect class="cls-8_real-estate-agent-8" x="254.65" y="315.61" width="10.44" height="73.25"/><rect class="cls-21_real-estate-agent-8 targetColor" x="225.67" y="319.41" width="64.4" height="35.43" style="fill: rgb(104, 225, 253);"/><rect class="cls-7_real-estate-agent-8" x="225.4" y="319.41" width="64.4" height="35.43"/><path class="cls-19_real-estate-agent-8" d="M236.84,333.68c-.29-.39-.65-.71-1.08-.93-.49-.25-1.03-.37-1.57-.36-.33,0-.66.05-.97.15-.32.09-.62.24-.88.44-.27.21-.49.47-.65.76-.17.33-.25.7-.25,1.07,0,.35.07.7.23,1.02.16.27.37.5.63.68.27.2.58.36.9.47l1.03.37c.45.14.9.29,1.35.47.44.16.85.39,1.23.66.37.28.67.63.88,1.04.25.49.37,1.04.34,1.58.01.57-.11,1.14-.37,1.66-.22.45-.55.85-.95,1.15-.4.31-.85.54-1.34.68-.49.15-1.01.22-1.52.22-.41,0-.82-.03-1.23-.12-.38-.08-.75-.2-1.11-.36-.35-.15-.69-.36-.98-.6-.31-.24-.57-.52-.8-.84l1.13-.84c.31.48.73.88,1.23,1.15.53.32,1.15.48,1.77.47.34,0,.68-.05,1.01-.15.33-.11.64-.27.92-.48.27-.21.5-.48.66-.79.19-.33.28-.7.27-1.08.01-.39-.08-.78-.27-1.12-.17-.3-.41-.55-.7-.74-.3-.22-.64-.39-.99-.5l-1.23-.41c-.42-.13-.83-.28-1.23-.45-.41-.16-.79-.38-1.12-.66-.33-.28-.6-.62-.79-1.01-.42-.99-.4-2.11.07-3.07.24-.43.57-.81.97-1.11.4-.29.85-.51,1.33-.64.47-.13.95-.2,1.44-.2.77-.02,1.54.14,2.24.47.54.25,1.02.63,1.4,1.09l-1.01.84Z"/><path class="cls-19_real-estate-agent-8" d="M244.98,344.48h-1.44l5.56-12.86h1.23l5.53,12.86h-1.45l-1.42-3.38h-6.61l-1.4,3.38ZM246.87,339.9h5.65l-2.83-6.77-2.83,6.77Z"/><path class="cls-19_real-estate-agent-8" d="M263.32,343.31h5.99v1.17h-7.31v-12.86h1.31v11.69Z"/><path class="cls-19_real-estate-agent-8" d="M276.7,343.31h6.89v1.17h-8.21v-12.86h7.98v1.15h-6.67v4.42h6.23v1.17h-6.23v4.95Z"/></g></svg>