<svg id="_0229_city_buildings_2" xmlns="http://www.w3.org/2000/svg" xmlns:xlink="http://www.w3.org/1999/xlink" viewBox="0 0 500 500" data-imageid="city-2-45" imageName="City 2" class="illustrations_image" style="width: 166px;"><defs><style>.cls-1_city-2-45{fill:url(#linear-gradient);}.cls-1_city-2-45,.cls-2_city-2-45,.cls-3_city-2-45,.cls-4_city-2-45,.cls-5_city-2-45,.cls-6_city-2-45,.cls-7_city-2-45,.cls-8_city-2-45,.cls-9_city-2-45,.cls-10_city-2-45,.cls-11_city-2-45,.cls-12_city-2-45,.cls-13_city-2-45,.cls-14_city-2-45,.cls-15_city-2-45,.cls-16_city-2-45,.cls-17_city-2-45,.cls-18_city-2-45,.cls-19_city-2-45,.cls-20_city-2-45,.cls-21_city-2-45,.cls-22_city-2-45,.cls-23_city-2-45,.cls-24_city-2-45,.cls-25_city-2-45,.cls-26_city-2-45,.cls-27_city-2-45,.cls-28_city-2-45,.cls-29_city-2-45,.cls-30_city-2-45,.cls-31_city-2-45,.cls-32_city-2-45,.cls-33_city-2-45,.cls-34_city-2-45,.cls-35_city-2-45,.cls-36_city-2-45,.cls-37_city-2-45,.cls-38_city-2-45,.cls-39_city-2-45,.cls-40_city-2-45,.cls-41_city-2-45,.cls-42_city-2-45,.cls-43_city-2-45,.cls-44_city-2-45,.cls-45_city-2-45,.cls-46_city-2-45,.cls-47_city-2-45,.cls-48_city-2-45,.cls-49_city-2-45,.cls-50_city-2-45,.cls-51_city-2-45,.cls-52_city-2-45,.cls-53_city-2-45,.cls-54_city-2-45,.cls-55_city-2-45,.cls-56_city-2-45,.cls-57_city-2-45,.cls-58_city-2-45{stroke-width:0px;}.cls-2_city-2-45{opacity:.4;}.cls-2_city-2-45,.cls-18_city-2-45,.cls-19_city-2-45,.cls-20_city-2-45,.cls-21_city-2-45,.cls-22_city-2-45,.cls-23_city-2-45,.cls-24_city-2-45,.cls-25_city-2-45,.cls-26_city-2-45,.cls-53_city-2-45,.cls-54_city-2-45,.cls-55_city-2-45,.cls-56_city-2-45,.cls-58_city-2-45{isolation:isolate;}.cls-2_city-2-45,.cls-18_city-2-45,.cls-27_city-2-45,.cls-28_city-2-45,.cls-29_city-2-45,.cls-30_city-2-45,.cls-31_city-2-45,.cls-32_city-2-45,.cls-33_city-2-45,.cls-34_city-2-45,.cls-35_city-2-45,.cls-36_city-2-45,.cls-37_city-2-45,.cls-38_city-2-45,.cls-39_city-2-45,.cls-40_city-2-45,.cls-41_city-2-45,.cls-42_city-2-45,.cls-43_city-2-45,.cls-44_city-2-45,.cls-45_city-2-45,.cls-54_city-2-45,.cls-55_city-2-45,.cls-56_city-2-45,.cls-58_city-2-45{fill-rule:evenodd;}.cls-2_city-2-45,.cls-18_city-2-45,.cls-45_city-2-45,.cls-53_city-2-45,.cls-57_city-2-45,.cls-58_city-2-45{fill:#68e6fd;}.cls-3_city-2-45{fill:url(#linear-gradient-38-city-2-45);}.cls-4_city-2-45{fill:url(#linear-gradient-12-city-2-45);}.cls-5_city-2-45{fill:url(#linear-gradient-13-city-2-45);}.cls-6_city-2-45{fill:url(#linear-gradient-23-city-2-45);}.cls-7_city-2-45{fill:url(#linear-gradient-24-city-2-45);}.cls-8_city-2-45{fill:url(#linear-gradient-45-city-2-45);}.cls-9_city-2-45{fill:url(#linear-gradient-44-city-2-45);}.cls-10_city-2-45{fill:url(#linear-gradient-48-city-2-45);}.cls-11_city-2-45{fill:url(#linear-gradient-49-city-2-45);}.cls-12_city-2-45{fill:url(#linear-gradient-47-city-2-45);}.cls-13_city-2-45{fill:url(#linear-gradient-42-city-2-45);}.cls-14_city-2-45{fill:url(#linear-gradient-43-city-2-45);}.cls-15_city-2-45{fill:url(#linear-gradient-40-city-2-45);}.cls-16_city-2-45{fill:url(#linear-gradient-41-city-2-45);}.cls-17_city-2-45{fill:url(#linear-gradient-50-city-2-45);}.cls-18_city-2-45{opacity:.5;}.cls-19_city-2-45{fill:url(#linear-gradient-51-city-2-45);}.cls-19_city-2-45,.cls-20_city-2-45,.cls-21_city-2-45,.cls-22_city-2-45,.cls-23_city-2-45,.cls-24_city-2-45,.cls-25_city-2-45,.cls-26_city-2-45,.cls-54_city-2-45,.cls-55_city-2-45,.cls-56_city-2-45{opacity:.65;}.cls-20_city-2-45{fill:url(#linear-gradient-52-city-2-45);}.cls-21_city-2-45{fill:url(#linear-gradient-10-city-2-45);}.cls-22_city-2-45{fill:url(#linear-gradient-11-city-2-45);}.cls-23_city-2-45{fill:url(#linear-gradient-37-city-2-45);}.cls-24_city-2-45{fill:url(#linear-gradient-39-city-2-45);}.cls-25_city-2-45{fill:url(#linear-gradient-46-city-2-45);}.cls-26_city-2-45{fill:url(#linear-gradient-8-city-2-45);}.cls-27_city-2-45{fill:url(#linear-gradient-29-city-2-45);}.cls-28_city-2-45{fill:url(#linear-gradient-32-city-2-45);}.cls-29_city-2-45{fill:url(#linear-gradient-25-city-2-45);}.cls-30_city-2-45{fill:url(#linear-gradient-30-city-2-45);}.cls-31_city-2-45{fill:url(#linear-gradient-33-city-2-45);}.cls-32_city-2-45{fill:url(#linear-gradient-36-city-2-45);}.cls-33_city-2-45{fill:url(#linear-gradient-31-city-2-45);}.cls-34_city-2-45{fill:url(#linear-gradient-34-city-2-45);}.cls-35_city-2-45{fill:url(#linear-gradient-35-city-2-45);}.cls-36_city-2-45{fill:url(#linear-gradient-14-city-2-45);}.cls-37_city-2-45{fill:url(#linear-gradient-15-city-2-45);}.cls-38_city-2-45{fill:url(#linear-gradient-16-city-2-45);}.cls-39_city-2-45{fill:url(#linear-gradient-17-city-2-45);}.cls-40_city-2-45{fill:url(#linear-gradient-19-city-2-45);}.cls-41_city-2-45{fill:url(#linear-gradient-22-city-2-45);}.cls-42_city-2-45{fill:url(#linear-gradient-18-city-2-45);}.cls-43_city-2-45{fill:url(#linear-gradient-21-city-2-45);}.cls-44_city-2-45{fill:url(#linear-gradient-26-city-2-45);}.cls-46_city-2-45{fill:url(#linear-gradient-4-city-2-45);}.cls-47_city-2-45{fill:url(#linear-gradient-2-city-2-45);}.cls-48_city-2-45{fill:url(#linear-gradient-3-city-2-45);}.cls-49_city-2-45{fill:url(#linear-gradient-9-city-2-45);}.cls-50_city-2-45{fill:url(#linear-gradient-7-city-2-45);}.cls-51_city-2-45{fill:url(#linear-gradient-5-city-2-45);}.cls-52_city-2-45{fill:url(#linear-gradient-6-city-2-45);}.cls-53_city-2-45{opacity:.24;}.cls-54_city-2-45{fill:url(#linear-gradient-28-city-2-45);}.cls-55_city-2-45{fill:url(#linear-gradient-27-city-2-45);}.cls-56_city-2-45{fill:url(#linear-gradient-20-city-2-45);}.cls-58_city-2-45{opacity:.2;}</style><linearGradient id="linear-gradient-city-2-45" x1="804.45" y1="607.93" x2="754.23" y2="680.06" gradientTransform="translate(-323.58 -384.23)" gradientUnits="userSpaceOnUse"><stop offset="0" stop-color="#010101" stop-opacity="0"/><stop offset=".95" stop-color="#010101"/></linearGradient><linearGradient id="linear-gradient-2-city-2-45" x1="793.1" y1="620.12" x2="762.52" y2="672.61" xlink:href="#linear-gradient-city-2-45"/><linearGradient id="linear-gradient-3-city-2-45" x1="456.54" y1="562.41" x2="544.24" y2="629.96" gradientTransform="translate(-322.49 -329.58)" xlink:href="#linear-gradient-city-2-45"/><linearGradient id="linear-gradient-4-city-2-45" x1="447.43" y1="559.66" x2="457.65" y2="539.64" gradientTransform="translate(-322.49 -329.58)" xlink:href="#linear-gradient-city-2-45"/><linearGradient id="linear-gradient-5-city-2-45" x1="441.49" y1="540.39" x2="511.15" y2="579.21" gradientTransform="translate(-322.49 -329.58)" xlink:href="#linear-gradient-city-2-45"/><linearGradient id="linear-gradient-6-city-2-45" x1="434.33" y1="553.22" x2="503.99" y2="592.03" gradientTransform="translate(-322.49 -329.58)" xlink:href="#linear-gradient-city-2-45"/><linearGradient id="linear-gradient-7-city-2-45" x1="440.07" y1="522.07" x2="445.38" y2="828.49" gradientTransform="translate(-322.49 -329.58)" xlink:href="#linear-gradient-city-2-45"/><linearGradient id="linear-gradient-8-city-2-45" x1="458.34" y1="538.58" x2="624.72" y2="519.06" gradientTransform="translate(-322.49 -329.58)" gradientUnits="userSpaceOnUse"><stop offset="0" stop-color="#fff" stop-opacity="0"/><stop offset=".07" stop-color="#fff" stop-opacity=".22"/><stop offset=".16" stop-color="#fff" stop-opacity=".45"/><stop offset=".25" stop-color="#fff" stop-opacity=".65"/><stop offset=".33" stop-color="#fff" stop-opacity=".8"/><stop offset=".4" stop-color="#fff" stop-opacity=".91"/><stop offset=".46" stop-color="#fff" stop-opacity=".98"/><stop offset=".51" stop-color="#fff"/></linearGradient><linearGradient id="linear-gradient-9-city-2-45" x1="492.63" y1="533.96" x2="684.48" y2="537.44" gradientTransform="translate(-322.49 -329.58)" xlink:href="#linear-gradient-city-2-45"/><linearGradient id="linear-gradient-10-city-2-45" x1="490.37" y1="478.08" x2="504.33" y2="447.56" xlink:href="#linear-gradient-8-city-2-45"/><linearGradient id="linear-gradient-11-city-2-45" x1="489.49" y1="470.23" x2="514.25" y2="441.1" xlink:href="#linear-gradient-8-city-2-45"/><linearGradient id="linear-gradient-12-city-2-45" x1="520.39" y1="464.22" x2="498.58" y2="493" gradientTransform="translate(-322.49 -329.58)" xlink:href="#linear-gradient-city-2-45"/><linearGradient id="linear-gradient-13-city-2-45" x1="517.33" y1="456.31" x2="501.62" y2="488.22" gradientTransform="translate(-322.49 -329.58)" xlink:href="#linear-gradient-city-2-45"/><linearGradient id="linear-gradient-14-city-2-45" x1="514.37" y1="446.74" x2="481.24" y2="503.24" gradientTransform="translate(-322.49 -329.58)" xlink:href="#linear-gradient-city-2-45"/><linearGradient id="linear-gradient-15-city-2-45" x1="562.59" y1="598.61" x2="561.76" y2="749.26" xlink:href="#linear-gradient-city-2-45"/><linearGradient id="linear-gradient-16-city-2-45" x1="541.29" y1="535.98" x2="545.38" y2="628.31" gradientTransform="translate(-322.49 -329.58)" xlink:href="#linear-gradient-city-2-45"/><linearGradient id="linear-gradient-17-city-2-45" x1="579.04" y1="534.31" x2="583.11" y2="626.64" gradientTransform="translate(-322.49 -329.58)" xlink:href="#linear-gradient-city-2-45"/><linearGradient id="linear-gradient-18-city-2-45" x1="582.85" y1="534.13" x2="586.94" y2="626.48" gradientTransform="translate(-322.49 -329.58)" xlink:href="#linear-gradient-city-2-45"/><linearGradient id="linear-gradient-19-city-2-45" x1="623.75" y1="571.55" x2="566.56" y2="571.76" gradientTransform="translate(-322.49 -329.58)" xlink:href="#linear-gradient-city-2-45"/><linearGradient id="linear-gradient-20-city-2-45" x1="560.22" y1="529.95" x2="561.86" y2="643.14" xlink:href="#linear-gradient-8-city-2-45"/><linearGradient id="linear-gradient-21-city-2-45" x1="540.82" y1="535.99" x2="544.91" y2="628.32" gradientTransform="translate(-322.49 -329.58)" xlink:href="#linear-gradient-city-2-45"/><linearGradient id="linear-gradient-22-city-2-45" x1="560.15" y1="535.13" x2="564.24" y2="627.48" gradientTransform="translate(-322.49 -329.58)" xlink:href="#linear-gradient-city-2-45"/><linearGradient id="linear-gradient-23-city-2-45" x1="647.8" y1="521.7" x2="649.03" y2="595.66" gradientTransform="translate(-322.49 -329.58)" xlink:href="#linear-gradient-city-2-45"/><linearGradient id="linear-gradient-24-city-2-45" x1="670.86" y1="518.59" x2="672.15" y2="596.53" gradientTransform="translate(-322.49 -329.58)" xlink:href="#linear-gradient-city-2-45"/><linearGradient id="linear-gradient-25-city-2-45" x1="649.23" y1="605.95" x2="648.61" y2="714.63" xlink:href="#linear-gradient-city-2-45"/><linearGradient id="linear-gradient-26-city-2-45" x1="718.73" y1="573.58" x2="587.18" y2="564.19" gradientTransform="translate(-322.49 -329.58)" xlink:href="#linear-gradient-city-2-45"/><linearGradient id="linear-gradient-27-city-2-45" x1="560.22" y1="529.95" x2="561.86" y2="643.14" xlink:href="#linear-gradient-8-city-2-45"/><linearGradient id="linear-gradient-28-city-2-45" x1="646.87" y1="528.71" x2="648.51" y2="641.88" xlink:href="#linear-gradient-8-city-2-45"/><linearGradient id="linear-gradient-29-city-2-45" x1="541.29" y1="535.98" x2="545.38" y2="628.31" gradientTransform="translate(-322.49 -329.58)" xlink:href="#linear-gradient-city-2-45"/><linearGradient id="linear-gradient-30-city-2-45" x1="579.04" y1="534.31" x2="583.11" y2="626.64" gradientTransform="translate(-322.49 -329.58)" xlink:href="#linear-gradient-city-2-45"/><linearGradient id="linear-gradient-31-city-2-45" x1="582.85" y1="534.13" x2="586.94" y2="626.48" gradientTransform="translate(-322.49 -329.58)" xlink:href="#linear-gradient-city-2-45"/><linearGradient id="linear-gradient-32-city-2-45" x1="540.82" y1="535.99" x2="544.91" y2="628.32" gradientTransform="translate(-322.49 -329.58)" xlink:href="#linear-gradient-city-2-45"/><linearGradient id="linear-gradient-33-city-2-45" x1="560.15" y1="535.13" x2="564.24" y2="627.48" gradientTransform="translate(-322.49 -329.58)" xlink:href="#linear-gradient-city-2-45"/><linearGradient id="linear-gradient-34-city-2-45" x1="627.79" y1="532.14" x2="631.86" y2="624.47" gradientTransform="translate(-322.49 -329.58)" xlink:href="#linear-gradient-city-2-45"/><linearGradient id="linear-gradient-35-city-2-45" x1="665.51" y1="530.47" x2="669.62" y2="622.82" gradientTransform="translate(-322.49 -329.58)" xlink:href="#linear-gradient-city-2-45"/><linearGradient id="linear-gradient-36-city-2-45" x1="645.83" y1="532.16" x2="649.91" y2="624.5" gradientTransform="translate(-322.49 -329.58)" xlink:href="#linear-gradient-city-2-45"/><linearGradient id="linear-gradient-37-city-2-45" x1="644.96" y1="514.52" x2="662.32" y2="570.08" xlink:href="#linear-gradient-8-city-2-45"/><linearGradient id="linear-gradient-38-city-2-45" x1="630.66" y1="525.03" x2="629.65" y2="581.83" gradientTransform="translate(-322.49 -329.58)" xlink:href="#linear-gradient-city-2-45"/><linearGradient id="linear-gradient-39-city-2-45" x1="711.86" y1="553.36" x2="752.35" y2="553.36" xlink:href="#linear-gradient-8-city-2-45"/><linearGradient id="linear-gradient-40-city-2-45" x1="731.85" y1="608.1" x2="881" y2="607.67" gradientTransform="translate(-323.58 -384.24)" xlink:href="#linear-gradient-city-2-45"/><linearGradient id="linear-gradient-41-city-2-45" x1="757.32" y1="545.47" x2="773.66" y2="607.57" xlink:href="#linear-gradient-city-2-45"/><linearGradient id="linear-gradient-42-city-2-45" x1="711.85" y1="556.21" x2="766.07" y2="556.21" gradientTransform="translate(-322.49 -329.58)" gradientUnits="userSpaceOnUse"><stop offset="0" stop-color="#68e1fd"/><stop offset="1" stop-color="#68e1fd"/></linearGradient><linearGradient id="linear-gradient-43-city-2-45" x1="461.92" y1="555.07" x2="464.97" y2="603.88" gradientTransform="translate(-322.49 -329.58)" xlink:href="#linear-gradient-city-2-45"/><linearGradient id="linear-gradient-44-city-2-45" x1="397.95" y1="567.08" x2="397.14" y2="618.78" gradientTransform="translate(-322.49 -329.58)" xlink:href="#linear-gradient-city-2-45"/><linearGradient id="linear-gradient-45-city-2-45" x1="406.24" y1="576.02" x2="406.65" y2="619.33" gradientTransform="translate(-322.49 -329.58)" xlink:href="#linear-gradient-city-2-45"/><linearGradient id="linear-gradient-46-city-2-45" x1="394.76" y1="561.97" x2="396.38" y2="588.53" xlink:href="#linear-gradient-8-city-2-45"/><linearGradient id="linear-gradient-47-city-2-45" x1="405.89" y1="555.71" x2="406.12" y2="580.05" gradientTransform="translate(-322.49 -329.58)" xlink:href="#linear-gradient-city-2-45"/><linearGradient id="linear-gradient-48-city-2-45" x1="393.14" y1="555.71" x2="393.38" y2="580.05" gradientTransform="translate(-322.49 -329.58)" xlink:href="#linear-gradient-city-2-45"/><linearGradient id="linear-gradient-49-city-2-45" x1="380.41" y1="555.71" x2="380.63" y2="580.05" gradientTransform="translate(-322.49 -329.58)" xlink:href="#linear-gradient-city-2-45"/><linearGradient id="linear-gradient-50-city-2-45" x1="585.18" y1="623.56" x2="591.72" y2="1048.49" xlink:href="#linear-gradient-city-2-45"/><linearGradient id="linear-gradient-51-city-2-45" x1="456.94" y1="606" x2="461.03" y2="802.93" xlink:href="#linear-gradient-8-city-2-45"/><linearGradient id="linear-gradient-52-city-2-45" x1="697.67" y1="605.32" x2="702.57" y2="790.82" xlink:href="#linear-gradient-8-city-2-45"/></defs><g id="background_city-2-45"><path class="cls-53_city-2-45" d="M499.9,210.45c0,1.02,0,2-.08,2.99l-.91,42.37c0,3.74-.17,7.49-.46,11.14-.32,5.22-1.32,10.37-2.99,15.32-3.18,8.88-9.36,16.45-16.29,22.83-27.05,24.96-63.82,32.08-97.06,45.54-3.6,1.46-7.13,2.96-10.63,4.58-5.68,2.67-11.39,5.35-17.17,7.96-26.79,12.11-54.46,22.74-84.25,23.52-31.41.84-58.95-13.56-91.71-10.33-28.15,2.72-57.64,7.88-83.88-2.66-12.28-5.06-23.19-12.95-31.82-23.04-2.44-2.76-4.75-5.64-6.91-8.62-11.79-16.17-20.1-35.74-26.22-54.88-2.12-6.57-4.07-13.35-5.6-20.19,0-.43-.21-.86-.29-1.3-5.78-25.6-6.7-52.3,5.92-74.78,12.62-22.48,36.48-36.04,56.36-52.65,20.68-17.23,37.61-38.46,57.18-56.94,19.57-18.49,42.96-34.72,69.56-38.39,56.85-7.81,102.78,38.6,155.07,51.79,12.92,3.18,26.38,2.13,38.77,5.47,11.25,3.02,23.45,10.07,34.03,15.04,22.2,10.39,45.28,23.42,54.1,47.73.91,2.51,1.67,5.07,2.29,7.67,1.39,5.83,2.27,11.77,2.64,17.76.48,7.4.48,14.77.33,22.08Z"/><path class="cls-53_city-2-45" d="M499.9,210.45c0,1.02,0,2-.08,2.99l-.91,42.37c0,3.74-.17,7.49-.46,11.14-.32,5.22-1.32,10.37-2.99,15.32-3.18,8.88-9.36,16.45-16.29,22.83-27.05,24.96-63.82,32.08-97.06,45.54-3.6,1.46-7.13,2.96-10.63,4.58-5.68,2.67-11.39,5.35-17.17,7.96-26.79,12.11-54.46,22.74-84.25,23.52-31.41.84-58.95-13.56-91.71-10.33-28.15,2.72-57.64,7.88-83.88-2.66-12.28-5.06-23.19-12.95-31.82-23.04-2.44-2.76-4.75-5.64-6.91-8.62-11.79-16.17-20.1-35.74-26.22-54.88-2.12-6.57-4.07-13.35-5.6-20.19,0-.43-.21-.86-.29-1.3s.14-.46.21-.7c1.15-3.95,2.47-7.83,3.71-11.76,2.04-6.36,4.06-12.62,5.7-19.01.43-1.7.83-3.39,1.21-5.09,3.18-14.73,3.95-29.78,4.96-44.82h28.94v-24.87h32.97v38.19h13.81v-30.71h16.23v28.5h21.62v33.41h24.49v-32.51h42.78v32.52h37.39v-51.15h19.09v16.45h16.05v34.73h16.02v-23.17h19.57v23.13h10.71v-38.03h18.73v-15.47h35.61v53.46h15.74v-84.33h35.61v84.33h14.86v-70.01h27.33v29.69h12.63c.43,7.29.43,14.65.29,21.97Z"/><path class="cls-53_city-2-45" d="M499.9,210.45c0,1.02,0,2-.08,2.99l-.91,42.37c0,3.74-.17,7.49-.46,11.14-.32,5.22-1.32,10.37-2.99,15.32-3.18,8.88-9.36,16.45-16.29,22.83-27.05,24.96-63.82,32.08-97.06,45.54H62.64c-2.43-2.74-4.77-5.63-6.91-8.62-11.77-16.17-20.08-35.74-26.2-54.88-2.12-6.57-4.07-13.35-5.6-20.19,0-.43-.21-.86-.29-1.3s.14-.46.21-.7h3.64v-11.65c2.04-6.36,4.06-12.62,5.7-19.01h13.4v30.77h8.7v-26.48h11.92v26.43h2.55v-61.43h23.56v61.43h403.54v-94.32h.11c3.18,12.82,3.18,26.41,2.93,39.76Z"/></g><g id="building_city-2-45"><path class="cls-57_city-2-45" d="M466.77,255.4c-.68-2.51-1.85-4.86-3.45-6.91-1.66-2.29-2.89-4.86-3.64-7.59-.73-2.76-.28-5.71,1.24-8.13.68-.99,1.59-1.78,2.21-2.78,1.15-2.21,1.49-4.76.94-7.19-.55-2.4-.9-4.84-1.05-7.3.08-3.42,1.56-6.65,4.1-8.94,1.83-1.59,4.77-2.63,6.65-1.08,1.04.97,1.59,2.35,1.51,3.77-.08,1.4-.25,2.79-.51,4.17-.24,2.14-.05,4.3.56,6.36.75,2.55,2.18,5.09,1.93,7.75-.37,1.78-.99,3.5-1.85,5.11-.86,1.62-1.02,3.53-.43,5.27.95,2.08,3.56,2.98,4.77,4.98.96,2.02.92,4.38-.11,6.36-.98,1.94-1.69,4-2.13,6.13-.03,1.97.16,3.93.57,5.86.4,1.95-.02,3.99-1.18,5.62-1.77,2.02-4.9,1.96-7.59,1.7-3.07-.27-3.91-1.59-3.07-4.31.83-2.87,1.01-5.88.53-8.83Z"/><path class="cls-1_city-2-45" d="M466.77,255.4c-.68-2.51-1.85-4.86-3.45-6.91-1.66-2.29-2.89-4.86-3.64-7.59-.73-2.76-.28-5.71,1.24-8.13.68-.99,1.59-1.78,2.21-2.78,1.15-2.21,1.49-4.76.94-7.19-.55-2.4-.9-4.84-1.05-7.3.08-3.42,1.56-6.65,4.1-8.94,1.83-1.59,4.77-2.63,6.65-1.08,1.04.97,1.59,2.35,1.51,3.77-.08,1.4-.25,2.79-.51,4.17-.24,2.14-.05,4.3.56,6.36.75,2.55,2.18,5.09,1.93,7.75-.37,1.78-.99,3.5-1.85,5.11-.86,1.62-1.02,3.53-.43,5.27.95,2.08,3.56,2.98,4.77,4.98.96,2.02.92,4.38-.11,6.36-.98,1.94-1.69,4-2.13,6.13-.03,1.97.16,3.93.57,5.86.4,1.95-.02,3.99-1.18,5.62-1.77,2.02-4.9,1.96-7.59,1.7-3.07-.27-3.91-1.59-3.07-4.31.83-2.87,1.01-5.88.53-8.83Z"/><path class="cls-57_city-2-45" d="M465.69,265.74c-1.58-2.07-3.57-3.78-5.84-5.04-2.41-1.49-4.53-3.39-6.27-5.63-1.74-2.26-2.46-5.14-1.97-7.96.25-1.15.76-2.24.97-3.39.21-2.48-.46-4.96-1.89-7-1.43-2.01-2.69-4.14-3.77-6.36-1.24-3.19-1.11-6.74.35-9.83,1.07-2.21,3.4-4.25,5.73-3.55,1.34.5,2.38,1.56,2.85,2.91.46,1.32.84,2.66,1.13,4.03.59,2.05,1.59,3.96,2.93,5.62,1.7,2.08,3.98,3.85,4.77,6.36.36,1.79.44,3.61.25,5.43-.19,1.82.39,3.64,1.59,5.03,1.7,1.59,4.42,1.38,6.27,2.77,1.63,1.49,2.49,3.65,2.32,5.86-.15,2.17-.03,4.34.37,6.48.73,1.83,1.66,3.58,2.78,5.2,1.18,1.67,1.58,3.76,1.1,5.74-.84,2.55-3.77,3.68-6.36,4.49-2.94.92-4.25,0-4.49-2.8-.31-2.95-1.27-5.8-2.82-8.34Z"/><path class="cls-47_city-2-45" d="M465.69,265.74c-1.58-2.07-3.57-3.78-5.84-5.04-2.41-1.49-4.53-3.39-6.27-5.63-1.74-2.26-2.46-5.14-1.97-7.96.25-1.15.76-2.24.97-3.39.21-2.48-.46-4.96-1.89-7-1.43-2.01-2.69-4.14-3.77-6.36-1.24-3.19-1.11-6.74.35-9.83,1.07-2.21,3.4-4.25,5.73-3.55,1.34.5,2.38,1.56,2.85,2.91.46,1.32.84,2.66,1.13,4.03.59,2.05,1.59,3.96,2.93,5.62,1.7,2.08,3.98,3.85,4.77,6.36.36,1.79.44,3.61.25,5.43-.19,1.82.39,3.64,1.59,5.03,1.7,1.59,4.42,1.38,6.27,2.77,1.63,1.49,2.49,3.65,2.32,5.86-.15,2.17-.03,4.34.37,6.48.73,1.83,1.66,3.58,2.78,5.2,1.18,1.67,1.58,3.76,1.1,5.74-.84,2.55-3.77,3.68-6.36,4.49-2.94.92-4.25,0-4.49-2.8-.31-2.95-1.27-5.8-2.82-8.34Z"/><polygon class="cls-57_city-2-45" points="113.67 267.13 163.39 267.13 163.39 220.91 148.85 220.91 148.85 231.88 139.44 231.88 131.58 215.96 122.8 220.54 122.8 227.56 113.67 232.6 113.67 267.13"/><polygon class="cls-57_city-2-45" points="123.45 267.13 173.7 267.13 173.7 220.91 159.16 220.91 159.16 231.88 141.89 231.88 141.89 215.96 133.11 220.54 133.11 227.56 123.45 232.6 123.45 267.13"/><polygon class="cls-48_city-2-45" points="123.45 267.13 173.7 267.13 173.7 220.91 159.16 220.91 159.16 231.88 141.89 231.88 141.89 215.96 133.11 220.54 133.11 227.56 123.45 232.6 123.45 267.13"/><polygon class="cls-57_city-2-45" points="141.89 215.96 131.58 215.96 122.8 220.54 133.11 220.54 141.89 215.96"/><rect class="cls-46_city-2-45" x="122.88" y="220.51" width="10.31" height="7"/><polygon class="cls-57_city-2-45" points="122.8 227.56 133.11 227.56 123.45 232.6 113.67 232.6 122.8 227.56"/><polygon class="cls-51_city-2-45" points="141.89 215.96 131.58 215.96 122.8 220.54 133.11 220.54 141.89 215.96"/><polygon class="cls-52_city-2-45" points="122.8 227.56 133.11 227.56 123.45 232.6 113.67 232.6 122.8 227.56"/><rect class="cls-50_city-2-45" x="113.67" y="232.6" width="9.8" height="34.53"/><rect class="cls-57_city-2-45" x="152.36" y="142.28" width="37.37" height="125.19"/><rect class="cls-26_city-2-45" x="152.36" y="142.28" width="37.37" height="125.19"/><rect class="cls-57_city-2-45" x="189.74" y="142.28" width="14.99" height="125.19"/><rect class="cls-49_city-2-45" x="189.74" y="142.28" width="14.99" height="125.19"/><rect class="cls-57_city-2-45" x="156.39" y="136.28" width="31.41" height="6.01"/><rect class="cls-21_city-2-45" x="156.39" y="136.28" width="31.41" height="6.01"/><rect class="cls-57_city-2-45" x="187.57" y="136.28" width="13.6" height="6.01"/><rect class="cls-57_city-2-45" x="160.33" y="130.26" width="25.87" height="6.01"/><rect class="cls-22_city-2-45" x="160.33" y="130.26" width="25.87" height="6.01"/><rect class="cls-57_city-2-45" x="186.01" y="130.26" width="11.2" height="6.01"/><polygon class="cls-45_city-2-45" points="179.97 149.53 185.9 149.53 185.9 156.93 179.97 156.93 179.97 149.53 179.97 149.53"/><polygon class="cls-45_city-2-45" points="179.97 149.53 181.51 149.53 181.51 156.93 179.97 156.93 179.97 149.53 179.97 149.53"/><polygon class="cls-45_city-2-45" points="179.97 158.66 185.9 158.66 185.9 166.06 179.97 166.06 179.97 158.66 179.97 158.66"/><polygon class="cls-45_city-2-45" points="179.97 158.66 181.51 158.66 181.51 166.06 179.97 166.06 179.97 158.66 179.97 158.66"/><polygon class="cls-45_city-2-45" points="179.82 167.8 185.76 167.8 185.76 175.2 179.82 175.2 179.82 167.8 179.82 167.8"/><polygon class="cls-45_city-2-45" points="179.82 167.8 181.37 167.8 181.37 175.2 179.82 175.2 179.82 167.8 179.82 167.8"/><polygon class="cls-45_city-2-45" points="179.97 177.61 185.9 177.61 185.9 185.01 179.97 185.01 179.97 177.61 179.97 177.61"/><polygon class="cls-45_city-2-45" points="179.97 177.61 181.51 177.61 181.51 185.01 179.97 185.01 179.97 177.61 179.97 177.61"/><polygon class="cls-45_city-2-45" points="179.97 186.75 185.9 186.75 185.9 194.14 179.97 194.14 179.97 186.75 179.97 186.75"/><polygon class="cls-45_city-2-45" points="179.97 186.75 181.51 186.75 181.51 194.14 179.97 194.14 179.97 186.75 179.97 186.75"/><polygon class="cls-45_city-2-45" points="179.82 195.89 185.76 195.89 185.76 203.28 179.82 203.28 179.82 195.89 179.82 195.89"/><polygon class="cls-45_city-2-45" points="179.82 195.89 181.37 195.89 181.37 203.28 179.82 203.28 179.82 195.89 179.82 195.89"/><polygon class="cls-45_city-2-45" points="155.82 149.53 161.73 149.53 161.73 156.93 155.82 156.93 155.82 149.53 155.82 149.53"/><polygon class="cls-45_city-2-45" points="155.82 149.53 157.36 149.53 157.36 156.93 155.82 156.93 155.82 149.53 155.82 149.53"/><polygon class="cls-45_city-2-45" points="155.82 158.66 161.73 158.66 161.73 166.06 155.82 166.06 155.82 158.66 155.82 158.66"/><polygon class="cls-45_city-2-45" points="155.82 158.66 157.36 158.66 157.36 166.06 155.82 166.06 155.82 158.66 155.82 158.66"/><polygon class="cls-45_city-2-45" points="155.82 167.8 161.73 167.8 161.73 175.2 155.82 175.2 155.82 167.8 155.82 167.8"/><polygon class="cls-45_city-2-45" points="155.82 167.8 157.36 167.8 157.36 175.2 155.82 175.2 155.82 167.8 155.82 167.8"/><polygon class="cls-45_city-2-45" points="155.82 177.61 161.73 177.61 161.73 185.01 155.82 185.01 155.82 177.61 155.82 177.61"/><polygon class="cls-45_city-2-45" points="155.82 177.61 157.36 177.61 157.36 185.01 155.82 185.01 155.82 177.61 155.82 177.61"/><polygon class="cls-45_city-2-45" points="155.82 186.75 161.73 186.75 161.73 194.14 155.82 194.14 155.82 186.75 155.82 186.75"/><polygon class="cls-45_city-2-45" points="155.82 186.75 157.36 186.75 157.36 194.14 155.82 194.14 155.82 186.75 155.82 186.75"/><polygon class="cls-45_city-2-45" points="155.82 195.89 161.73 195.89 161.73 203.28 155.82 203.28 155.82 195.89 155.82 195.89"/><polygon class="cls-45_city-2-45" points="155.82 195.89 157.36 195.89 157.36 203.28 155.82 203.28 155.82 195.89 155.82 195.89"/><polygon class="cls-45_city-2-45" points="155.82 205.7 161.73 205.7 161.73 213.08 155.82 213.08 155.82 205.7 155.82 205.7"/><polygon class="cls-45_city-2-45" points="155.82 205.7 157.36 205.7 157.36 213.08 155.82 213.08 155.82 205.7 155.82 205.7"/><polygon class="cls-45_city-2-45" points="155.82 214.83 161.73 214.83 161.73 222.23 155.82 222.23 155.82 214.83 155.82 214.83"/><polygon class="cls-45_city-2-45" points="155.82 214.83 157.36 214.83 157.36 222.23 155.82 222.23 155.82 214.83 155.82 214.83"/><polygon class="cls-45_city-2-45" points="155.82 223.96 161.73 223.96 161.73 231.36 155.82 231.36 155.82 223.96 155.82 223.96"/><polygon class="cls-45_city-2-45" points="155.82 223.96 157.36 223.96 157.36 231.36 155.82 231.36 155.82 223.96 155.82 223.96"/><polygon class="cls-45_city-2-45" points="163.75 149.53 169.67 149.53 169.67 156.93 163.75 156.93 163.75 149.53 163.75 149.53"/><polygon class="cls-45_city-2-45" points="163.75 149.53 165.3 149.53 165.3 156.93 163.75 156.93 163.75 149.53 163.75 149.53"/><polygon class="cls-45_city-2-45" points="163.75 158.66 169.67 158.66 169.67 166.06 163.75 166.06 163.75 158.66 163.75 158.66"/><polygon class="cls-45_city-2-45" points="163.75 158.66 165.3 158.66 165.3 166.06 163.75 166.06 163.75 158.66 163.75 158.66"/><polygon class="cls-45_city-2-45" points="163.75 167.8 169.67 167.8 169.67 175.2 163.75 175.2 163.75 167.8 163.75 167.8"/><polygon class="cls-45_city-2-45" points="163.75 167.8 165.3 167.8 165.3 175.2 163.75 175.2 163.75 167.8 163.75 167.8"/><polygon class="cls-45_city-2-45" points="163.75 177.61 169.67 177.61 169.67 185.01 163.75 185.01 163.75 177.61 163.75 177.61"/><polygon class="cls-45_city-2-45" points="163.75 177.61 165.3 177.61 165.3 185.01 163.75 185.01 163.75 177.61 163.75 177.61"/><polygon class="cls-45_city-2-45" points="163.75 186.75 169.67 186.75 169.67 194.14 163.75 194.14 163.75 186.75 163.75 186.75"/><polygon class="cls-45_city-2-45" points="163.75 186.75 165.3 186.75 165.3 194.14 163.75 194.14 163.75 186.75 163.75 186.75"/><polygon class="cls-45_city-2-45" points="163.75 195.89 169.67 195.89 169.67 203.28 163.75 203.28 163.75 195.89 163.75 195.89"/><polygon class="cls-45_city-2-45" points="163.75 195.89 165.3 195.89 165.3 203.28 163.75 203.28 163.75 195.89 163.75 195.89"/><polygon class="cls-45_city-2-45" points="163.75 205.7 169.67 205.7 169.67 213.08 163.75 213.08 163.75 205.7 163.75 205.7"/><polygon class="cls-45_city-2-45" points="163.75 205.7 165.3 205.7 165.3 213.08 163.75 213.08 163.75 205.7 163.75 205.7"/><polygon class="cls-45_city-2-45" points="163.75 214.83 169.67 214.83 169.67 222.23 163.75 222.23 163.75 214.83 163.75 214.83"/><polygon class="cls-45_city-2-45" points="163.75 214.83 165.3 214.83 165.3 222.23 163.75 222.23 163.75 214.83 163.75 214.83"/><polygon class="cls-45_city-2-45" points="163.75 223.96 169.67 223.96 169.67 231.36 163.75 231.36 163.75 223.96 163.75 223.96"/><polygon class="cls-45_city-2-45" points="163.75 223.96 165.3 223.96 165.3 231.36 163.75 231.36 163.75 223.96 163.75 223.96"/><polygon class="cls-45_city-2-45" points="171.68 149.53 177.61 149.53 177.61 156.93 171.68 156.93 171.68 149.53 171.68 149.53"/><polygon class="cls-45_city-2-45" points="171.68 149.53 173.22 149.53 173.22 156.93 171.68 156.93 171.68 149.53 171.68 149.53"/><polygon class="cls-45_city-2-45" points="171.68 158.66 177.61 158.66 177.61 166.06 171.68 166.06 171.68 158.66 171.68 158.66"/><polygon class="cls-45_city-2-45" points="171.68 158.66 173.22 158.66 173.22 166.06 171.68 166.06 171.68 158.66 171.68 158.66"/><polygon class="cls-45_city-2-45" points="171.68 167.8 177.61 167.8 177.61 175.2 171.68 175.2 171.68 167.8 171.68 167.8"/><polygon class="cls-45_city-2-45" points="171.68 167.8 173.22 167.8 173.22 175.2 171.68 175.2 171.68 167.8 171.68 167.8"/><polygon class="cls-45_city-2-45" points="171.68 177.61 177.61 177.61 177.61 185.01 171.68 185.01 171.68 177.61 171.68 177.61"/><polygon class="cls-45_city-2-45" points="171.68 177.61 173.22 177.61 173.22 185.01 171.68 185.01 171.68 177.61 171.68 177.61"/><polygon class="cls-45_city-2-45" points="171.68 186.75 177.61 186.75 177.61 194.14 171.68 194.14 171.68 186.75 171.68 186.75"/><polygon class="cls-45_city-2-45" points="171.68 186.75 173.22 186.75 173.22 194.14 171.68 194.14 171.68 186.75 171.68 186.75"/><polygon class="cls-45_city-2-45" points="171.68 195.89 177.61 195.89 177.61 203.28 171.68 203.28 171.68 195.89 171.68 195.89"/><polygon class="cls-45_city-2-45" points="171.68 195.89 173.22 195.89 173.22 203.28 171.68 203.28 171.68 195.89 171.68 195.89"/><polygon class="cls-45_city-2-45" points="171.68 205.7 177.61 205.7 177.61 213.08 171.68 213.08 171.68 205.7 171.68 205.7"/><polygon class="cls-45_city-2-45" points="171.68 205.7 173.22 205.7 173.22 213.08 171.68 213.08 171.68 205.7 171.68 205.7"/><polygon class="cls-45_city-2-45" points="171.68 214.83 177.61 214.83 177.61 222.23 171.68 222.23 171.68 214.83 171.68 214.83"/><polygon class="cls-45_city-2-45" points="171.68 214.83 173.22 214.83 173.22 222.23 171.68 222.23 171.68 214.83 171.68 214.83"/><polygon class="cls-45_city-2-45" points="171.68 223.96 177.61 223.96 177.61 231.36 171.68 231.36 171.68 223.96 171.68 223.96"/><polygon class="cls-45_city-2-45" points="171.68 223.96 173.22 223.96 173.22 231.36 171.68 231.36 171.68 223.96 171.68 223.96"/><polygon class="cls-45_city-2-45" points="179.97 205.7 185.9 205.7 185.9 213.08 179.97 213.08 179.97 205.7 179.97 205.7"/><polygon class="cls-45_city-2-45" points="179.97 205.7 181.51 205.7 181.51 213.08 179.97 213.08 179.97 205.7 179.97 205.7"/><polygon class="cls-45_city-2-45" points="179.97 214.83 185.9 214.83 185.9 222.23 179.97 222.23 179.97 214.83 179.97 214.83"/><polygon class="cls-45_city-2-45" points="179.97 214.83 181.51 214.83 181.51 222.23 179.97 222.23 179.97 214.83 179.97 214.83"/><polygon class="cls-45_city-2-45" points="179.82 223.96 185.76 223.96 185.76 231.36 179.82 231.36 179.82 223.96 179.82 223.96"/><polygon class="cls-45_city-2-45" points="179.82 223.96 181.37 223.96 181.37 231.36 179.82 231.36 179.82 223.96 179.82 223.96"/><rect class="cls-57_city-2-45" x="165.2" y="137.45" width="3.02" height="4.25"/><rect class="cls-57_city-2-45" x="170.33" y="137.45" width="3.02" height="4.25"/><rect class="cls-57_city-2-45" x="175.43" y="137.45" width="3.02" height="4.25"/><rect class="cls-57_city-2-45" x="170.33" y="137.45" width=".89" height="4.25"/><rect class="cls-57_city-2-45" x="175.43" y="137.45" width=".89" height="4.25"/><rect class="cls-57_city-2-45" x="198.23" y="149.53" width="3.02" height="117.95"/><rect class="cls-57_city-2-45" x="200.37" y="149.53" width=".89" height="117.95"/><rect class="cls-57_city-2-45" x="193.11" y="149.53" width="3.02" height="117.95"/><rect class="cls-57_city-2-45" x="195.24" y="149.53" width=".89" height="117.95"/><polygon class="cls-45_city-2-45" points="160.33 130.26 178.47 117.77 186.01 130.26 160.33 130.26"/><polygon class="cls-45_city-2-45" points="197.23 130.26 178.47 117.77 186.01 130.26 197.23 130.26"/><rect class="cls-4_city-2-45" x="187.57" y="136.28" width="13.6" height="6.01"/><rect class="cls-5_city-2-45" x="186.01" y="130.26" width="11.2" height="6.01"/><polygon class="cls-36_city-2-45" points="197.23 130.26 178.47 117.77 186.01 130.26 197.23 130.26"/><path class="cls-45_city-2-45" d="M277.83,216.34h-77.96v51.38h77.96v-51.38Z"/><path class="cls-37_city-2-45" d="M277.83,216.34h-77.96v51.38h77.96v-51.38Z"/><polygon class="cls-38_city-2-45" points="232.79 226.98 207.32 226.98 207.32 242.48 232.79 242.48 232.79 226.98 232.79 226.98"/><polygon class="cls-45_city-2-45" points="208.65 226.98 207.32 226.98 207.32 242.48 208.65 242.48 208.65 226.98 208.65 226.98"/><polygon class="cls-45_city-2-45" points="212.17 226.98 211.85 226.98 211.85 242.48 212.17 242.48 212.17 226.98 212.17 226.98"/><polygon class="cls-45_city-2-45" points="229.1 226.98 228.77 226.98 228.77 242.48 229.1 242.48 229.1 226.98 229.1 226.98"/><polygon class="cls-39_city-2-45" points="270.61 226.98 245.12 226.98 245.12 242.48 270.61 242.48 270.61 226.98 270.61 226.98"/><polygon class="cls-45_city-2-45" points="246.46 226.98 245.12 226.98 245.12 242.48 246.46 242.48 246.46 226.98 246.46 226.98"/><polygon class="cls-45_city-2-45" points="250.53 226.98 250.2 226.98 250.2 242.48 250.53 242.48 250.53 226.98 250.53 226.98"/><polygon class="cls-45_city-2-45" points="267.44 226.98 267.11 226.98 267.11 242.48 267.44 242.48 267.44 226.98 267.44 226.98"/><polygon class="cls-42_city-2-45" points="270.64 249.48 254.51 249.48 254.51 259.65 270.64 259.65 270.64 249.48 270.64 249.48"/><polygon class="cls-45_city-2-45" points="255.85 249.48 254.51 249.48 254.51 259.65 255.85 259.65 255.85 249.48 255.85 249.48"/><polygon class="cls-45_city-2-45" points="257.95 249.48 257.61 249.48 257.61 259.66 257.95 259.66 257.95 249.48 257.95 249.48"/><polygon class="cls-45_city-2-45" points="267.89 249.48 267.57 249.48 267.57 259.66 267.89 259.66 267.89 249.48 267.89 249.48"/><polygon class="cls-45_city-2-45" points="291.79 216.34 277.83 216.34 277.83 267.72 291.79 267.72 291.79 216.34 291.79 216.34"/><polygon class="cls-40_city-2-45" points="291.79 216.34 277.83 216.34 277.83 267.72 291.79 267.72 291.79 216.34 291.79 216.34"/><path class="cls-2_city-2-45" d="M199.82,227.02h1.21c.16.02.27.16.27.32v1.26c0,.16-.11.29-.27.32h-1.21v-1.89Z"/><path class="cls-2_city-2-45" d="M199.82,224.85h2.69c.08,0,.16.03.21.1.02.08.02.16,0,.24v1.23c.02.08.02.16,0,.24-.05.06-.13.09-.21.1h-2.67v-1.89h-.02Z"/><polygon class="cls-56_city-2-45" points="277.83 216.34 198.2 216.34 198.2 224.85 277.83 224.85 277.83 216.34 277.83 216.34"/><polygon class="cls-2_city-2-45" points="293.4 216.34 277.83 216.34 277.83 224.85 293.4 224.85 293.4 216.34 293.4 216.34"/><polygon class="cls-58_city-2-45" points="277.85 225.81 199.82 225.81 199.82 224.85 277.85 224.85 277.85 225.81 277.85 225.81"/><polygon class="cls-58_city-2-45" points="291.79 225.81 277.83 225.81 277.83 224.85 291.79 224.85 291.79 225.81 291.79 225.81"/><polygon class="cls-18_city-2-45" points="277.85 247.91 199.82 247.91 199.82 246.95 277.85 246.95 277.85 247.91 277.85 247.91"/><polygon class="cls-18_city-2-45" points="291.79 247.91 277.85 247.91 277.85 246.95 291.79 246.95 291.79 247.91 291.79 247.91"/><polygon class="cls-2_city-2-45" points="277.83 244.31 198.2 244.31 198.2 246.94 277.83 246.94 277.83 244.31 277.83 244.31"/><polygon class="cls-2_city-2-45" points="293.4 244.31 277.83 244.31 277.83 246.94 293.4 246.94 293.4 244.31 293.4 244.31"/><path class="cls-2_city-2-45" d="M238.03,230.06c.02-.06.02-.12,0-.18-.03-.06-.09-.1-.16-.1h-2.74c-.07,0-.13.04-.18.1-.02.06-.02.12,0,.18v.97c-.02.06-.02.13,0,.19.05.05.11.08.18.08h2.66c.06,0,.12-.03.16-.08.02-.06.02-.13,0-.19l.08-.97Z"/><path class="cls-2_city-2-45" d="M239.11,231.88c.02-.13-.07-.25-.2-.27-.01,0-.02,0-.03,0h-2.66c-.05-.02-.11-.02-.16,0-.02.06-.02.13,0,.19v.99c-.02.06-.02.13,0,.19.05.02.11.02.16,0h2.66c.06.02.12.02.18,0,.02-.06.02-.13,0-.19l.06-.91Z"/><path class="cls-2_city-2-45" d="M252.65,248.21c.02-.06.02-.13,0-.19-.05-.05-.11-.08-.18-.08h-2.7c-.07,0-.13.03-.18.08-.02.06-.02.13,0,.19v.99c-.02.06-.02.13,0,.19.05.05.11.08.18.08h2.64c.07,0,.13-.03.18-.08.02-.06.02-.13,0-.19l.06-.99Z"/><polygon class="cls-43_city-2-45" points="231.07 252.03 210.31 252.03 210.31 267.65 231.07 267.65 231.07 252.03 231.07 252.03"/><polygon class="cls-41_city-2-45" points="244.61 252.03 235.51 252.03 235.51 267.65 244.61 267.65 244.61 252.03 244.61 252.03"/><rect class="cls-57_city-2-45" x="295.19" y="195.39" width="60.75" height="24.25"/><rect class="cls-6_city-2-45" x="295.19" y="195.39" width="60.75" height="24.25"/><rect class="cls-7_city-2-45" x="340.87" y="192.04" width="15.53" height="26.35"/><path class="cls-45_city-2-45" d="M364.52,216.55h-77.96v51.38h77.96v-51.38Z"/><path class="cls-29_city-2-45" d="M364.52,216.55h-77.96v51.38h77.96v-51.38Z"/><polygon class="cls-45_city-2-45" points="319.46 227.19 293.98 227.19 293.98 242.69 319.46 242.69 319.46 227.19 319.46 227.19"/><polygon class="cls-45_city-2-45" points="295.34 227.19 293.98 227.19 293.98 242.69 295.34 242.69 295.34 227.19 295.34 227.19"/><polygon class="cls-45_city-2-45" points="298.85 227.19 298.52 227.19 298.52 242.69 298.85 242.69 298.85 227.19 298.85 227.19"/><polygon class="cls-45_city-2-45" points="315.77 227.19 315.43 227.19 315.43 242.69 315.77 242.69 315.77 227.19 315.77 227.19"/><polygon class="cls-45_city-2-45" points="357.26 227.19 331.8 227.19 331.8 242.69 357.26 242.69 357.26 227.19 357.26 227.19"/><polygon class="cls-45_city-2-45" points="333.14 227.19 331.8 227.19 331.8 242.69 333.14 242.69 333.14 227.19 333.14 227.19"/><polygon class="cls-45_city-2-45" points="337.18 227.19 336.86 227.19 336.86 242.69 337.18 242.69 337.18 227.19 337.18 227.19"/><polygon class="cls-45_city-2-45" points="354.11 227.19 353.79 227.19 353.79 242.69 354.11 242.69 354.11 227.19 354.11 227.19"/><polygon class="cls-45_city-2-45" points="378.45 216.55 364.52 216.55 364.52 267.92 378.45 267.92 378.45 216.55 378.45 216.55"/><polygon class="cls-44_city-2-45" points="378.45 216.55 364.52 216.55 364.52 267.92 378.45 267.92 378.45 216.55 378.45 216.55"/><path class="cls-2_city-2-45" d="M364.52,227.25h-1.3c-.16.02-.28.16-.27.32v1.26c0,.16.11.29.27.32h1.21v-1.89h.1Z"/><path class="cls-2_city-2-45" d="M364.52,225.06h-2.69c-.08,0-.16.03-.21.1-.05.07-.08.15-.08.24v1.23c0,.09.03.17.08.24.06.05.13.08.21.1h2.69v-1.89h0Z"/><path class="cls-2_city-2-45" d="M364.52,225.06h-2.69c-.08,0-.16.03-.21.1-.05.07-.08.15-.08.24v1.23c0,.09.03.17.08.24.06.05.13.08.21.1h2.69v-1.89h0Z"/><path class="cls-2_city-2-45" d="M286.49,227.25h1.19c.17,0,.29.15.29.32,0,0,0,0,0,0v1.26c0,.16-.12.3-.29.32h-1.19v-1.89Z"/><path class="cls-2_city-2-45" d="M286.49,225.06h2.67c.08,0,.16.03.21.1.02.08.02.16,0,.24v1.23c.02.08.02.16,0,.24-.05.06-.13.09-.21.1h-2.67v-1.89h0Z"/><path class="cls-2_city-2-45" d="M286.49,232.62h1.19c.16.02.29.15.29.32v1.27c0,.16-.12.3-.29.32h-1.19v-1.91Z"/><path class="cls-2_city-2-45" d="M286.49,230.37h2.67c.08,0,.16.04.21.11.02.07.02.15,0,.22v1.24c.02.07.02.15,0,.22-.05.06-.13.1-.21.1h-2.67v-1.89Z"/><path class="cls-2_city-2-45" d="M286.49,227.25h1.19c.17,0,.29.15.29.32,0,0,0,0,0,0v1.26c0,.16-.12.3-.29.32h-1.19v-1.89Z"/><path class="cls-2_city-2-45" d="M286.49,225.06h2.67c.08,0,.16.03.21.1.02.08.02.16,0,.24v1.23c.02.08.02.16,0,.24-.05.06-.13.09-.21.1h-2.67v-1.89h0Z"/><path class="cls-2_city-2-45" d="M364.52,238.19h-1.3c-.15.02-.27.15-.27.3h0v1.29c0,.16.11.29.27.3,0,0,0,0,0,0h1.21v-1.88l.1-.02Z"/><path class="cls-2_city-2-45" d="M364.52,235.99h-2.69c-.08,0-.15.04-.21.1-.05.06-.08.14-.08.22v1.24c0,.09.03.17.08.24.05.06.13.09.21.1h2.69v-1.89h0Z"/><path class="cls-2_city-2-45" d="M286.49,238.19h1.19c.16,0,.29.13.29.28,0,.01,0,.02,0,.03h0v1.29c0,.16-.11.29-.27.3,0,0-.01,0-.02,0h-1.19v-1.91Z"/><path class="cls-2_city-2-45" d="M286.49,235.99h2.67c.08,0,.16.03.21.1.02.07.02.15,0,.22v1.24c.02.08.02.16,0,.24-.05.06-.13.1-.21.1h-2.67v-1.89h0Z"/><path class="cls-2_city-2-45" d="M286.49,243.5h1.19c.17,0,.29.15.29.32,0,0,0,0,0,0h0v1.26c0,.16-.12.3-.29.32h-1.19v-1.89Z"/><path class="cls-2_city-2-45" d="M286.49,241.3h2.67c.08,0,.16.03.21.1.02.08.02.16,0,.24v1.23c.02.08.02.16,0,.24-.05.06-.13.1-.21.1h-2.67v-1.89h0Z"/><path class="cls-2_city-2-45" d="M286.49,238.19h1.19c.16,0,.29.13.29.28,0,.01,0,.02,0,.03h0v1.29c0,.16-.11.29-.27.3,0,0-.01,0-.02,0h-1.19v-1.91Z"/><path class="cls-2_city-2-45" d="M286.49,235.99h2.67c.08,0,.16.03.21.1.02.07.02.15,0,.22v1.24c.02.08.02.16,0,.24-.05.06-.13.1-.21.1h-2.67v-1.89h0Z"/><path class="cls-2_city-2-45" d="M364.52,249.15h-1.3c-.16.02-.27.16-.27.32v1.26c0,.16.11.3.27.32h1.21v-1.89h.1Z"/><path class="cls-2_city-2-45" d="M364.52,246.94h-2.69c-.08,0-.15.04-.21.1-.05.07-.08.15-.08.24v1.26c0,.09.03.17.08.24.06.05.13.09.21.1h2.69v-1.93Z"/><path class="cls-2_city-2-45" d="M286.49,249.15h1.19c.17,0,.29.15.29.32,0,0,0,0,0,0v1.26c0,.16-.11.3-.27.32h-1.21v-1.89Z"/><path class="cls-2_city-2-45" d="M286.49,246.94h2.67c.08,0,.16.03.21.1.02.08.02.16,0,.24v1.26c.02.08.02.16,0,.24-.05.06-.13.09-.21.1h-2.67v-1.93Z"/><path class="cls-2_city-2-45" d="M286.49,254.43h1.19c.16.02.29.15.29.32v1.26c0,.16-.11.3-.27.32h-1.21v-1.89Z"/><path class="cls-2_city-2-45" d="M286.49,252.25h2.67c.07-.02.14-.02.21,0,.02.08.02.16,0,.24v1.23c.02.08.02.16,0,.24-.05.06-.13.1-.21.1h-2.67v-1.88.08Z"/><path class="cls-2_city-2-45" d="M286.49,249.15h1.19c.17,0,.29.15.29.32,0,0,0,0,0,0v1.26c0,.16-.11.3-.27.32h-1.21v-1.89Z"/><path class="cls-2_city-2-45" d="M286.49,246.94h2.67c.08,0,.16.03.21.1.02.08.02.16,0,.24v1.26c.02.08.02.16,0,.24-.05.06-.13.09-.21.1h-2.67v-1.93Z"/><path class="cls-2_city-2-45" d="M364.52,260.05h-1.3c-.16.02-.27.16-.27.32v1.26c0,.16.11.29.27.32h1.21v-1.89h.1Z"/><path class="cls-2_city-2-45" d="M364.52,257.85h-2.69c-.08,0-.15.04-.21.1-.05.07-.08.15-.08.24v1.23c0,.09.03.17.08.24.06.05.13.09.21.1h2.69v-1.89h0Z"/><path class="cls-2_city-2-45" d="M286.49,260.05h1.19c.17,0,.29.15.29.32,0,0,0,0,0,0v1.26c0,.16-.12.3-.29.32h-1.19v-1.89Z"/><path class="cls-2_city-2-45" d="M286.49,257.85h2.67c.08,0,.15.04.21.1.02.08.02.16,0,.24v1.23c.02.08.02.16,0,.24-.05.06-.13.1-.21.1h-2.67v-1.89h0Z"/><path class="cls-2_city-2-45" d="M286.49,260.05h1.19c.17,0,.29.15.29.32,0,0,0,0,0,0v1.26c0,.16-.12.3-.29.32h-1.19v-1.89Z"/><path class="cls-2_city-2-45" d="M286.49,257.85h2.67c.08,0,.15.04.21.1.02.08.02.16,0,.24v1.23c.02.08.02.16,0,.24-.05.06-.13.1-.21.1h-2.67v-1.89h0Z"/><polygon class="cls-45_city-2-45" points="364.52 216.55 284.87 216.55 284.87 225.06 364.52 225.06 364.52 216.55 364.52 216.55"/><polygon class="cls-55_city-2-45" points="277.83 216.34 198.2 216.34 198.2 224.85 277.83 224.85 277.83 216.34 277.83 216.34"/><polygon class="cls-54_city-2-45" points="364.52 216.55 284.87 216.55 284.87 225.06 364.52 225.06 364.52 216.55 364.52 216.55"/><polygon class="cls-2_city-2-45" points="380.06 216.55 364.52 216.55 364.52 225.06 380.06 225.06 380.06 216.55 380.06 216.55"/><polygon class="cls-58_city-2-45" points="364.53 226.01 286.49 226.01 286.49 225.06 364.53 225.06 364.53 226.01 364.53 226.01"/><polygon class="cls-58_city-2-45" points="378.45 226.01 364.5 226.01 364.5 225.06 378.45 225.06 378.45 226.01 378.45 226.01"/><polygon class="cls-18_city-2-45" points="364.53 248.11 286.49 248.11 286.49 247.16 364.53 247.16 364.53 248.11 364.53 248.11"/><polygon class="cls-18_city-2-45" points="378.45 248.11 364.52 248.11 364.52 247.16 378.45 247.16 378.45 248.11 378.45 248.11"/><polygon class="cls-2_city-2-45" points="364.52 244.5 284.87 244.5 284.87 247.14 364.52 247.14 364.52 244.5 364.52 244.5"/><polygon class="cls-2_city-2-45" points="380.06 244.5 364.52 244.5 364.52 247.14 380.06 247.14 380.06 244.5 380.06 244.5"/><path class="cls-2_city-2-45" d="M324.69,230.26c.02-.06.02-.13,0-.19-.04-.05-.1-.08-.16-.08h-2.69c-.06,0-.12.03-.16.08-.05.05-.07.12-.08.19v1.02c0,.07.03.14.08.19.04.05.1.08.16.08h2.66c.06,0,.12-.03.16-.08.02-.06.02-.13,0-.19v-1.02h.03Z"/><path class="cls-2_city-2-45" d="M325.76,232.12c.02-.06.02-.12,0-.18-.04-.05-.11-.08-.18-.08h-2.64c-.07,0-.13.03-.18.08-.02.06-.02.12,0,.18v.99c-.02.13.07.25.2.27.01,0,.02,0,.03,0h2.64c.13,0,.24-.1.24-.24,0-.01,0-.02,0-.03l-.13-.99Z"/><path class="cls-2_city-2-45" d="M339.35,248.42c0-.07-.03-.14-.08-.19-.04-.05-.1-.08-.16-.08h-2.66c-.07,0-.13.03-.18.08-.02.06-.02.13,0,.19v.97c-.02.07-.02.14,0,.21.06.02.12.02.18,0h2.66c.05.02.11.02.16,0,.05-.06.08-.13.08-.21v-.97Z"/><polygon class="cls-27_city-2-45" points="232.79 226.98 207.32 226.98 207.32 242.48 232.79 242.48 232.79 226.98 232.79 226.98"/><polygon class="cls-30_city-2-45" points="270.61 226.98 245.12 226.98 245.12 242.48 270.61 242.48 270.61 226.98 270.61 226.98"/><polygon class="cls-33_city-2-45" points="270.64 249.48 254.51 249.48 254.51 259.65 270.64 259.65 270.64 249.48 270.64 249.48"/><polygon class="cls-28_city-2-45" points="231.07 252.03 210.31 252.03 210.31 267.65 231.07 267.65 231.07 252.03 231.07 252.03"/><polygon class="cls-31_city-2-45" points="244.61 252.03 235.51 252.03 235.51 267.65 244.61 267.65 244.61 252.03 244.61 252.03"/><polygon class="cls-34_city-2-45" points="319.46 227.19 293.98 227.19 293.98 242.69 319.46 242.69 319.46 227.19 319.46 227.19"/><polygon class="cls-35_city-2-45" points="357.26 227.19 331.8 227.19 331.8 242.69 357.26 242.69 357.26 227.19 357.26 227.19"/><polygon class="cls-32_city-2-45" points="336.26 252.23 315.5 252.23 315.5 267.86 336.26 267.86 336.26 252.23 336.26 252.23"/><rect class="cls-57_city-2-45" x="292.66" y="190.61" width="65.77" height="8.37"/><rect class="cls-23_city-2-45" x="292.66" y="190.61" width="65.77" height="8.37"/><rect class="cls-3_city-2-45" x="301.45" y="202.47" width="13.08" height="6.75"/><rect class="cls-57_city-2-45" x="389.37" y="177.85" width="40.49" height="91.85"/><rect class="cls-24_city-2-45" x="389.37" y="177.85" width="40.49" height="91.85"/><rect class="cls-15_city-2-45" x="429.86" y="177.85" width="13.72" height="91.85"/><rect class="cls-57_city-2-45" x="388.25" y="172.12" width="42.42" height="5.71"/><rect class="cls-57_city-2-45" x="429.85" y="172.12" width="15.02" height="5.71"/><rect class="cls-16_city-2-45" x="429.85" y="172.12" width="15.02" height="5.71"/><rect class="cls-57_city-2-45" x="389.35" y="183.1" width="54.22" height=".75"/><rect class="cls-57_city-2-45" x="429.86" y="183.1" width="13.72" height=".75"/><rect class="cls-57_city-2-45" x="389.35" y="191.73" width="54.22" height=".75"/><rect class="cls-57_city-2-45" x="429.86" y="191.73" width="13.72" height=".75"/><rect class="cls-57_city-2-45" x="389.35" y="200.35" width="54.22" height=".75"/><rect class="cls-57_city-2-45" x="429.86" y="200.35" width="13.72" height=".75"/><rect class="cls-57_city-2-45" x="389.35" y="208.99" width="54.22" height=".75"/><rect class="cls-57_city-2-45" x="429.86" y="208.99" width="13.72" height=".75"/><rect class="cls-57_city-2-45" x="389.35" y="217.61" width="54.22" height=".75"/><rect class="cls-57_city-2-45" x="429.86" y="217.61" width="13.72" height=".75"/><rect class="cls-13_city-2-45" x="389.35" y="226.25" width="54.22" height=".75"/><rect class="cls-57_city-2-45" x="429.86" y="226.25" width="13.72" height=".75"/><rect class="cls-57_city-2-45" x="389.35" y="234.89" width="54.22" height=".75"/><rect class="cls-57_city-2-45" x="429.86" y="234.89" width="13.72" height=".75"/><rect class="cls-57_city-2-45" x="389.35" y="243.52" width="54.22" height=".75"/><rect class="cls-57_city-2-45" x="429.86" y="243.52" width="13.72" height=".75"/><rect class="cls-57_city-2-45" x="389.35" y="252.14" width="54.22" height=".75"/><rect class="cls-57_city-2-45" x="429.86" y="252.14" width="13.72" height=".75"/><rect class="cls-57_city-2-45" x="389.35" y="260.76" width="54.22" height=".75"/><rect class="cls-57_city-2-45" x="429.86" y="260.76" width="13.72" height=".75"/><rect class="cls-57_city-2-45" x="389.35" y="226.25" width="54.22" height=".75"/><rect class="cls-57_city-2-45" x="429.86" y="226.25" width="13.72" height=".75"/><rect class="cls-14_city-2-45" x="129.23" y="238.84" width="22.67" height="9.8"/><rect class="cls-57_city-2-45" x="42.21" y="241.13" width="60.48" height="26.3"/><rect class="cls-9_city-2-45" x="51.19" y="244.96" width="48.21" height="6.13"/><rect class="cls-8_city-2-45" x="68.15" y="253.33" width="31.46" height="13.08"/><rect class="cls-57_city-2-45" x="40.57" y="235.56" width="64.26" height="8.16"/><rect class="cls-25_city-2-45" x="40.57" y="235.56" width="64.26" height="8.16"/><path class="cls-57_city-2-45" d="M78.27,220.87c.78-1.98,1.39-4.03,1.83-6.11.37-2.26.14-4.58.3-6.89,0-2.32.87-4.56,2.47-6.25.93,1.76,1.65,3.62,2.16,5.54.84,3.91,0,8.1,1,11.92.53,1.61,1.17,3.18,1.93,4.69.75,1.54,1.15,3.23,1.16,4.95-.22,2.94-2.78,5.14-5.71,4.92-.86-.06-1.7-.34-2.44-.8-4.15-2.51-4.03-7.99-2.7-11.96Z"/><polygon class="cls-57_city-2-45" points="84.55 235.61 82.42 235.61 83.06 227.86 84.04 227.86 84.55 235.61"/><polygon class="cls-12_city-2-45" points="84.55 235.61 82.42 235.61 83.06 227.86 84.04 227.86 84.55 235.61"/><path class="cls-57_city-2-45" d="M65.52,220.87c.78-1.98,1.39-4.03,1.85-6.11.37-2.26.13-4.58.29-6.89,0-2.32.89-4.55,2.47-6.25.92,1.76,1.64,3.62,2.15,5.54.84,3.91,0,8.1,1,11.92.55,1.61,1.2,3.17,1.96,4.69.76,1.54,1.16,3.23,1.18,4.95-.21,2.93-2.75,5.13-5.68,4.92-.87-.06-1.71-.34-2.45-.8-4.18-2.51-4.07-7.99-2.75-11.96Z"/><polygon class="cls-57_city-2-45" points="71.81 235.61 69.67 235.61 70.31 227.86 71.3 227.86 71.81 235.61"/><polygon class="cls-10_city-2-45" points="71.81 235.61 69.67 235.61 70.31 227.86 71.3 227.86 71.81 235.61"/><path class="cls-57_city-2-45" d="M52.78,220.87c.77-1.99,1.39-4.03,1.85-6.11.37-2.26.14-4.58.3-6.89,0-2.32.88-4.56,2.47-6.25.91,1.76,1.62,3.62,2.1,5.54.86,3.91,0,8.1,1,11.92.56,1.61,1.23,3.18,2,4.69.76,1.54,1.18,3.23,1.21,4.95-.22,2.94-2.78,5.14-5.71,4.92-.86-.06-1.7-.34-2.44-.8-4.2-2.51-4.09-7.99-2.78-11.96Z"/><polygon class="cls-57_city-2-45" points="59.08 235.61 56.93 235.61 57.58 227.86 58.55 227.86 59.08 235.61"/><polygon class="cls-11_city-2-45" points="59.08 235.61 56.93 235.61 57.58 227.86 58.55 227.86 59.08 235.61"/></g><g id="road_city-2-45"><path class="cls-57_city-2-45" d="M498.45,267.02c-.32,5.22-1.32,10.37-2.99,15.32-3.18,8.88-9.36,16.45-16.29,22.83-30.02,27.67-71.85,33.41-107.73,50.12-5.68,2.67-11.39,5.35-17.17,7.96-26.79,12.11-54.46,22.74-84.25,23.52-31.41.84-58.95-13.56-91.71-10.33-28.15,2.72-57.64,7.88-83.88-2.66-15.91-6.36-28.64-17.79-38.68-31.66-11.79-16.17-20.1-35.74-26.22-54.88-2.12-6.57-4.07-13.35-5.6-20.19l474.52-.03Z"/><path class="cls-17_city-2-45" d="M55.74,342.1h350.04s82.85-25.65,89.66-59.76H29.09s13.22,44.15,26.65,59.76Z"/><rect class="cls-19_city-2-45" x="48.75" y="304.6" width="172.68" height="5.74"/><rect class="cls-20_city-2-45" x="285.71" y="304.6" width="180.62" height="5.74"/></g></svg>