<svg id="_0228_city_buildings_1" xmlns="http://www.w3.org/2000/svg" xmlns:xlink="http://www.w3.org/1999/xlink" viewBox="0 0 500 500" data-imageid="city-1-9" imageName="City 1" class="illustrations_image" style="width: 166px;"><defs><style>.cls-1_city-1-9{stroke:#fff;stroke-width:1.51px;}.cls-1_city-1-9,.cls-2_city-1-9,.cls-3_city-1-9,.cls-4_city-1-9,.cls-5_city-1-9,.cls-6_city-1-9,.cls-7_city-1-9,.cls-8_city-1-9,.cls-9_city-1-9,.cls-10_city-1-9,.cls-11_city-1-9,.cls-12_city-1-9,.cls-13_city-1-9,.cls-14_city-1-9,.cls-15_city-1-9,.cls-16_city-1-9,.cls-17_city-1-9,.cls-18_city-1-9,.cls-19_city-1-9,.cls-20_city-1-9,.cls-21_city-1-9,.cls-22_city-1-9,.cls-23_city-1-9,.cls-24_city-1-9,.cls-25_city-1-9,.cls-26_city-1-9,.cls-27_city-1-9,.cls-28_city-1-9,.cls-29_city-1-9,.cls-30_city-1-9,.cls-31_city-1-9,.cls-32_city-1-9{fill:none;}.cls-1_city-1-9,.cls-3_city-1-9,.cls-4_city-1-9,.cls-5_city-1-9,.cls-6_city-1-9,.cls-7_city-1-9,.cls-8_city-1-9,.cls-9_city-1-9,.cls-10_city-1-9,.cls-11_city-1-9,.cls-12_city-1-9,.cls-13_city-1-9,.cls-14_city-1-9,.cls-15_city-1-9,.cls-16_city-1-9,.cls-17_city-1-9,.cls-18_city-1-9,.cls-19_city-1-9,.cls-20_city-1-9,.cls-21_city-1-9,.cls-22_city-1-9,.cls-23_city-1-9,.cls-24_city-1-9,.cls-25_city-1-9,.cls-26_city-1-9,.cls-27_city-1-9,.cls-28_city-1-9,.cls-29_city-1-9,.cls-30_city-1-9,.cls-31_city-1-9,.cls-32_city-1-9{stroke-miterlimit:10;}.cls-33_city-1-9{clip-path:url(#clippath);}.cls-2_city-1-9,.cls-34_city-1-9,.cls-35_city-1-9,.cls-36_city-1-9,.cls-37_city-1-9,.cls-38_city-1-9,.cls-39_city-1-9,.cls-40_city-1-9,.cls-41_city-1-9,.cls-42_city-1-9,.cls-43_city-1-9,.cls-44_city-1-9,.cls-45_city-1-9,.cls-46_city-1-9,.cls-47_city-1-9,.cls-48_city-1-9,.cls-49_city-1-9,.cls-50_city-1-9,.cls-51_city-1-9,.cls-52_city-1-9,.cls-53_city-1-9,.cls-54_city-1-9,.cls-55_city-1-9,.cls-56_city-1-9,.cls-57_city-1-9,.cls-58_city-1-9,.cls-59_city-1-9,.cls-60_city-1-9,.cls-61_city-1-9,.cls-62_city-1-9,.cls-63_city-1-9,.cls-64_city-1-9,.cls-65_city-1-9,.cls-66_city-1-9,.cls-67_city-1-9,.cls-68_city-1-9,.cls-69_city-1-9,.cls-70_city-1-9,.cls-71_city-1-9,.cls-72_city-1-9,.cls-73_city-1-9,.cls-74_city-1-9,.cls-75_city-1-9,.cls-76_city-1-9,.cls-77_city-1-9,.cls-78_city-1-9,.cls-79_city-1-9,.cls-80_city-1-9,.cls-81_city-1-9,.cls-82_city-1-9,.cls-83_city-1-9,.cls-84_city-1-9,.cls-85_city-1-9,.cls-86_city-1-9,.cls-87_city-1-9,.cls-88_city-1-9,.cls-89_city-1-9,.cls-90_city-1-9,.cls-91_city-1-9,.cls-92_city-1-9,.cls-93_city-1-9,.cls-94_city-1-9,.cls-95_city-1-9,.cls-96_city-1-9,.cls-97_city-1-9,.cls-98_city-1-9,.cls-99_city-1-9,.cls-100_city-1-9,.cls-101_city-1-9,.cls-102_city-1-9{stroke-width:0px;}.cls-34_city-1-9{fill:url(#linear-gradient);}.cls-35_city-1-9{fill:url(#linear-gradient-39-city-1-9);}.cls-36_city-1-9{fill:url(#linear-gradient-45-city-1-9);}.cls-37_city-1-9{fill:url(#linear-gradient-46-city-1-9);}.cls-38_city-1-9{fill:url(#linear-gradient-44-city-1-9);}.cls-39_city-1-9{fill:url(#linear-gradient-48-city-1-9);}.cls-40_city-1-9{fill:url(#linear-gradient-49-city-1-9);}.cls-41_city-1-9{fill:url(#linear-gradient-47-city-1-9);}.cls-42_city-1-9{fill:url(#linear-gradient-42-city-1-9);}.cls-43_city-1-9{fill:url(#linear-gradient-43-city-1-9);}.cls-44_city-1-9{fill:url(#linear-gradient-40-city-1-9);}.cls-45_city-1-9{fill:url(#linear-gradient-41-city-1-9);}.cls-46_city-1-9{fill:url(#linear-gradient-59-city-1-9);}.cls-47_city-1-9{fill:url(#linear-gradient-57-city-1-9);}.cls-48_city-1-9{fill:url(#linear-gradient-58-city-1-9);}.cls-49_city-1-9{fill:url(#linear-gradient-55-city-1-9);}.cls-50_city-1-9{fill:url(#linear-gradient-56-city-1-9);}.cls-51_city-1-9{fill:url(#linear-gradient-53-city-1-9);}.cls-52_city-1-9{fill:url(#linear-gradient-51-city-1-9);}.cls-53_city-1-9{fill:url(#linear-gradient-52-city-1-9);}.cls-54_city-1-9{fill:url(#linear-gradient-50-city-1-9);}.cls-55_city-1-9{fill:url(#linear-gradient-54-city-1-9);}.cls-56_city-1-9{fill:url(#linear-gradient-60-city-1-9);}.cls-57_city-1-9{fill:url(#linear-gradient-61-city-1-9);}.cls-58_city-1-9{fill:url(#linear-gradient-62-city-1-9);}.cls-59_city-1-9{fill:url(#linear-gradient-65-city-1-9);}.cls-60_city-1-9{fill:url(#linear-gradient-79-city-1-9);}.cls-61_city-1-9{fill:url(#linear-gradient-78-city-1-9);}.cls-62_city-1-9{fill:url(#linear-gradient-77-city-1-9);}.cls-63_city-1-9{fill:url(#linear-gradient-75-city-1-9);}.cls-64_city-1-9{fill:url(#linear-gradient-76-city-1-9);}.cls-65_city-1-9{fill:url(#linear-gradient-74-city-1-9);}.cls-66_city-1-9{fill:url(#linear-gradient-67-city-1-9);}.cls-67_city-1-9{fill:url(#linear-gradient-68-city-1-9);}.cls-68_city-1-9{fill:url(#linear-gradient-66-city-1-9);}.cls-69_city-1-9{fill:url(#linear-gradient-63-city-1-9);}.cls-70_city-1-9{fill:url(#linear-gradient-69-city-1-9);}.cls-71_city-1-9{fill:url(#linear-gradient-64-city-1-9);}.cls-72_city-1-9{fill:url(#linear-gradient-71-city-1-9);}.cls-73_city-1-9{fill:url(#linear-gradient-72-city-1-9);}.cls-74_city-1-9{fill:url(#linear-gradient-70-city-1-9);}.cls-75_city-1-9{fill:url(#linear-gradient-73-city-1-9);}.cls-76_city-1-9{fill:url(#linear-gradient-84-city-1-9);}.cls-77_city-1-9{fill:url(#linear-gradient-85-city-1-9);}.cls-78_city-1-9{fill:url(#linear-gradient-82-city-1-9);}.cls-79_city-1-9{fill:url(#linear-gradient-83-city-1-9);}.cls-80_city-1-9{fill:url(#linear-gradient-89-city-1-9);}.cls-81_city-1-9{fill:url(#linear-gradient-88-city-1-9);}.cls-82_city-1-9{fill:url(#linear-gradient-86-city-1-9);}.cls-83_city-1-9{fill:url(#linear-gradient-87-city-1-9);}.cls-84_city-1-9{fill:url(#linear-gradient-80-city-1-9);}.cls-85_city-1-9{fill:url(#linear-gradient-81-city-1-9);}.cls-86_city-1-9{fill:url(#linear-gradient-91-city-1-9);}.cls-87_city-1-9{fill:url(#linear-gradient-92-city-1-9);}.cls-88_city-1-9{fill:url(#linear-gradient-93-city-1-9);}.cls-89_city-1-9{fill:url(#linear-gradient-90-city-1-9);}.cls-90_city-1-9{fill:url(#linear-gradient-96-city-1-9);}.cls-91_city-1-9{fill:url(#linear-gradient-94-city-1-9);}.cls-92_city-1-9{fill:url(#linear-gradient-95-city-1-9);}.cls-3_city-1-9{stroke:url(#linear-gradient-23-city-1-9);}.cls-3_city-1-9,.cls-4_city-1-9,.cls-5_city-1-9,.cls-6_city-1-9,.cls-7_city-1-9,.cls-8_city-1-9,.cls-9_city-1-9,.cls-10_city-1-9,.cls-11_city-1-9,.cls-12_city-1-9,.cls-13_city-1-9,.cls-14_city-1-9,.cls-15_city-1-9,.cls-16_city-1-9,.cls-17_city-1-9,.cls-18_city-1-9,.cls-19_city-1-9,.cls-20_city-1-9,.cls-21_city-1-9,.cls-22_city-1-9,.cls-23_city-1-9,.cls-24_city-1-9,.cls-25_city-1-9,.cls-26_city-1-9,.cls-27_city-1-9,.cls-28_city-1-9,.cls-29_city-1-9,.cls-30_city-1-9,.cls-31_city-1-9,.cls-32_city-1-9{stroke-width:3.03px;}.cls-4_city-1-9{stroke:url(#linear-gradient-20-city-1-9);}.cls-5_city-1-9{stroke:url(#linear-gradient-14-city-1-9);}.cls-6_city-1-9{stroke:url(#linear-gradient-16-city-1-9);}.cls-7_city-1-9{stroke:url(#linear-gradient-18-city-1-9);}.cls-8_city-1-9{stroke:url(#linear-gradient-15-city-1-9);}.cls-9_city-1-9{stroke:url(#linear-gradient-17-city-1-9);}.cls-10_city-1-9{stroke:url(#linear-gradient-19-city-1-9);}.cls-11_city-1-9{stroke:url(#linear-gradient-10-city-1-9);}.cls-12_city-1-9{stroke:url(#linear-gradient-13-city-1-9);}.cls-13_city-1-9{stroke:url(#linear-gradient-11-city-1-9);}.cls-14_city-1-9{stroke:url(#linear-gradient-12-city-1-9);}.cls-15_city-1-9{stroke:url(#linear-gradient-21-city-1-9);}.cls-16_city-1-9{stroke:url(#linear-gradient-22-city-1-9);}.cls-17_city-1-9{stroke:url(#linear-gradient-30-city-1-9);}.cls-18_city-1-9{stroke:url(#linear-gradient-38-city-1-9);}.cls-19_city-1-9{stroke:url(#linear-gradient-33-city-1-9);}.cls-20_city-1-9{stroke:url(#linear-gradient-34-city-1-9);}.cls-21_city-1-9{stroke:url(#linear-gradient-32-city-1-9);}.cls-22_city-1-9{stroke:url(#linear-gradient-31-city-1-9);}.cls-23_city-1-9{stroke:url(#linear-gradient-35-city-1-9);}.cls-24_city-1-9{stroke:url(#linear-gradient-36-city-1-9);}.cls-25_city-1-9{stroke:url(#linear-gradient-37-city-1-9);}.cls-26_city-1-9{stroke:url(#linear-gradient-27-city-1-9);}.cls-27_city-1-9{stroke:url(#linear-gradient-25-city-1-9);}.cls-28_city-1-9{stroke:url(#linear-gradient-28-city-1-9);}.cls-29_city-1-9{stroke:url(#linear-gradient-29-city-1-9);}.cls-30_city-1-9{stroke:url(#linear-gradient-26-city-1-9);}.cls-31_city-1-9{stroke:url(#linear-gradient-24-city-1-9);}.cls-32_city-1-9{stroke:url(#linear-gradient-9-city-1-9);}.cls-93_city-1-9{fill:url(#linear-gradient-4-city-1-9);}.cls-94_city-1-9{fill:url(#linear-gradient-2-city-1-9);}.cls-95_city-1-9{fill:url(#linear-gradient-3-city-1-9);}.cls-96_city-1-9{fill:url(#linear-gradient-8-city-1-9);}.cls-97_city-1-9{fill:url(#linear-gradient-7-city-1-9);}.cls-98_city-1-9{fill:url(#linear-gradient-5-city-1-9);}.cls-99_city-1-9{fill:url(#linear-gradient-6-city-1-9);}.cls-100_city-1-9{isolation:isolate;opacity:.24;}.cls-100_city-1-9,.cls-102_city-1-9{fill:#68e6fd;}.cls-101_city-1-9{fill:#fff;}</style><linearGradient id="linear-gradient-city-1-9" x1="546.83" y1="675.68" x2="599.19" y2="1008.09" gradientTransform="translate(-322.1 -400.42)" gradientUnits="userSpaceOnUse"><stop offset="0" stop-color="#010101" stop-opacity="0"/><stop offset=".95" stop-color="#010101"/></linearGradient><linearGradient id="linear-gradient-2-city-1-9" x1="508.74" y1="514.89" x2="511.35" y2="891.87" gradientTransform="translate(-322.49 -329.58)" xlink:href="#linear-gradient-city-1-9"/><linearGradient id="linear-gradient-3-city-1-9" x1="505.46" y1="561.79" x2="233.98" y2="669.94" gradientTransform="translate(-322.49 -329.58)" xlink:href="#linear-gradient-city-1-9"/><linearGradient id="linear-gradient-4-city-1-9" x1="486.71" y1="465.46" x2="570.84" y2="628.51" gradientTransform="translate(-322.49 -329.58)" xlink:href="#linear-gradient-city-1-9"/><linearGradient id="linear-gradient-5-city-1-9" x1="573.96" y1="725.39" x2="583.77" y2="579.39" xlink:href="#linear-gradient-city-1-9"/><linearGradient id="linear-gradient-6-city-1-9" x1="574.45" y1="564.85" x2="571.05" y2="784.56" gradientTransform="translate(-322.49 -329.58)" xlink:href="#linear-gradient-city-1-9"/><linearGradient id="linear-gradient-7-city-1-9" x1="583.53" y1="603.94" x2="720.98" y2="560.39" gradientTransform="translate(-322.49 -329.58)" xlink:href="#linear-gradient-city-1-9"/><linearGradient id="linear-gradient-8-city-1-9" x1="647.66" y1="500.43" x2="656.63" y2="569.14" gradientTransform="translate(-322.49 -329.58)" xlink:href="#linear-gradient-city-1-9"/><linearGradient id="linear-gradient-9-city-1-9" x1="630.25" y1="509.41" x2="633.3" y2="509.41" gradientTransform="translate(-322.49 -329.58)" gradientUnits="userSpaceOnUse"><stop offset="0" stop-color="#fff" stop-opacity="0"/><stop offset=".95" stop-color="#fff"/></linearGradient><linearGradient id="linear-gradient-10-city-1-9" x1="638.91" y1="510.75" x2="641.94" y2="510.75" xlink:href="#linear-gradient-9-city-1-9"/><linearGradient id="linear-gradient-11-city-1-9" x1="647.56" y1="512.48" x2="650.59" y2="512.48" xlink:href="#linear-gradient-9-city-1-9"/><linearGradient id="linear-gradient-12-city-1-9" x1="656.22" y1="514.19" x2="659.25" y2="514.19" xlink:href="#linear-gradient-9-city-1-9"/><linearGradient id="linear-gradient-13-city-1-9" x1="664.88" y1="515.4" x2="667.91" y2="515.4" xlink:href="#linear-gradient-9-city-1-9"/><linearGradient id="linear-gradient-14-city-1-9" x1="625.62" y1="521.32" x2="673.28" y2="521.32" xlink:href="#linear-gradient-9-city-1-9"/><linearGradient id="linear-gradient-15-city-1-9" x1="625.62" y1="512.85" x2="673.28" y2="512.85" xlink:href="#linear-gradient-9-city-1-9"/><linearGradient id="linear-gradient-16-city-1-9" x1="625.62" y1="504.38" x2="669.43" y2="504.38" xlink:href="#linear-gradient-9-city-1-9"/><linearGradient id="linear-gradient-17-city-1-9" x1="625.62" y1="495.92" x2="647.59" y2="495.92" xlink:href="#linear-gradient-9-city-1-9"/><linearGradient id="linear-gradient-18-city-1-9" x1="603.68" y1="651.5" x2="606.92" y2="651.5" gradientTransform="translate(-322.1 -400.42)" xlink:href="#linear-gradient-9-city-1-9"/><linearGradient id="linear-gradient-19-city-1-9" x1="612.19" y1="650.34" x2="615.59" y2="650.34" gradientTransform="translate(-322.1 -400.42)" xlink:href="#linear-gradient-9-city-1-9"/><linearGradient id="linear-gradient-20-city-1-9" x1="621.2" y1="649.43" x2="624.54" y2="649.43" gradientTransform="translate(-322.1 -400.42)" xlink:href="#linear-gradient-9-city-1-9"/><linearGradient id="linear-gradient-21-city-1-9" x1="629.86" y1="648.49" x2="633.05" y2="648.49" gradientTransform="translate(-322.1 -400.42)" xlink:href="#linear-gradient-9-city-1-9"/><linearGradient id="linear-gradient-22-city-1-9" x1="638.52" y1="647.54" x2="641.57" y2="647.54" gradientTransform="translate(-322.1 -400.42)" xlink:href="#linear-gradient-9-city-1-9"/><linearGradient id="linear-gradient-23-city-1-9" x1="647.06" y1="646.41" x2="650.2" y2="646.41" gradientTransform="translate(-322.1 -400.42)" xlink:href="#linear-gradient-9-city-1-9"/><linearGradient id="linear-gradient-24-city-1-9" x1="655.57" y1="645.53" x2="658.86" y2="645.53" gradientTransform="translate(-322.1 -400.42)" xlink:href="#linear-gradient-9-city-1-9"/><linearGradient id="linear-gradient-25-city-1-9" x1="664.49" y1="644.53" x2="667.9" y2="644.53" gradientTransform="translate(-322.1 -400.42)" xlink:href="#linear-gradient-9-city-1-9"/><linearGradient id="linear-gradient-26-city-1-9" x1="597.75" y1="631.45" x2="676.71" y2="631.45" xlink:href="#linear-gradient-9-city-1-9"/><linearGradient id="linear-gradient-27-city-1-9" x1="597.75" y1="622.97" x2="676.71" y2="622.97" xlink:href="#linear-gradient-9-city-1-9"/><linearGradient id="linear-gradient-28-city-1-9" x1="597.75" y1="614.49" x2="676.71" y2="614.49" xlink:href="#linear-gradient-9-city-1-9"/><linearGradient id="linear-gradient-29-city-1-9" x1="597.75" y1="606.03" x2="676.71" y2="606.03" xlink:href="#linear-gradient-9-city-1-9"/><linearGradient id="linear-gradient-30-city-1-9" x1="597.75" y1="597.56" x2="676.71" y2="597.56" xlink:href="#linear-gradient-9-city-1-9"/><linearGradient id="linear-gradient-31-city-1-9" x1="597.75" y1="589.08" x2="676.71" y2="589.08" xlink:href="#linear-gradient-9-city-1-9"/><linearGradient id="linear-gradient-32-city-1-9" x1="597.75" y1="580.62" x2="676.71" y2="580.62" xlink:href="#linear-gradient-9-city-1-9"/><linearGradient id="linear-gradient-33-city-1-9" x1="597.75" y1="572.14" x2="676.71" y2="572.14" xlink:href="#linear-gradient-9-city-1-9"/><linearGradient id="linear-gradient-34-city-1-9" x1="597.75" y1="563.67" x2="676.71" y2="563.67" xlink:href="#linear-gradient-9-city-1-9"/><linearGradient id="linear-gradient-35-city-1-9" x1="597.75" y1="555.21" x2="676.71" y2="555.21" xlink:href="#linear-gradient-9-city-1-9"/><linearGradient id="linear-gradient-36-city-1-9" x1="597.75" y1="546.73" x2="676.71" y2="546.73" xlink:href="#linear-gradient-9-city-1-9"/><linearGradient id="linear-gradient-37-city-1-9" x1="597.75" y1="538.27" x2="676.71" y2="538.27" xlink:href="#linear-gradient-9-city-1-9"/><linearGradient id="linear-gradient-38-city-1-9" x1="614.47" y1="529.79" x2="676.71" y2="529.79" xlink:href="#linear-gradient-9-city-1-9"/><linearGradient id="linear-gradient-39-city-1-9" x1="438.85" y1="571.56" x2="325.57" y2="574.41" gradientTransform="translate(-322.49 -329.58)" xlink:href="#linear-gradient-city-1-9"/><linearGradient id="linear-gradient-40-city-1-9" x1="413.67" y1="538.1" x2="558.38" y2="603.83" xlink:href="#linear-gradient-9-city-1-9"/><linearGradient id="linear-gradient-41-city-1-9" x1="456.9" y1="516.56" x2="456.63" y2="586.28" gradientTransform="translate(-322.49 -329.58)" xlink:href="#linear-gradient-city-1-9"/><linearGradient id="linear-gradient-42-city-1-9" x1="456.9" y1="525.21" x2="456.63" y2="594.93" gradientTransform="translate(-322.49 -329.58)" xlink:href="#linear-gradient-city-1-9"/><linearGradient id="linear-gradient-43-city-1-9" x1="456.9" y1="533.84" x2="456.63" y2="603.57" gradientTransform="translate(-322.49 -329.58)" xlink:href="#linear-gradient-city-1-9"/><linearGradient id="linear-gradient-44-city-1-9" x1="456.9" y1="542.5" x2="456.63" y2="612.22" gradientTransform="translate(-322.49 -329.58)" xlink:href="#linear-gradient-city-1-9"/><linearGradient id="linear-gradient-45-city-1-9" x1="456.9" y1="551.13" x2="456.63" y2="620.86" gradientTransform="translate(-322.49 -329.58)" xlink:href="#linear-gradient-city-1-9"/><linearGradient id="linear-gradient-46-city-1-9" x1="456.9" y1="559.77" x2="456.63" y2="629.51" gradientTransform="translate(-322.49 -329.58)" xlink:href="#linear-gradient-city-1-9"/><linearGradient id="linear-gradient-47-city-1-9" x1="456.9" y1="568.42" x2="456.63" y2="638.15" gradientTransform="translate(-322.49 -329.58)" xlink:href="#linear-gradient-city-1-9"/><linearGradient id="linear-gradient-48-city-1-9" x1="456.9" y1="577.06" x2="456.63" y2="646.78" gradientTransform="translate(-322.49 -329.58)" xlink:href="#linear-gradient-city-1-9"/><linearGradient id="linear-gradient-49-city-1-9" x1="456.9" y1="585.71" x2="456.63" y2="655.44" gradientTransform="translate(-322.49 -329.58)" xlink:href="#linear-gradient-city-1-9"/><linearGradient id="linear-gradient-50-city-1-9" x1="456.9" y1="594.36" x2="456.63" y2="664.09" gradientTransform="translate(-322.49 -329.58)" xlink:href="#linear-gradient-city-1-9"/><linearGradient id="linear-gradient-51-city-1-9" x1="656.03" y1="426.94" x2="776.71" y2="659.17" xlink:href="#linear-gradient-9-city-1-9"/><linearGradient id="linear-gradient-52-city-1-9" x1="727.4" y1="557.14" x2="326.98" y2="649.33" gradientTransform="translate(-322.49 -329.58)" xlink:href="#linear-gradient-city-1-9"/><linearGradient id="linear-gradient-53-city-1-9" x1="644.9" y1="458.06" x2="806.17" y2="768.42" xlink:href="#linear-gradient-9-city-1-9"/><linearGradient id="linear-gradient-54-city-1-9" x1="651.88" y1="499.26" x2="609.44" y2="499.55" xlink:href="#linear-gradient-9-city-1-9"/><linearGradient id="linear-gradient-55-city-1-9" x1="531.89" y1="502.01" x2="532.02" y2="531.7" gradientTransform="translate(-322.49 -329.58)" xlink:href="#linear-gradient-city-1-9"/><linearGradient id="linear-gradient-56-city-1-9" x1="515.24" y1="506.58" x2="515.38" y2="536.25" gradientTransform="translate(-322.49 -329.58)" xlink:href="#linear-gradient-city-1-9"/><linearGradient id="linear-gradient-57-city-1-9" x1="531.89" y1="511.55" x2="532.02" y2="541.24" gradientTransform="translate(-322.49 -329.58)" xlink:href="#linear-gradient-city-1-9"/><linearGradient id="linear-gradient-58-city-1-9" x1="515.24" y1="516.1" x2="515.38" y2="545.79" gradientTransform="translate(-322.49 -329.58)" xlink:href="#linear-gradient-city-1-9"/><linearGradient id="linear-gradient-59-city-1-9" x1="531.89" y1="521.08" x2="532.02" y2="550.77" gradientTransform="translate(-322.49 -329.58)" xlink:href="#linear-gradient-city-1-9"/><linearGradient id="linear-gradient-60-city-1-9" x1="515.24" y1="525.64" x2="515.38" y2="555.31" gradientTransform="translate(-322.49 -329.58)" xlink:href="#linear-gradient-city-1-9"/><linearGradient id="linear-gradient-61-city-1-9" x1="531.89" y1="530.62" x2="532.02" y2="560.3" gradientTransform="translate(-322.49 -329.58)" xlink:href="#linear-gradient-city-1-9"/><linearGradient id="linear-gradient-62-city-1-9" x1="515.24" y1="535.18" x2="515.38" y2="564.85" gradientTransform="translate(-322.49 -329.58)" xlink:href="#linear-gradient-city-1-9"/><linearGradient id="linear-gradient-63-city-1-9" x1="531.89" y1="540.16" x2="532.02" y2="569.83" gradientTransform="translate(-322.49 -329.58)" xlink:href="#linear-gradient-city-1-9"/><linearGradient id="linear-gradient-64-city-1-9" x1="515.24" y1="544.7" x2="515.38" y2="574.39" gradientTransform="translate(-322.49 -329.58)" xlink:href="#linear-gradient-city-1-9"/><linearGradient id="linear-gradient-65-city-1-9" x1="531.89" y1="549.68" x2="532.02" y2="579.37" gradientTransform="translate(-322.49 -329.58)" xlink:href="#linear-gradient-city-1-9"/><linearGradient id="linear-gradient-66-city-1-9" x1="515.24" y1="554.24" x2="515.38" y2="583.93" gradientTransform="translate(-322.49 -329.58)" xlink:href="#linear-gradient-city-1-9"/><linearGradient id="linear-gradient-67-city-1-9" x1="531.89" y1="559.22" x2="532.02" y2="588.89" gradientTransform="translate(-322.49 -329.58)" xlink:href="#linear-gradient-city-1-9"/><linearGradient id="linear-gradient-68-city-1-9" x1="515.24" y1="563.77" x2="515.38" y2="593.46" gradientTransform="translate(-322.49 -329.58)" xlink:href="#linear-gradient-city-1-9"/><linearGradient id="linear-gradient-69-city-1-9" x1="531.89" y1="568.76" x2="532.02" y2="598.43" gradientTransform="translate(-322.49 -329.58)" xlink:href="#linear-gradient-city-1-9"/><linearGradient id="linear-gradient-70-city-1-9" x1="515.24" y1="573.31" x2="515.38" y2="602.99" gradientTransform="translate(-322.49 -329.58)" xlink:href="#linear-gradient-city-1-9"/><linearGradient id="linear-gradient-71-city-1-9" x1="565.39" y1="607.89" x2="485.55" y2="627.1" xlink:href="#linear-gradient-9-city-1-9"/><linearGradient id="linear-gradient-72-city-1-9" x1="562.33" y1="593.22" x2="562.2" y2="673.18" gradientTransform="translate(-322.49 -329.58)" xlink:href="#linear-gradient-city-1-9"/><linearGradient id="linear-gradient-73-city-1-9" x1="562.33" y1="600.17" x2="562.2" y2="680.15" gradientTransform="translate(-322.49 -329.58)" xlink:href="#linear-gradient-city-1-9"/><linearGradient id="linear-gradient-74-city-1-9" x1="562.33" y1="607.15" x2="562.2" y2="687.13" gradientTransform="translate(-322.49 -329.58)" xlink:href="#linear-gradient-city-1-9"/><linearGradient id="linear-gradient-75-city-1-9" x1="562.33" y1="614.12" x2="562.2" y2="694.09" gradientTransform="translate(-322.49 -329.58)" xlink:href="#linear-gradient-city-1-9"/><linearGradient id="linear-gradient-76-city-1-9" x1="409.44" y1="623.08" x2="409.77" y2="659.4" gradientTransform="translate(-322.49 -329.58)" xlink:href="#linear-gradient-city-1-9"/><linearGradient id="linear-gradient-77-city-1-9" x1="390.42" y1="623.08" x2="390.78" y2="659.4" gradientTransform="translate(-322.49 -329.58)" xlink:href="#linear-gradient-city-1-9"/><linearGradient id="linear-gradient-78-city-1-9" x1="371.43" y1="623.08" x2="371.79" y2="659.4" gradientTransform="translate(-322.49 -329.58)" xlink:href="#linear-gradient-city-1-9"/><linearGradient id="linear-gradient-79-city-1-9" x1="760.84" y1="623.08" x2="761.18" y2="659.4" gradientTransform="translate(-322.49 -329.58)" xlink:href="#linear-gradient-city-1-9"/><linearGradient id="linear-gradient-80-city-1-9" x1="741.84" y1="623.08" x2="742.18" y2="659.4" gradientTransform="translate(-322.49 -329.58)" xlink:href="#linear-gradient-city-1-9"/><linearGradient id="linear-gradient-81-city-1-9" x1="722.84" y1="623.08" x2="723.18" y2="659.4" gradientTransform="translate(-322.49 -329.58)" xlink:href="#linear-gradient-city-1-9"/><linearGradient id="linear-gradient-82-city-1-9" x1="406.52" y1="776.78" x2="496.1" y2="776.78" xlink:href="#linear-gradient-city-1-9"/><clipPath id="clippath_city-1-9"><path class="cls-2_city-1-9" d="M57.76,360.28c20.63,15.04,63.41,22.83,96.92,22.58,3.5.09,6.99-.26,10.4-1.06,7.91-2.17,13.85-8.51,19.41-14.58,1.22-1.12,2.13-2.53,2.65-4.11.3-2.14-.26-4.32-1.54-6.06-3.95-6.45-10.34-11-16.92-14.69-16.44-9.23-35.1-14.01-53.84-15.94-18.74-1.92-37.69-1.15-56.5.26-3.97.31-8.09.68-11.57,2.66-5.17,2.92-8.31,13.15-5.08,18.72,3.48,5.92,10.28,7.98,16.08,12.21Z"/></clipPath><linearGradient id="linear-gradient-83-city-1-9" x1="432.85" y1="748.53" x2="432.85" y2="763.9" xlink:href="#linear-gradient-city-1-9"/><linearGradient id="linear-gradient-84-city-1-9" x1="431.89" y1="721.04" x2="428.19" y2="792.49" gradientTransform="translate(-322.1 -400.42)" xlink:href="#linear-gradient-9-city-1-9"/><linearGradient id="linear-gradient-85-city-1-9" x1="430.3" y1="741.27" x2="425.82" y2="885.13" xlink:href="#linear-gradient-city-1-9"/><linearGradient id="linear-gradient-86-city-1-9" x1="424.9" y1="728.5" x2="416.37" y2="767.78" xlink:href="#linear-gradient-city-1-9"/><linearGradient id="linear-gradient-87-city-1-9" x1="381.09" y1="699.06" x2="400.41" y2="699.06" gradientTransform="translate(-322.49 -329.58)" xlink:href="#linear-gradient-city-1-9"/><linearGradient id="linear-gradient-88-city-1-9" x1="384.61" y1="699.06" x2="396.68" y2="699.06" gradientTransform="translate(-322.49 -329.58)" xlink:href="#linear-gradient-city-1-9"/><linearGradient id="linear-gradient-89-city-1-9" x1="463.42" y1="699.06" x2="482.74" y2="699.06" gradientTransform="translate(-322.49 -329.58)" xlink:href="#linear-gradient-city-1-9"/><linearGradient id="linear-gradient-90-city-1-9" x1="467.05" y1="699.06" x2="479.12" y2="699.06" gradientTransform="translate(-322.49 -329.58)" xlink:href="#linear-gradient-city-1-9"/><linearGradient id="linear-gradient-91-city-1-9" x1="366.24" y1="753.26" x2="373" y2="753.26" gradientTransform="translate(-322.1 -400.42)" xlink:href="#linear-gradient-9-city-1-9"/><linearGradient id="linear-gradient-92-city-1-9" x1="495.76" y1="746.4" x2="441.21" y2="828.57" gradientTransform="translate(-322.1 -400.42)" xlink:href="#linear-gradient-9-city-1-9"/><linearGradient id="linear-gradient-93-city-1-9" x1="453.67" y1="747.45" x2="459.58" y2="747.45" gradientTransform="translate(-322.1 -400.42)" xlink:href="#linear-gradient-9-city-1-9"/><linearGradient id="linear-gradient-94-city-1-9" x1="426.39" y1="745.14" x2="426.18" y2="783.25" xlink:href="#linear-gradient-city-1-9"/><linearGradient id="linear-gradient-95-city-1-9" x1="436.28" y1="745.21" x2="436.06" y2="783.29" xlink:href="#linear-gradient-city-1-9"/><linearGradient id="linear-gradient-96-city-1-9" x1="474.34" y1="661.07" x2="419.8" y2="743.25" xlink:href="#linear-gradient-9-city-1-9"/></defs><g id="background_city-1-9"><path class="cls-100_city-1-9" d="M507.13,246.38c-3.94,14.63-11.48,28.05-21.92,39.03-6.38,6.27-13.1,12.18-20.14,17.69-.68.58-1.37,1.15-2.05,1.77-5.73,4.66-11.01,9.84-15.78,15.48-8.52,10.4-14.17,22.92-21.86,33.98-17,24.61-42.92,40.87-69.55,53.17-36.29,16.71-76.75,27.23-115.74,19.52-12.49-2.48-24.61-6.75-36.64-11.03l-93.18-33.04c-20.35-7.23-41.04-14.61-59.3-26.52-18.26-11.91-34.2-29.04-40.72-50.4-.23-.75-.45-1.54-.66-2.31,0-.18,0-.4-.15-.57-4.14-15.63-3.29-32.31-1.54-48.43.09-.74.15-1.54.25-2.22,1.54-13.23,4.03-26.69,11.28-37.64,12.31-18.46,34.72-25.74,52.92-37.9,39.17-26.15,60.92-77.32,110.98-81.53,56.3-4.8,112.01-21.71,166.71,3.4,17.84,8.21,33.77,20.2,51.15,29.32,18.64,9.72,38.84,16.17,57.53,25.92,18.69,9.75,36.52,23.51,45.4,43.07,7,15.4,7.41,32.86,3.03,49.24Z"/><path class="cls-100_city-1-9" d="M507.13,238.24v8.14c-3.94,14.63-11.48,28.05-21.92,39.03-6.38,6.27-13.1,12.18-20.14,17.69-.68.58-1.37,1.15-2.05,1.77h-6v-1.14H9.52c0-.2-.09-.4-.15-.58-4.15-15.61-3.31-32.31-1.54-48.43.09-.72.15-1.54.25-2.22h11.86v-18.46h15.75v18.46h7.31v-15.8h9.83v15.8h2.12v-36.74h19.64v36.74h335.19v-56.38h27.91v20.49h36.44v21.54h7.4v-40.26h16.49v40.4l9.11-.05Z"/><path class="cls-102_city-1-9" d="M465.07,303.14c-6.42,5.12-12.35,10.83-17.71,17.06l-.09.12c-8.52,10.4-14.17,22.92-21.86,34-11.32,16.34-26.55,29.04-43.38,39.29-8.43,5.13-17.17,9.76-26.15,13.85-36.29,16.71-76.75,27.23-115.74,19.54-12.49-2.49-24.61-6.77-36.66-11.05-20.98-7.47-42.01-14.92-63.07-22.35l-30.09-10.68c-20.44-7.23-41.14-14.61-59.4-26.52-14.01-9.23-26.66-21.38-34.72-36.21-2.5-4.5-4.52-9.25-6.03-14.17-.31-.94-.58-1.91-.82-2.88h455.72Z"/><path class="cls-102_city-1-9" d="M447.32,320.2s-.05.09-.08.12c-8.52,10.4-14.17,22.92-21.86,34-11.32,16.34-26.57,29.04-43.38,39.29h-241.52l-30.09-10.68c-20.41-7.23-41.1-14.61-59.36-26.52-14.01-9.23-26.66-21.38-34.72-36.21h431.01Z"/><path class="cls-34_city-1-9" d="M447.32,320.2s-.05.09-.08.12c-8.52,10.4-14.17,22.92-21.86,34-11.32,16.34-26.57,29.04-43.38,39.29h-241.52l-30.09-10.68c-2.77-.95-5.55-1.95-8.31-2.95-5.91-2.12-11.8-4.32-17.61-6.68-11.67-4.54-22.87-10.21-33.44-16.92-14.01-9.23-26.66-21.38-34.74-36.21l431.03.03Z"/></g><g id="building_city-1-9"><polygon class="cls-102_city-1-9" points="223.1 306.83 142.57 306.83 142.57 183.17 191.27 144.34 223.1 144.34 223.1 306.83"/><polygon class="cls-94_city-1-9" points="223.1 306.83 150.05 306.83 150.05 194.66 194.24 159.44 223.1 159.44 223.1 306.83"/><rect class="cls-95_city-1-9" x="147.97" y="183.61" width="15.37" height="118.96"/><polygon class="cls-93_city-1-9" points="222.86 164.57 196.94 164.57 157.31 196.12 148.57 196.12 194.24 159.44 223.1 159.44 222.86 164.57"/><path class="cls-98_city-1-9" d="M91.62,304.74c-3.98-.1-7.94.57-11.66,1.97,27.27,7.97,56.49,1.54,84.87,3.2,1.89.11,3.77.25,5.63.54,1.31.2,2.58.46,3.88.68,3.27.44,6.57.66,9.88.66,52.08,1.17,104.17,1.04,156.28-.4,28.51-.78,58.01-.89,85.85-6.85-69.92-.38-140.11,6.6-209.65-.89-14.32-1.54-28.61-3.71-43.07-4.14-9.68-.29-19.37.22-29.04.71l-42.3,2.17c-3.42.18-7.17,2.43-10.66,2.35Z"/><rect class="cls-102_city-1-9" x="91.9" y="178.2" width="63.75" height="128.64"/><rect class="cls-102_city-1-9" x="226.95" y="232.56" width="48.95" height="74.21"/><rect class="cls-99_city-1-9" x="226.95" y="232.56" width="48.95" height="74.21"/><rect class="cls-102_city-1-9" x="232.38" y="237.35" width="4.38" height="35.2"/><rect class="cls-102_city-1-9" x="241.76" y="237.35" width="4.38" height="35.2"/><rect class="cls-102_city-1-9" x="251.15" y="237.35" width="4.38" height="35.2"/><rect class="cls-102_city-1-9" x="260.55" y="237.35" width="4.38" height="69.64"/><rect class="cls-97_city-1-9" x="270.35" y="232.56" width="11.66" height="73.99"/><rect class="cls-101_city-1-9" x="201.34" y="266.99" width="61.47" height="40.12"/><polygon class="cls-102_city-1-9" points="303.13 158.12 351.83 176.4 351.83 200.73 303.13 200.73 303.13 158.12"/><polygon class="cls-96_city-1-9" points="303.13 158.12 351.83 176.4 351.83 200.73 303.13 200.73 303.13 158.12"/><line class="cls-32_city-1-9" x1="309.28" y1="160.2" x2="309.28" y2="199.46"/><line class="cls-11_city-1-9" x1="317.93" y1="162.88" x2="317.93" y2="199.46"/><line class="cls-13_city-1-9" x1="326.59" y1="166.34" x2="326.59" y2="199.46"/><line class="cls-14_city-1-9" x1="335.23" y1="169.77" x2="335.23" y2="199.46"/><line class="cls-12_city-1-9" x1="343.89" y1="172.18" x2="343.89" y2="199.46"/><line class="cls-5_city-1-9" x1="303.13" y1="191.73" x2="350.79" y2="191.73"/><line class="cls-8_city-1-9" x1="303.13" y1="183.27" x2="350.79" y2="183.27"/><line class="cls-6_city-1-9" x1="303.13" y1="174.8" x2="346.94" y2="174.8"/><line class="cls-9_city-1-9" x1="303.13" y1="166.34" x2="325.1" y2="166.34"/><polygon class="cls-102_city-1-9" points="358.18 306.9 358.18 184.77 275.25 203.83 275.25 306.9 358.18 306.9"/><path class="cls-7_city-1-9" d="M283.31,202.23c-.31,32.66-.31,64.43,0,97.7"/><path class="cls-10_city-1-9" d="M291.97,199.98c-.49,32.75-.49,66.67,0,99.88"/><path class="cls-4_city-1-9" d="M300.62,198.01c.4,33.71.4,67.58,0,101.99"/><path class="cls-15_city-1-9" d="M309.28,196.2c.2,34.46.2,68.35,0,103.75"/><path class="cls-16_city-1-9" d="M317.93,194.35v105.53"/><path class="cls-3_city-1-9" d="M326.59,192c-.15,36.5-.15,71.44,0,107.99"/><path class="cls-31_city-1-9" d="M335.2,190.33c-.35,36.09-.35,73.15,0,109.55"/><path class="cls-27_city-1-9" d="M343.89,188.4c.52,36.92.52,74.03,0,111.42"/><line class="cls-30_city-1-9" x1="275.25" y1="301.86" x2="354.22" y2="301.86"/><line class="cls-26_city-1-9" x1="275.25" y1="293.39" x2="354.22" y2="293.39"/><line class="cls-28_city-1-9" x1="275.25" y1="284.91" x2="354.22" y2="284.91"/><line class="cls-29_city-1-9" x1="275.25" y1="276.45" x2="354.22" y2="276.45"/><line class="cls-17_city-1-9" x1="275.25" y1="267.98" x2="354.22" y2="267.98"/><line class="cls-22_city-1-9" x1="275.25" y1="259.5" x2="354.22" y2="259.5"/><line class="cls-21_city-1-9" x1="275.25" y1="251.04" x2="354.22" y2="251.04"/><line class="cls-19_city-1-9" x1="275.25" y1="242.56" x2="354.22" y2="242.56"/><line class="cls-20_city-1-9" x1="275.25" y1="234.09" x2="354.22" y2="234.09"/><line class="cls-23_city-1-9" x1="275.25" y1="225.62" x2="354.22" y2="225.62"/><line class="cls-24_city-1-9" x1="275.25" y1="217.15" x2="354.22" y2="217.15"/><line class="cls-25_city-1-9" x1="275.25" y1="208.69" x2="354.22" y2="208.69"/><line class="cls-18_city-1-9" x1="291.97" y1="200.21" x2="354.22" y2="200.21"/><rect class="cls-102_city-1-9" x="350.79" y="139.6" width="49.06" height="167.29"/><rect class="cls-102_city-1-9" x="350.79" y="139.6" width="49.06" height="18.52"/><path class="cls-1_city-1-9" d="M356.25,139.6c-.17,52.38-.17,105.81,0,158.56"/><path class="cls-1_city-1-9" d="M362.6,139.6c-.17,52.38-.17,105.81,0,158.56"/><path class="cls-1_city-1-9" d="M368.95,139.6c-.18,52.38-.18,105.81,0,158.56"/><path class="cls-1_city-1-9" d="M375.31,139.6c-.11,52.4-.11,105.81,0,158.54"/><path class="cls-1_city-1-9" d="M381.66,298.14c-.17-52.75-.17-106.15,0-158.56"/><path class="cls-1_city-1-9" d="M388.01,139.6c-.17,52.38-.17,105.81,0,158.56"/><path class="cls-1_city-1-9" d="M394.41,139.6c-.18,52.38-.18,105.81,0,158.56"/><line class="cls-1_city-1-9" x1="350.79" y1="145.95" x2="399.83" y2="145.95"/><line class="cls-1_city-1-9" x1="350.79" y1="152.05" x2="399.83" y2="152.05"/><line class="cls-1_city-1-9" x1="350.79" y1="158.12" x2="399.83" y2="158.12"/><line class="cls-1_city-1-9" x1="350.79" y1="164.21" x2="399.83" y2="164.21"/><line class="cls-1_city-1-9" x1="399.83" y1="170.31" x2="350.79" y2="170.31"/><line class="cls-1_city-1-9" x1="350.79" y1="176.38" x2="399.83" y2="176.38"/><line class="cls-1_city-1-9" x1="350.79" y1="182.47" x2="399.83" y2="182.47"/><line class="cls-1_city-1-9" x1="350.79" y1="188.57" x2="399.83" y2="188.57"/><line class="cls-1_city-1-9" x1="350.79" y1="194.66" x2="399.83" y2="194.66"/><line class="cls-1_city-1-9" x1="350.79" y1="200.73" x2="399.83" y2="200.73"/><line class="cls-1_city-1-9" x1="350.79" y1="206.83" x2="399.83" y2="206.83"/><line class="cls-1_city-1-9" x1="350.79" y1="212.92" x2="399.83" y2="212.92"/><line class="cls-1_city-1-9" x1="350.79" y1="219.01" x2="399.83" y2="219.01"/><line class="cls-1_city-1-9" x1="350.79" y1="225.09" x2="399.83" y2="225.09"/><line class="cls-1_city-1-9" x1="350.79" y1="231.18" x2="399.83" y2="231.18"/><line class="cls-1_city-1-9" x1="350.79" y1="237.27" x2="399.83" y2="237.27"/><line class="cls-1_city-1-9" x1="350.79" y1="243.36" x2="399.83" y2="243.36"/><line class="cls-1_city-1-9" x1="350.79" y1="249.45" x2="399.83" y2="249.45"/><line class="cls-1_city-1-9" x1="350.79" y1="255.55" x2="399.83" y2="255.55"/><line class="cls-1_city-1-9" x1="350.79" y1="261.62" x2="399.83" y2="261.62"/><line class="cls-1_city-1-9" x1="350.79" y1="267.71" x2="399.83" y2="267.71"/><line class="cls-1_city-1-9" x1="350.79" y1="273.81" x2="399.83" y2="273.81"/><line class="cls-1_city-1-9" x1="350.79" y1="279.9" x2="399.83" y2="279.9"/><line class="cls-1_city-1-9" x1="350.79" y1="285.97" x2="399.83" y2="285.97"/><line class="cls-1_city-1-9" x1="350.79" y1="292.07" x2="399.83" y2="292.07"/><line class="cls-1_city-1-9" x1="350.79" y1="298.16" x2="399.83" y2="298.16"/><rect class="cls-35_city-1-9" x="91.9" y="177.92" width="16.8" height="128.93"/><polygon class="cls-44_city-1-9" points="132.89 178.2 108.13 224.59 108.13 275.82 155.65 178.2 132.89 178.2"/><rect class="cls-45_city-1-9" x="113" y="200.96" width="42.69" height="3.71"/><rect class="cls-42_city-1-9" x="113" y="209.63" width="42.69" height="3.71"/><rect class="cls-43_city-1-9" x="113" y="218.26" width="42.69" height="3.71"/><rect class="cls-38_city-1-9" x="113" y="226.9" width="42.69" height="3.71"/><rect class="cls-36_city-1-9" x="113" y="235.55" width="42.69" height="3.71"/><rect class="cls-37_city-1-9" x="113" y="244.19" width="42.69" height="3.71"/><rect class="cls-41_city-1-9" x="113" y="252.84" width="42.69" height="3.71"/><rect class="cls-39_city-1-9" x="113" y="261.48" width="42.69" height="3.71"/><rect class="cls-40_city-1-9" x="113" y="270.13" width="42.69" height="3.71"/><rect class="cls-54_city-1-9" x="113" y="278.77" width="42.69" height="3.71"/><polygon class="cls-52_city-1-9" points="351.03 185.75 379.91 139.22 399.83 139.6 350.88 216.06 351.03 185.75"/><polygon class="cls-53_city-1-9" points="350.74 171.74 356.94 175.11 356.94 306.9 350.79 306.9 350.74 171.74"/><polygon class="cls-51_city-1-9" points="351.03 254.04 399.83 176.4 399.83 207.9 350.88 284.36 351.03 254.04"/><polygon class="cls-102_city-1-9" points="299.73 153.66 299.53 167.6 351.03 185.75 350.74 171.74 299.73 153.66"/><polygon class="cls-55_city-1-9" points="299.73 153.66 299.53 167.6 351.03 185.75 350.74 171.74 299.73 153.66"/><rect class="cls-49_city-1-9" x="195.49" y="180.2" width="27.89" height="2.42"/><rect class="cls-50_city-1-9" x="178.84" y="184.75" width="27.89" height="2.42"/><rect class="cls-47_city-1-9" x="195.49" y="189.73" width="27.89" height="2.42"/><rect class="cls-48_city-1-9" x="178.84" y="194.27" width="27.89" height="2.42"/><rect class="cls-46_city-1-9" x="195.49" y="199.26" width="27.89" height="2.42"/><rect class="cls-56_city-1-9" x="178.84" y="203.81" width="27.89" height="2.42"/><rect class="cls-57_city-1-9" x="195.49" y="208.79" width="27.89" height="2.42"/><rect class="cls-58_city-1-9" x="178.84" y="213.35" width="27.89" height="2.42"/><rect class="cls-69_city-1-9" x="195.49" y="218.33" width="27.89" height="2.42"/><rect class="cls-71_city-1-9" x="178.84" y="222.89" width="27.89" height="2.42"/><rect class="cls-59_city-1-9" x="195.49" y="227.86" width="27.89" height="2.42"/><rect class="cls-68_city-1-9" x="178.84" y="232.42" width="27.89" height="2.42"/><rect class="cls-66_city-1-9" x="195.49" y="237.39" width="27.89" height="2.42"/><rect class="cls-67_city-1-9" x="178.84" y="241.95" width="27.89" height="2.42"/><rect class="cls-70_city-1-9" x="195.49" y="246.93" width="27.89" height="2.42"/><rect class="cls-74_city-1-9" x="178.84" y="251.48" width="27.89" height="2.42"/><rect class="cls-102_city-1-9" x="201.34" y="267.21" width="9.6" height="39.9"/><rect class="cls-72_city-1-9" x="201.34" y="267.21" width="9.6" height="39.9"/><rect class="cls-73_city-1-9" x="218.12" y="275.47" width="43.4" height="3.85"/><rect class="cls-75_city-1-9" x="218.12" y="282.44" width="43.4" height="3.85"/><rect class="cls-65_city-1-9" x="218.12" y="289.4" width="43.4" height="3.85"/><rect class="cls-63_city-1-9" x="218.12" y="296.39" width="43.4" height="3.85"/></g><g id="tree_city-1-9"><path class="cls-102_city-1-9" d="M79.3,285.68c1.15-2.95,2.07-5.98,2.74-9.08.55-3.4.2-6.86.45-10.28.01-3.46,1.32-6.79,3.66-9.34,1.38,2.62,2.46,5.39,3.22,8.26,1.29,5.85-.11,12.08,1.54,17.84.79,2.4,1.74,4.74,2.86,7,1.13,2.27,1.73,4.77,1.77,7.31-.22,6.01-7.08,9.23-12.14,6.15-6.23-3.77-6.08-11.94-4.09-17.88Z"/><polygon class="cls-102_city-1-9" points="88.67 307.66 85.48 307.66 86.42 296.11 87.88 296.11 88.67 307.66"/><polygon class="cls-64_city-1-9" points="88.67 307.66 85.48 307.66 86.42 296.11 87.88 296.11 88.67 307.66"/><path class="cls-102_city-1-9" d="M60.28,285.68c1.16-2.95,2.08-5.98,2.75-9.08.54-3.4.2-6.86.43-10.28,0-3.46,1.32-6.8,3.68-9.34,1.38,2.62,2.46,5.39,3.2,8.26,1.31,5.85-.11,12.08,1.54,17.84.8,2.4,1.76,4.73,2.88,7,1.12,2.28,1.72,4.77,1.77,7.31-.23,6.01-7.09,9.23-12.14,6.15-6.23-3.77-6.09-11.94-4.11-17.88Z"/><polygon class="cls-102_city-1-9" points="69.67 307.66 66.47 307.66 67.42 296.11 68.9 296.11 69.67 307.66"/><polygon class="cls-62_city-1-9" points="69.67 307.66 66.47 307.66 67.42 296.11 68.9 296.11 69.67 307.66"/><path class="cls-102_city-1-9" d="M41.29,285.68c1.16-2.95,2.08-5.98,2.75-9.08.54-3.4.2-6.86.43-10.28,0-3.46,1.32-6.8,3.68-9.34,1.38,2.62,2.46,5.39,3.22,8.26,1.29,5.85-.11,12.08,1.54,17.84.8,2.4,1.76,4.73,2.88,7,1.13,2.27,1.73,4.77,1.77,7.31-.23,6.01-7.08,9.23-12.14,6.15-6.25-3.77-6.08-11.94-4.12-17.88Z"/><polygon class="cls-102_city-1-9" points="50.67 307.66 47.49 307.66 48.42 296.11 49.9 296.11 50.67 307.66"/><polygon class="cls-61_city-1-9" points="50.67 307.66 47.49 307.66 48.42 296.11 49.9 296.11 50.67 307.66"/><path class="cls-102_city-1-9" d="M430.7,285.68c1.15-2.96,2.06-6.01,2.74-9.11.54-3.4.22-6.86.43-10.28.02-3.46,1.34-6.8,3.69-9.34,1.37,2.63,2.44,5.4,3.2,8.26,1.31,5.85-.11,12.08,1.54,17.84.8,2.39,1.77,4.73,2.88,7,1.14,2.27,1.74,4.77,1.77,7.31-.23,6.01-7.08,9.23-12.12,6.15-6.26-3.74-6.09-11.91-4.12-17.84Z"/><polygon class="cls-102_city-1-9" points="440.07 307.66 436.89 307.66 437.82 296.11 439.3 296.11 440.07 307.66"/><polygon class="cls-60_city-1-9" points="440.07 307.66 436.89 307.66 437.82 296.11 439.3 296.11 440.07 307.66"/><path class="cls-102_city-1-9" d="M411.7,285.68c1.15-2.96,2.06-6.01,2.74-9.11.54-3.4.2-6.86.43-10.28,0-3.46,1.32-6.8,3.68-9.34,1.38,2.62,2.46,5.39,3.22,8.26,1.29,5.85-.11,12.08,1.54,17.84.8,2.4,1.76,4.73,2.88,7,1.13,2.27,1.73,4.77,1.77,7.31-.23,6.01-7.08,9.23-12.14,6.15-6.25-3.74-6.08-11.91-4.11-17.84Z"/><polygon class="cls-102_city-1-9" points="421.07 307.66 417.89 307.66 418.83 296.11 420.3 296.11 421.07 307.66"/><polygon class="cls-84_city-1-9" points="421.07 307.66 417.89 307.66 418.83 296.11 420.3 296.11 421.07 307.66"/><path class="cls-102_city-1-9" d="M392.69,285.68c1.16-2.96,2.08-6,2.75-9.11.54-3.4.2-6.86.43-10.28.02-3.46,1.34-6.8,3.69-9.34,1.37,2.63,2.44,5.4,3.2,8.26,1.31,5.85-.11,12.08,1.54,17.84.8,2.4,1.76,4.73,2.88,7,1.13,2.27,1.73,4.77,1.77,7.31-.23,6.01-7.08,9.23-12.14,6.15-6.23-3.74-6.08-11.91-4.12-17.84Z"/><polygon class="cls-102_city-1-9" points="402.07 307.66 398.89 307.66 399.83 296.11 401.3 296.11 402.07 307.66"/><polygon class="cls-85_city-1-9" points="402.07 307.66 398.89 307.66 399.83 296.11 401.3 296.11 402.07 307.66"/></g><g id="car_city-1-9"><path class="cls-78_city-1-9" d="M174,376.37c0,2.06-25.41,3.75-56.73,3.75-5.31,0-10.37,0-15.21-.14-5.91-2.12-11.8-4.32-17.63-6.68,9.23-.43,20.6-.71,32.84-.71,31.27,0,56.73,1.68,56.73,3.77Z"/><g class="cls-33_city-1-9"><path class="cls-102_city-1-9" d="M90.19,368.91c-4.4.61-8.85.71-13.28.29-2.61-.46-5.19-1.12-7.69-2-2.95-.72-5.71-2.08-8.08-3.98-1.43-1.49-2.62-3.2-3.54-5.05-.26-.37-.4-.8-.42-1.25.09-.54.41-1.01.88-1.29,1.48-.81,3.16-1.17,4.85-1.03,4.4,0,8.81,0,13.2.25,2.35.05,4.7.29,7.01.72,2.95.65,5.77,1.83,8.69,2.66,5.14,1.32,10.4,2.11,15.71,2.35,5.68.45,11.51.88,17.03-.49,3.34-.83,6.48-2.32,9.74-3.43,8.74-2.95,19.12-2.83,26.41,2.83,1.34.97,2.4,2.27,3.08,3.77.76,2.26.67,4.73-.28,6.92-.78,1.91-1.97,1.95-3.86,1.86-5.61-.32-11.25-.89-16.81-1.45-11.21-1.03-22.43-2.08-33.64-2.31-6.34-.12-12.68.08-19,.62Z"/><path class="cls-79_city-1-9" d="M90.19,368.91c-4.4.61-8.85.71-13.28.29-2.61-.46-5.19-1.12-7.69-2-2.95-.72-5.71-2.08-8.08-3.98-1.43-1.49-2.62-3.2-3.54-5.05-.26-.37-.4-.8-.42-1.25.09-.54.41-1.01.88-1.29,1.48-.81,3.16-1.17,4.85-1.03,4.4,0,8.81,0,13.2.25,2.35.05,4.7.29,7.01.72,2.95.65,5.77,1.83,8.69,2.66,5.14,1.32,10.4,2.11,15.71,2.35,5.68.45,11.51.88,17.03-.49,3.34-.83,6.48-2.32,9.74-3.43,8.74-2.95,19.12-2.83,26.41,2.83,1.34.97,2.4,2.27,3.08,3.77.76,2.26.67,4.73-.28,6.92-.78,1.91-1.97,1.95-3.86,1.86-5.61-.32-11.25-.89-16.81-1.45-11.21-1.03-22.43-2.08-33.64-2.31-6.34-.12-12.68.08-19,.62Z"/><path class="cls-102_city-1-9" d="M53.38,335.97c-2.98,3.19-5.24,6.99-6.63,11.14l-1.37,1.35c-.84,3.5-1.43,7.05-1.77,10.63l-1.22,1.77c-.26,1.01-.43,2.04-.51,3.08.05,1.09.15,2.17.32,3.25-.09.27-.2.53-.32.78l2.29,1.35,12.95,1.54c-.15-2.3.03-4.6.52-6.85.87-2.77,3.02-4.96,5.77-5.88,1.74-.57,7.69-1.68,11.43,1.17s4.22,6.61,4.51,10.37l60.41,1.15s-.12-5.6,2.31-8.86c2.28-2.89,5.87-4.41,9.52-4.05,3.5-.1,6.79,1.66,8.66,4.62,2.29,3.4,1.35,9.71,1.35,9.71l10.43-.82s.88-.62.88-.89-1.05-1.2-1.05-1.2l.49-2.75.55-.46c0-1.74-.14-3.48-.34-5.18-.13-.24-.29-.47-.48-.68l-2.03-5.06c-.88-.97-1.97-1.74-3.18-2.23-6.27-2.21-12.77-3.7-19.38-4.43l-2.18-.25s-11.65-8.8-20.77-12.31c-1-.42-2.03-.75-3.08-1-1.72-.4-12.54-1.34-12.54-1.34-16.83-.95-33.7-.95-50.53,0-2.14.3-4.26.73-6.35,1.26v.69l1.32.37Z"/><path class="cls-76_city-1-9" d="M172.92,370.54c0,.28-.88.89-.88.89l-10.43.83s.88-6.26-1.4-9.66c-1.88-2.95-5.16-4.7-8.66-4.62-3.66-.37-7.26,1.15-9.54,4.03-2.43,3.28-2.29,8.86-2.29,8.86l-60.41-1.15c-.31-3.72-.8-7.51-4.52-10.37s-9.74-1.77-11.43-1.15c-2.74.95-4.87,3.13-5.75,5.89-.51,2.24-.69,4.55-.55,6.85l-12.95-1.54-2.28-1.37c.14-.25.24-.52.32-.8-.18-1.07-.29-2.15-.32-3.23.08-1.04.25-2.07.52-3.08l1.18-1.77c-.03-.26-.03-.52,0-.78.39-3.32.98-6.61,1.77-9.86l1.37-1.37c1.42-4.13,3.69-7.91,6.66-11.11l-1.28-.4v-.69c2.1-.53,4.23-.95,6.37-1.26,16.83-.95,33.69-.95,50.52,0,0,0,10.77.94,12.55,1.35,1.06.23,2.09.56,3.08,1,9.23,3.54,20.81,12.31,20.81,12.31l2.18.23c6.6.73,13.1,2.22,19.37,4.43,1.21.49,2.3,1.25,3.18,2.22l2.03,5.06h0c.18.18.33.39.43.63.13.5.19,1.02.18,1.54.12,1.54.17,3.71.17,3.71l-.54.46-.52,2.75s1.05.94,1.05,1.17Z"/><path class="cls-77_city-1-9" d="M172.92,370.54c0,.28-.88.89-.88.89l-10.43.83s.88-6.26-1.4-9.66c-1.88-2.95-5.16-4.7-8.66-4.62-3.66-.37-7.26,1.15-9.54,4.03-2.43,3.28-2.29,8.86-2.29,8.86l-60.41-1.15c-.31-3.72-.8-7.51-4.52-10.37s-9.74-1.77-11.43-1.15c-2.74.95-4.87,3.13-5.75,5.89-.51,2.24-.69,4.55-.55,6.85l-12.95-1.54-2.28-1.37c.14-.25.24-.52.32-.8-.18-1.07-.29-2.15-.32-3.23.08-1.04.25-2.07.52-3.08l1.18-1.77c-.03-.26-.03-.52,0-.78l.51-.74,15.17-.82c3.45-3.91,8.77-5.6,13.85-4.42,8.68,2,9.95,8.09,9.95,8.09l53.63.15c3.72-3.25,8.49-5.05,13.43-5.08,4.61-.25,9.11,1.52,12.31,4.85l9.61-.09h0l.62,2.12c.12,1.54.17,3.69.17,3.69l-.54.46-.52,2.77s1.22.94,1.22,1.17Z"/><path class="cls-102_city-1-9" d="M54.12,346.6c-.53-.02-.93-.47-.91-1,0,0,0,0,0,0-.02-.1-.02-.21,0-.31.91-2.36,2.13-4.58,3.63-6.61,2.13-2.34,5.17-3.66,8.34-3.62,2.35-.12,14.49-.63,14.49-.63,0,0,23.98.12,29.34.58,0,0,10.94.58,14.65,2.28s13.85,8.46,13.85,8.46l6.08,4.62c.17.11.21.34.1.51,0,0,0,0,0,.01-.08.11-.22.17-.35.15l-89.19-4.45Z"/><path class="cls-82_city-1-9" d="M54.12,346.6c-.53-.02-.93-.47-.91-1,0,0,0,0,0,0-.02-.1-.02-.21,0-.31.91-2.36,2.13-4.58,3.63-6.61,2.13-2.34,5.17-3.66,8.34-3.62,2.35-.12,14.49-.63,14.49-.63,0,0,23.98.12,29.34.58,0,0,10.94.58,14.65,2.28s13.85,8.46,13.85,8.46l6.08,4.62c.17.11.21.34.1.51,0,0,0,0,0,.01-.08.11-.22.17-.35.15l-89.19-4.45Z"/><path class="cls-102_city-1-9" d="M46.55,348.11h3.91c.27,0,.48.23.48.49,0,.05,0,.09,0,.14-.71,2.17-1.13,4.43-1.25,6.71,0,.28-.23.51-.51.51h0c-.66-.03-1.33.07-1.95.29-.91.67-1.96,1.13-3.08,1.32,0,0,.43-6.92,2.4-9.46Z"/><path class="cls-102_city-1-9" d="M162.91,354.8l1.77,3.69c1.29.52,2.64.89,4.02,1.11.33-.13.61-.35.82-.65h.78c-.4-1.33-.91-2.61-1.54-3.85-1.64-.99-3.57-1.37-5.46-1.08-.3.03-.51.3-.48.59,0,0,0,.02,0,.02l.09.15Z"/><path class="cls-102_city-1-9" d="M172.45,366.29s.35-.8-.38-.85-2.32,2.94-2.11,3.46,1.77.54,1.77.54l.58-2.95.14-.2Z"/><circle class="cls-102_city-1-9" cx="68.15" cy="369.47" r="9.66"/><circle class="cls-83_city-1-9" cx="68.25" cy="369.47" r="9.66"/><circle class="cls-81_city-1-9" cx="68.15" cy="369.47" r="6.03"/><circle class="cls-102_city-1-9" cx="150.59" cy="369.47" r="9.66"/><circle class="cls-80_city-1-9" cx="150.59" cy="369.47" r="9.66"/><circle class="cls-89_city-1-9" cx="150.59" cy="369.47" r="6.03"/><polygon class="cls-102_city-1-9" points="79.67 334.4 78.01 348 78.38 348 80.07 334.15 79.67 334.4"/><polygon class="cls-102_city-1-9" points="108.45 334.94 108.45 349.51 110.05 349.51 109.47 334.94 108.45 334.94"/><path class="cls-102_city-1-9" d="M136.83,348.52s.4-2.88-.54-3.45c-1.13-.72-2.49-.97-3.8-.68-.44.1-.74.5-.72.95-.08.88-.38,2.65,0,3.08,1.51.79,3.17,1.25,4.88,1.35,0,0,.8-.31.83-.63s-.65-.63-.65-.63Z"/><path class="cls-102_city-1-9" d="M102.02,351.35s-1.08,0-1.05.51,1.02.48,1.02.48c.48.46,1.11.73,1.77.75.55.05,1.09-.1,1.54-.42,0,0,2.2.2,2.23-.45s-2.09-.77-2.09-.77c0,0-.26-.57-1.94-.63-.54-.05-1.08.14-1.48.52Z"/><path class="cls-102_city-1-9" d="M116.46,352.11s1.08.18.98.65-1.08.34-1.08.34c-.54.39-1.2.56-1.86.49-.58,0-1.13-.24-1.54-.65,0,0-2.23-.11-2.17-.77s2.18-.46,2.18-.46c0,0,.35-.52,2-.34.58,0,1.13.27,1.48.74Z"/><polygon class="cls-102_city-1-9" points="137.11 344.85 137.11 351.72 144.56 351.32 144.56 349.81 137.11 344.85"/><path class="cls-86_city-1-9" d="M46.55,348.11h3.91c.27,0,.48.23.48.49,0,.05,0,.09,0,.14-.71,2.17-1.13,4.43-1.25,6.71,0,.28-.23.51-.51.51h0c-.66-.03-1.33.07-1.95.29-.91.67-1.96,1.13-3.08,1.32,0,0,.43-6.92,2.4-9.46Z"/><path class="cls-87_city-1-9" d="M162.91,354.8l1.77,3.69c1.29.52,2.64.89,4.02,1.11.33-.13.61-.35.82-.65h.78c-.4-1.33-.91-2.61-1.54-3.85-1.64-.99-3.57-1.37-5.46-1.08-.3.03-.51.3-.48.59,0,0,0,.02,0,.02l.09.15Z"/><path class="cls-88_city-1-9" d="M136.83,348.52s.4-2.88-.54-3.45c-1.13-.72-2.49-.97-3.8-.68-.44.1-.74.5-.72.95-.08.88-.38,2.65,0,3.08,1.51.79,3.17,1.25,4.88,1.35,0,0,.8-.31.83-.63s-.65-.63-.65-.63Z"/><path class="cls-91_city-1-9" d="M102.02,351.35s-1.08,0-1.05.51,1.02.48,1.02.48c.48.46,1.11.73,1.77.75.55.05,1.09-.1,1.54-.42,0,0,2.2.2,2.23-.45s-2.09-.77-2.09-.77c0,0-.26-.57-1.94-.63-.54-.05-1.08.14-1.48.52Z"/><path class="cls-92_city-1-9" d="M116.46,352.11s1.08.18.98.65-1.08.34-1.08.34c-.54.39-1.2.56-1.86.49-.58,0-1.13-.24-1.54-.65,0,0-2.23-.11-2.17-.77s2.18-.46,2.18-.46c0,0,.35-.52,2-.34.58,0,1.13.27,1.48.74Z"/><polygon class="cls-90_city-1-9" points="137.11 344.85 137.11 351.72 144.56 351.32 144.56 349.81 137.11 344.85"/></g></g></svg>