<svg id="_0095_profile_analysis" xmlns="http://www.w3.org/2000/svg" xmlns:xlink="http://www.w3.org/1999/xlink" viewBox="0 0 500 500" data-imageid="profile-analysis-73" imageName="Profile Analysis" class="illustrations_image" style="width: 166px;"><defs><style>.cls-1_profile-analysis-73{opacity:.34;}.cls-1_profile-analysis-73,.cls-2_profile-analysis-73,.cls-3_profile-analysis-73,.cls-4_profile-analysis-73{isolation:isolate;}.cls-1_profile-analysis-73,.cls-5_profile-analysis-73,.cls-3_profile-analysis-73,.cls-6_profile-analysis-73,.cls-7_profile-analysis-73,.cls-8_profile-analysis-73,.cls-9_profile-analysis-73,.cls-10_profile-analysis-73,.cls-11_profile-analysis-73,.cls-12_profile-analysis-73,.cls-4_profile-analysis-73{stroke-width:0px;}.cls-1_profile-analysis-73,.cls-3_profile-analysis-73,.cls-12_profile-analysis-73,.cls-4_profile-analysis-73{fill:#68e3fd;}.cls-2_profile-analysis-73{opacity:.53;stroke:#68e3fd;stroke-miterlimit:10;stroke-width:.77px;}.cls-2_profile-analysis-73,.cls-10_profile-analysis-73{fill:#fff;}.cls-5_profile-analysis-73{fill:url(#linear-gradient);}.cls-3_profile-analysis-73{opacity:.18;}.cls-6_profile-analysis-73{fill:url(#linear-gradient-4-profile-analysis-73);}.cls-7_profile-analysis-73{fill:url(#linear-gradient-2-profile-analysis-73);}.cls-8_profile-analysis-73{fill:url(#linear-gradient-3-profile-analysis-73);}.cls-9_profile-analysis-73{fill:#231f20;}.cls-11_profile-analysis-73{fill:#ffaa71;}.cls-4_profile-analysis-73{opacity:.43;}</style><linearGradient id="linear-gradient-profile-analysis-73" x1="623.54" y1="3858.2" x2="611.79" y2="3572.54" gradientTransform="translate(-472.71 3901.41) scale(1 -1)" gradientUnits="userSpaceOnUse"><stop offset="0" stop-color="#231f20" stop-opacity="0"/><stop offset="1" stop-color="#231f20"/></linearGradient><linearGradient id="linear-gradient-2-profile-analysis-73" x1="735.99" y1="3618.15" x2="807.8" y2="3618.15" xlink:href="#linear-gradient-profile-analysis-73"/><linearGradient id="linear-gradient-3-profile-analysis-73" x1="745.65" y1="3729.68" x2="651.31" y2="3652.8" xlink:href="#linear-gradient-profile-analysis-73"/><linearGradient id="linear-gradient-4-profile-analysis-73" x1="829.76" y1="3526.19" x2="861.81" y2="3550.04" xlink:href="#linear-gradient-profile-analysis-73"/></defs><path id="background_profile-analysis-73" class="cls-3_profile-analysis-73" d="M374.79,211.53c14.02,22.35,24.74,55.41,53.92,62.4,6.29,1.51,12.92,1.38,19.13,3.18,8.04,2.34,14.85,7.77,20.48,13.96,20.8,22.83,26.97,57.92,15.22,86.47-3.08,7.49-7.44,14.7-13.91,19.57-11.57,8.73-30.86,4.35-44.73,5.8-19.84,2.07-39.8,3.8-59.18,8.77-11.33,2.92-22.44,6.91-33.89,9.04-11.46,2.13-22.97,2.34-34.52,2.14-55.79-.99-110.92-12.24-162.64-33.18-41.3-16.74-81.84-41.31-104.03-79.97-14.5-25.43-20.02-54.99-15.69-83.93,2.42-15.83,7.89-31.38,17.22-44.37,13.08-18.18,33.1-30.64,54.34-37.8,21.24-7.16,43.82-9.5,66.22-10.68,46.24-2.49,104.58-6.64,147.4,13.71,12.77,6.08,22.14,14.37,32.41,23.77,14.73,13.41,31.51,23.98,42.26,41.11Z"/><g id="profile_profile-analysis-73"><rect class="cls-4_profile-analysis-73" x="96.64" y="69.97" width="234.18" height="356.52" rx="13.74" ry="13.74"/><path class="cls-1_profile-analysis-73" d="M137.72,304.88c-2.31.51-4.77,1.13-6.23,2.94-1.46,1.81-1.25,5.2,1,5.91.64.15,1.31.21,1.97.17,9.6.21,15.61,11.29,24.93,13.43,3.37.6,6.83.47,10.15-.4,2.96-.46,5.77-1.61,8.22-3.34,1.7-1.37,3.34-3.37,5.51-3.15,2.49.24,3.64,3.13,4.2,5.56,5.07,22.09,3.74,45.08,2.28,67.7-.47,7.48-.64,15.28-.77,22.8,0,2.66,0,5.55,1.61,7.65,2.28,2.93,6.58,3.07,10.3,2.93,2.39-.1,5.06-.31,6.71-2.07,1.65-1.76,1.67-4.18,1.68-6.46.15-23.86-.8-47.69-2.84-71.48-.55-6.3,1.02-21.59.95-27.91-.06-6.66,2.17-16.94,3.33-23.5,2.92-16.63,5.82-19.78,8.31-36.48,2.28,1.66,4.86,2.86,7.59,3.55,2.77.51,5.96-.25,7.55-2.57.97-1.72,1.44-3.68,1.36-5.66.23-5.09.16-10.19-.2-15.27,0-1.2-.28-2.38-.84-3.44-.83-1.11-1.95-1.98-3.24-2.49l-16.78-8.35c-1.76-1.07-3.76-1.68-5.82-1.78-2.28.26-4.4,1.31-5.97,2.98-9.16,8.56-9.21,22.71-10.46,35.19-1.05,10.5-3.5,21.12-9.29,29.92-5.78,8.8-15.35,15.63-25.89,16.08-6.53.36-13.08-.48-19.31-2.47Z"/><path class="cls-12_profile-analysis-73" d="M176.15,105.4v62.4c0,3.88-3.14,7.02-7.02,7.02h-45.81c-3.88,0-7.02-3.14-7.02-7.02v-62.4c.03-3.86,3.16-6.97,7.02-6.98h45.81c3.86,0,6.99,3.12,7.02,6.98Z"/><rect class="cls-12_profile-analysis-73" x="197.56" y="113.66" width="104.86" height="6.99"/><rect class="cls-12_profile-analysis-73" x="197.56" y="131.58" width="76.42" height="6.99"/><rect class="cls-12_profile-analysis-73" x="197.56" y="147.75" width="104.86" height="6.99"/><rect class="cls-12_profile-analysis-73" x="197.56" y="165.66" width="92.78" height="6.99"/><rect class="cls-12_profile-analysis-73" x="116.96" y="187.72" width="185.26" height="6.99"/><rect class="cls-12_profile-analysis-73" x="116.96" y="205.64" width="145.31" height="6.99"/><rect class="cls-12_profile-analysis-73" x="116.96" y="221.79" width="185.26" height="6.99"/><rect class="cls-12_profile-analysis-73" x="116.96" y="239.71" width="163.24" height="6.99"/><path class="cls-5_profile-analysis-73" d="M166.05,174.82h-40.59c-2.42-3.14,1.36-15.06,2.67-18.18.56-1.33,9.14-13.71,9.6-12.86-2.64-4.55-5.39-9.41-5.22-14.68.19-6.59,5.26-12.47,11.52-14.57,6.87-2.27,15.76.65,17.96,7.48.66,2.4.76,4.92.27,7.35-1,5.99-3.83,11.52-8.09,15.84,6.48,2.03,9.44,9.4,11.09,15.98.91,3.75,1.71,9.87.79,13.64Z"/></g><polygon id="stairs_profile-analysis-73" class="cls-12_profile-analysis-73" points="166.76 362.81 200.63 362.26 200.63 434.79 98.39 434.79 98.39 407.26 121.55 407.26 121.55 389.35 153.44 389.35 153.44 362.7 166.76 362.81"/><g id="magnifying_glass_profile-analysis-73"><path class="cls-1_profile-analysis-73" d="M324.73,314.37l1.56,23.87c-3.12-1.18-5.99-2.96-8.44-5.24-13.53-11.52-22.68-27.19-31.38-42.61-7.4-13.16-14.64-26.38-21.73-39.68-2.59-4.85-5.29-9.87-9.61-13.28,4.08-2.31,9.17-3.62,13.41-1.62,5.17,2.43,7.12,8.59,9.81,13.63,2.8,5.25,6.83,9.72,10.41,14.47,4.63,6.14,8.52,12.81,11.61,19.86.53,1.42,1.27,2.74,2.19,3.94,1.43,1.39,3.12,2.48,4.99,3.19,5.65,2.63,11.14,5.6,16.43,8.89,1.86,1.05,3.55,2.38,4.99,3.96,1.75,2.18,2.58,4.95,2.32,7.73-.42,4.9-2.75,2.59-6.56,2.88Z"/><path class="cls-12_profile-analysis-73" d="M335.04,331.23l-8.73,4.38-63.13-100.65c3.74-1.8,5.66-2.49,8.73-5.16l63.13,101.43Z"/><path class="cls-7_profile-analysis-73" d="M335.09,331.77l-8.73,4.38-63.08-100.6c3.74-1.78,5.66-2.49,8.73-5.16l63.08,101.38Z"/><path class="cls-12_profile-analysis-73" d="M244.49,149.7c-24.97,0-45.21,20.24-45.21,45.21s20.24,45.21,45.21,45.21,45.21-20.24,45.21-45.2c0-24.97-20.24-45.22-45.21-45.23ZM243.58,231.88c-20.39,0-36.93-16.52-36.94-36.91,0-20.39,16.52-36.93,36.91-36.94,20.39,0,36.93,16.52,36.94,36.91h0c0,20.38-16.49,36.9-36.86,36.94h-.05Z"/><path class="cls-8_profile-analysis-73" d="M244.49,149.7c-24.97,0-45.21,20.24-45.21,45.21s20.24,45.21,45.21,45.21,45.21-20.24,45.21-45.2c0-24.97-20.24-45.22-45.21-45.23ZM243.58,231.88c-20.39,0-36.93-16.52-36.94-36.91,0-20.39,16.52-36.93,36.91-36.94,20.39,0,36.93,16.52,36.94,36.91h0c0,20.38-16.49,36.9-36.86,36.94h-.05Z"/><path class="cls-2_profile-analysis-73" d="M280.54,194.95c0,20.39-16.52,36.93-36.91,36.94-20.39,0-36.93-16.52-36.94-36.91,0-20.39,16.52-36.93,36.91-36.94h.02c20.38,0,36.9,16.53,36.91,36.91Z"/></g><g id="character_2_profile-analysis-73"><path class="cls-11_profile-analysis-73" d="M350.22,261.07c-.55.14-1.25.22-1.48.71-.15.34-.2.71-.14,1.07l.6,6.92c.02,1.11.29,2.2.79,3.19,1.08,1.8,3.43,2.28,5.51,2.49s4.41.56,5.73,2.19c.71.87,1.07,2.08,2.04,2.64.91.37,1.92.42,2.85.12.65-.06,1.27-.31,1.77-.72.62-.84.68-1.98.14-2.88-.53-.84-1-1.72-1.38-2.63-.51-1.92.62-3.83,1.25-5.7,1.43-3.87.55-8.22-2.28-11.22-2.45-2.29-6-2.97-9.13-1.76-2.84,1.08-3.03,4.79-6.27,5.56Z"/><path class="cls-9_profile-analysis-73" d="M355.22,249.36c-.34-.38-.92-.42-1.3-.08-.06.05-.11.11-.16.18-.12.25-.17.53-.14.81.16,1.85,1.03,3.56,2.43,4.77,1.39,1.2,2.91,2.24,4.53,3.12,1.03.52,1.92,1.29,2.58,2.23.7,1.55.79,3.31.25,4.92-.09.39-.14.9.22,1.08s.89-.3,1.38-.4c.59-.03,1.09.41,1.13,1,.02.57-.16,1.13-.5,1.6-.26.51-.66.94-1.15,1.25-.17.07-.37.16-.41.35s.11.31.24.42c.59.54,1.18,1.06,1.8,1.56.34.33.78.56,1.25.65.71-.07,1.35-.44,1.77-1.01l3.9-4.09c.39-.34.69-.77.87-1.25.1-.43.1-.88,0-1.31-.12-1.35-.89-2.55-2.07-3.22.9-1.03,1.35-2.38,1.25-3.74-.07-2.26-1.09-4.39-2.83-5.85-1.7-1.17-3.53-2.13-5.45-2.88-2.2-1.1-4.16-2.63-5.77-4.49-.27-.39-.64-.7-1.07-.9-.93-.31-1.96.65-2.38,1.42-.49,1.22-.62,2.55-.37,3.84Z"/><path class="cls-12_profile-analysis-73" d="M344.21,294.13c-.85.65-1.81,1.13-2.83,1.42-1.11.17-2.25.14-3.35-.09-8.19-1.25-16.33-2.89-24.37-4.91-.62-.26-1.33-.21-1.91.12-.28.31-.47.7-.55,1.11l-1.66,6.23c-.46.86-.13,1.92.73,2.38.16.09.34.15.52.18,7.07,3.2,14.18,6.31,21.32,9.34,2.29,1.15,4.78,1.83,7.33,2.01,1.98-.08,3.93-.5,5.76-1.25,6.31-2.26,12.28-5.4,17.71-9.32l15.94,15.91c2.72,2.72,5.81,5.6,9.65,5.81,2.25-.03,4.47-.56,6.49-1.53,4.57-1.8,9.12-3.67,13.64-5.6.79-.22,1.47-.73,1.89-1.43.19-.56.19-1.16,0-1.72-.66-2.12-1.83-4.04-3.4-5.61-8.71-10.05-18.53-19.09-29.27-26.94-2.13-1.56-4.74-3.49-7.39-4.03-2.26-.46-4.91,1.17-6.84,2.27-4.6,2.63-8.46,6.35-12.4,9.84-2.22,2.08-4.56,4.02-7.01,5.82Z"/><path class="cls-9_profile-analysis-73" d="M346.33,402.86c-.57.94-.64,2.1-.17,3.09.54.58,1.28.94,2.07.98,2.8.49,5.66.56,8.49.21,2.58-8.09,7.28-15.32,11.92-22.44,6.98-10.74,13.97-21.46,20.96-32.17,8.07-12.39,16.21-24.93,21.05-38.91-.29.84-12.02,3.19-13.59,3.74-3.48,1.25-8.28,2.66-11.32,4.84-6.53,4.71-10.56,16.53-14.12,23.59-9.37,18.61-17.33,37.85-25.28,57.07Z"/><path class="cls-6_profile-analysis-73" d="M346.33,402.86c-.57.94-.64,2.1-.17,3.09.54.58,1.28.94,2.07.98,2.8.49,5.66.56,8.49.21,2.58-8.09,7.28-15.32,11.92-22.44,6.98-10.74,13.97-21.46,20.96-32.17,8.07-12.39,16.21-24.93,21.05-38.91-.29.84-12.02,3.19-13.59,3.74-3.48,1.25-8.28,2.66-11.32,4.84-6.53,4.71-10.56,16.53-14.12,23.59-9.37,18.61-17.33,37.85-25.28,57.07Z"/><path class="cls-9_profile-analysis-73" d="M389.79,359.54c-.03,3.48,1.73,6.74,4.66,8.63,11.56,9.7,23.81,18.54,36.05,27.42,3.35-1.26,6.21-3.54,8.18-6.53-9.49-6.7-18.42-14.16-26.71-22.3-1.98-1.88-4.06-3.98-4.48-6.67-.34-2.19.51-4.38,1.25-6.48,2.63-7.84,3.59-16.12,4.54-24.33.52-4.55,1-9.39-1.03-13.49-.35-.82-.91-1.52-1.63-2.04-1.37-.87-3.15-.56-4.72-.16-4.89,1.14-9.65,2.78-14.2,4.9-3.74,1.86-3.83,3.47-3.74,7.48.16,11.17.62,22.38,1.84,33.58Z"/><path class="cls-9_profile-analysis-73" d="M347.72,405.77c-3.13.92-5.62,3.22-8,5.44-.75.7-1.56,1.78-.98,2.63.38.43.93.69,1.51.71,2.67.43,5.37.55,8.07.35,1.62-.05,3.21-.48,4.64-1.25,1.45-.79,2.34-2.3,2.34-3.95-.24-1.76-1.55-3.19-3.28-3.59-1.71-.35-3.49-.12-5.05.67"/><path class="cls-9_profile-analysis-73" d="M427.8,396.99c-1.25,1.17-2.61,2.9-1.86,4.48.62,1,1.74,1.57,2.9,1.48,1.84-.18,3.6-.82,5.12-1.86,3.74-2.11,7.7-4.05,11.22-6.49-4.2-9.92-12.1-2.48-17.39,2.39Z"/><path class="cls-11_profile-analysis-73" d="M301.52,284.53c-.35-.3-.75-.54-1.17-.71-.61-.21-1.28-.13-1.82.21-.99.77-1.43,2.04-1.15,3.25.17,1.25.72,2.34.96,3.54.05,1.21.38,2.38.98,3.43.97.86,2.24,1.31,3.54,1.25,2.8.25,8.4,1.13,7.02-3.74-.82-2.89-6.1-5.48-8.36-7.23Z"/></g><g id="character_1_profile-analysis-73"><path class="cls-12_profile-analysis-73" d="M173.11,318.39c-.77,1.15-1.87,2.05-3.15,2.58-1.29.28-2.63.17-3.86-.31-9.52-2.87-18.12-8.19-24.93-15.45.88-1.95,2.03-3.76,3.42-5.39,4.43,1.79,9.13,2.82,13.9,3.03.65.08,1.31-.03,1.89-.32.4-.3.72-.7.93-1.15,2.24-3.81,4.32-7.72,6.23-11.72,2.49-5.3,4.99-11.08,9.97-14.19.44-.33.97-.51,1.52-.54.57.07,1.1.31,1.55.67,3.74,2.49,7.93,5.36,9.65,9.75,1.48,3.74-.12,6.13-2.06,9.34-4.95,8.07-9.08,16.27-15.06,23.69Z"/><path class="cls-12_profile-analysis-73" d="M191.63,355.58c-3.44-.97-5.82-4.28-6.74-7.74-.92-3.47-2.34-13.71-2.12-17.27,1.07-17.04.63-34.15-1.32-51.11-.11-.95,20.96-6.48,22.94-5.22,4.72,2.99.85,17.53.1,22.21-2.88,17.98-7.03,41.91-12.85,59.13Z"/><path class="cls-11_profile-analysis-73" d="M211.83,212.11c0,1.42-.11,3.02-1.25,3.94-1,.73-2.32.84-3.42.27-1.07-.56-1.98-1.39-2.64-2.41-.82-1.1-1.5-2.3-2.02-3.58-.69-1.69-.99-3.52-.89-5.35.04-.93.27-1.85.67-2.69.99-1.73,2.86-2.77,4.85-2.69,1.98.07,4.77,1.37,4.74,3.58,0,2.97-.01,5.95-.05,8.93Z"/><path class="cls-10_profile-analysis-73" d="M208.2,220.73c-.26.86-.4,2.01.39,2.43.34.15.72.2,1.08.16,2.08-.13,4.13.64,5.61,2.11,1.06,1.32,1.68,2.94,1.78,4.62.16,1.66.1,3.34.34,4.99.37,2.49,6.23,6.62,6.66,5.48.97-2.74,1.27-5.68.87-8.56-.14-1-.24-2.23.6-2.75.49-.24,1.05-.29,1.58-.15,1.63.25,3.21.77,4.67,1.53-.6,1.47,2.17,14.56,1.94,17.78-.87,12.67-16.49,2.49-19.15,1.03-.74-.39-1.55-1.16-1.25-1.92-.64,4.75-1.51,9.81-2.14,14.56-.55,4.06-1.17,8.33-3.59,11.64-1.99,2.49-4.61,4.41-7.59,5.53-6.63,2.8-14.73,3.04-20.63-1.07-1.22-.76-2.19-1.84-2.82-3.13-.43-1.27-.58-2.61-.45-3.94.28-8.49,1.38-16.93,3.29-25.21,1.48-6.46,3.74-13.18,8.79-17.45,4.81-4.01,13.75-6.98,20.01-7.69Z"/><path class="cls-9_profile-analysis-73" d="M201.72,184.15c-4.12-.03-8.05,1.67-10.86,4.69-2.76,3.01-4.85,6.56-6.16,10.42-1.25,3.37-2.27,6.92-4.41,9.81-2.89,3.91-7.48,6.11-11.59,8.73-4.11,2.62-8.15,6.23-8.73,11.12-.31,2.69.54,5.42.21,8.1-.4,3.27-2.49,6.58-1.17,9.61.51,1.09,1.31,2.03,2.31,2.71,4.16,2.95,9.72,2.95,13.87,0,4.29-3.19,5.93-8.94,9.9-12.53,4.35-3.94,10.72-4.67,15.63-7.87,5.31-3.51,8.43-9.53,8.25-15.89-.09-2.31-.62-4.66,0-6.88.62-2.22,2.21-3.84,2.74-5.97.67-2.62-.45-7.48-1.35-10.05-1.17-3.57-5.04-5.81-8.65-6Z"/><path class="cls-11_profile-analysis-73" d="M224.82,226.14c-.4-.51-.7-1.1-.87-1.72-.18-.65.2-1.33.85-1.52.3,0,.59-.02.89-.09.16-.08.3-.19.41-.32.51-.45,1.2-.63,1.87-.5.67.15,1.23.62,1.51,1.25.39-.05.77.11,1.01.42.22.31.37.67.42,1.05.02.23.1.45.22.65.11.15.29.22.41.36.24.37.31.82.2,1.25l-.34,2.58c0,.1-.03.2-.07.29-.17.3-.62.24-.96.14-.89-.25-1.81-.4-2.73-.45-2.18-.1-1.84-1.77-2.82-3.38Z"/><path class="cls-9_profile-analysis-73" d="M184.45,358.96c-.04.53.04,1.06.22,1.56.61,1.37,2.49,1.71,4.16,1.8,3.25.16,6.5.1,9.74-.2.75,0,1.47-.23,2.07-.69.62-.74.54-1.84-.17-2.49-.73-.66-1.61-1.14-2.56-1.41-.95-.26-1.84-.73-2.59-1.36-.76-.85-1.16-1.96-1.1-3.1,0-1.12.15-2.23,0-3.34,0-.2-.09-.38-.24-.51-.14-.08-.3-.11-.46-.1-2.08-.06-7.22-.92-8.73.81-1.51,1.73-.32,6.92-.35,9.04Z"/><path class="cls-9_profile-analysis-73" d="M138.18,294.56c-.49-.33-1.05-.53-1.63-.6-.81.07-1.57.41-2.16.96-2.69,2.09-5.01,4.62-6.87,7.48-1.02,1.55-1.96,3.58-1.25,5.35,2.71.61,5.58,1.25,8.14,0,.85-.51,1.73-.96,2.63-1.36,1.09-.35,2.27-.21,3.25.36.93.54,1.82,1.48,2.85,1.35.66-.17,1.25-.57,1.65-1.12,1.47-1.77,3.24-5.47,1.82-7.68s-6.41-3.6-8.44-4.74Z"/></g></svg>