<?xml version="1.0" encoding="UTF-8" standalone="no" ?>
<!DOCTYPE svg PUBLIC "-//W3C//DTD SVG 1.1//EN" "http://www.w3.org/Graphics/SVG/1.1/DTD/svg11.dtd">
<svg xmlns="http://www.w3.org/2000/svg" xmlns:xlink="http://www.w3.org/1999/xlink" version="1.1" width="1080" height="1080" viewBox="0 0 1080 1080" xml:space="preserve">
<desc>Created with Fabric.js 5.2.4</desc>
<defs>
</defs>
<rect x="0" y="0" width="100%" height="100%" fill="transparent"></rect>
<g transform="matrix(1 0 0 1 540 540)" id="61d5b307-72ff-4fb3-9bee-6dadfd04839d"  >
<rect style="stroke: none; stroke-width: 1; stroke-dasharray: none; stroke-linecap: butt; stroke-dashoffset: 0; stroke-linejoin: miter; stroke-miterlimit: 4; fill: rgb(255,255,255); fill-rule: nonzero; opacity: 1; visibility: hidden;" vector-effect="non-scaling-stroke"  x="-540" y="-540" rx="0" ry="0" width="1080" height="1080" />
</g>
<g transform="matrix(1 0 0 1 540 540)" id="1aabaded-c070-4015-bcd9-b0f06c0f7166"  >
</g>
<g transform="matrix(0.32 0 0 0.32 895.9 169.66)"  >
<g style="" vector-effect="non-scaling-stroke"   >
		<g transform="matrix(1 0 0 1 -348.28 329.33)"  >
<path style="stroke: none; stroke-width: 1; stroke-dasharray: none; stroke-linecap: butt; stroke-dashoffset: 0; stroke-linejoin: miter; stroke-miterlimit: 4; fill: rgb(242,242,242); fill-rule: nonzero; opacity: 1;" vector-effect="non-scaling-stroke"  transform=" translate(-251.72, -779.32)" d="M 327.40646 845.05022 C 336.39902 837.4515799999999 341.86125 825.44795 340.42877999999996 813.76234 C 338.99630999999994 802.07673 330.12406 791.33405 318.61546 788.85256 C 307.10686 786.37107 293.98785 793.24023 290.49231 804.48242 C 288.56854999999996 782.80793 286.35175999999996 760.2252900000001 274.82820999999996 741.76742 C 264.39392 725.0542800000001 246.32153999999997 713.09542 226.73515999999995 710.95594 C 207.14877999999993 708.8164600000001 186.52683999999994 716.8969400000001 174.31153999999995 732.35622 C 162.09623999999997 747.8154999999999 159.10535999999996 770.2901 167.66063999999994 788.03863 C 173.96301999999994 801.1133600000001 185.57421999999994 810.84374 197.73986999999994 818.7599 C 236.55248999999995 844.0152 284.6995099999999 852.54819 330.51210999999995 845.80612 Z" stroke-linecap="round" />
</g>
		<g transform="matrix(1 0 0 1 -360.81 331.87)"  >
<path style="stroke: none; stroke-width: 1; stroke-dasharray: none; stroke-linecap: butt; stroke-dashoffset: 0; stroke-linejoin: miter; stroke-miterlimit: 4; fill: rgb(255,255,255); fill-rule: nonzero; opacity: 1;" vector-effect="non-scaling-stroke"  transform=" translate(-239.19, -781.86)" d="M 193.68016 717.34486 C 209.84134460635676 730.5083577242025 224.66753486857567 745.2307207227711 237.94428000000008 761.2990000000001 C 251.22312002962198 777.3507839727072 262.9137031015705 794.652713226563 272.85182 812.96176 C 278.40677923925074 823.2323071984591 283.3969302788912 833.7984408810819 287.79999999999995 844.6129999999997 C 288.69773000000004 846.8129100000001 285.12546000000003 847.77052 284.23771 845.59508 C 276.43880006418715 826.5290651363374 266.7900753394824 808.2732845568585 255.42989 791.08951 C 244.12488177026552 773.9679873740432 231.18567543066246 757.9834667998066 216.7940499999998 743.3605099999997 C 208.65410393904725 735.093746859683 200.06577098254314 727.2808075910735 191.06793999999985 719.9570699999997 C 189.22365 718.4552699999999 191.85109 715.85543 193.68017 717.34484 Z" stroke-linecap="round" />
</g>
		<g transform="matrix(1 0 0 1 309.67 -83.06)"  >
<path style="stroke: none; stroke-width: 1; stroke-dasharray: none; stroke-linecap: butt; stroke-dashoffset: 0; stroke-linejoin: miter; stroke-miterlimit: 4; fill: rgb(56,189,248); fill-rule: nonzero; opacity: 1;" vector-effect="non-scaling-stroke"  transform=" translate(-909.67, -366.93)" d="M 971.177 381.30811 L 848.16283 381.30811 C 844.2986346830899 381.30377285059745 841.1671671494025 378.1723053169101 841.16283 374.30811 L 841.16283 359.54883 C 841.1671671494025 355.6846346830899 844.2986346830899 352.55316714940255 848.16283 352.54883 L 971.177 352.54883 C 975.0411953169101 352.55316714940255 978.1726628505975 355.6846346830899 978.177 359.54883 L 978.177 374.30811 C 978.1726628505975 378.1723053169101 975.0411953169101 381.30377285059745 971.177 381.30811 Z" stroke-linecap="round" />
</g>
		<g transform="matrix(1 0 0 1 265.68 -104.58)"  >
<path style="stroke: none; stroke-width: 1; stroke-dasharray: none; stroke-linecap: butt; stroke-dashoffset: 0; stroke-linejoin: miter; stroke-miterlimit: 4; fill: rgb(56,189,248); fill-rule: nonzero; opacity: 1;" vector-effect="non-scaling-stroke"  transform=" translate(-865.68, -345.41)" d="M 954.57762 358.74036 L 902.15233 311.47136 C 899.821584362781 309.3683765936697 896.32016450023 309.2338662461225 893.83495 311.15184 L 779.10448 349.03333 C 775.6985809983023 350.16214669086435 773.8491172408774 353.83487748037504 774.9702 357.24332999999996 L 779.59764 371.25894999999997 C 780.1354972230514 372.8978381304457 781.3038355076014 374.25508493936934 782.8444738388448 375.03076414420104 C 784.3851121700881 375.8064433490327 786.1712161343588 375.9366964729693 787.80809 375.39273999999995 L 893.05174 340.6432899999999 L 935.9882699999999 379.35709999999995 C 937.1779582777092 380.43581975522096 938.7270668673888 381.03227391204706 940.33299 381.02994999999993 Q 940.50438 381.02994999999993 940.67674 381.02066999999994 C 942.3997062743219 380.93648286557243 944.0173437721504 380.1663478562606 945.16893 378.88199999999995 L 955.05223 367.92056999999994 C 957.4518737258314 365.2529257247594 957.2395654785389 361.1463238940416 954.57762 358.74036 Z" stroke-linecap="round" />
</g>
		<g transform="matrix(1 0 0 1 -218.56 329.72)"  >
<path style="stroke: none; stroke-width: 1; stroke-dasharray: none; stroke-linecap: butt; stroke-dashoffset: 0; stroke-linejoin: miter; stroke-miterlimit: 4; fill: rgb(56,189,248); fill-rule: nonzero; opacity: 1;" vector-effect="non-scaling-stroke"  transform=" translate(-381.44, -779.72)" d="M 374.0609 712.208 C 370.74872671890546 712.2117034158133 368.0646034158133 714.8958267189054 368.0609 718.208 L 368.0609 841.22217 C 368.0646034158133 844.5343432810946 370.74872671890546 847.2184665841867 374.0609 847.22217 L 388.82067 847.22217 C 392.13284328109455 847.2184665841867 394.81696658418673 844.5343432810946 394.82067 841.22217 L 394.82067 718.208 C 394.81696658418673 714.8958267189054 392.13284328109455 712.2117034158133 388.82067 712.208 Z" stroke-linecap="round" />
</g>
		<g transform="matrix(1 0 0 1 -187.37 329.72)"  >
<path style="stroke: none; stroke-width: 1; stroke-dasharray: none; stroke-linecap: butt; stroke-dashoffset: 0; stroke-linejoin: miter; stroke-miterlimit: 4; fill: rgb(56,189,248); fill-rule: nonzero; opacity: 1;" vector-effect="non-scaling-stroke"  transform=" translate(-412.63, -779.72)" d="M 420.0128 848.22217 L 405.25328 848.22217 C 401.3890846830899 848.2178328505975 398.25761714940256 845.0863653169101 398.25328 841.22217 L 398.25328 718.208 C 398.25761714940256 714.3438046830898 401.3890846830899 711.2123371494025 405.25328 711.208 L 420.0128 711.208 C 423.8769975983579 711.2123316502257 427.00846834977426 714.343802401642 427.0128 718.208 L 427.0128 841.22217 C 427.00846834977426 845.0863675983579 423.8769975983579 848.2178383497743 420.0128 848.22217 Z" stroke-linecap="round" />
</g>
		<g transform="matrix(1 0 0 1 -200.4 298.63)"  >
<path style="stroke: none; stroke-width: 1; stroke-dasharray: none; stroke-linecap: butt; stroke-dashoffset: 0; stroke-linejoin: miter; stroke-miterlimit: 4; fill: rgb(204,204,204); fill-rule: nonzero; opacity: 1;" vector-effect="non-scaling-stroke"  transform=" translate(-399.6, -748.62)" d="M 444.178 727.74481 C 444.178 727.74481 449.75426 777.88865 393.45885 776.18568 C 337.16344 774.4827100000001 359.066 725.21115 359.066 725.21115 C 359.066 725.21115 370.83052999999995 715.9658999999999 400.56886 724.90748 C 430.30719 733.84906 444.178 727.74481 444.178 727.74481 Z" stroke-linecap="round" />
</g>
		<g transform="matrix(1 0 0 1 -133.48 146.74)"  >
<path style="stroke: none; stroke-width: 1; stroke-dasharray: none; stroke-linecap: butt; stroke-dashoffset: 0; stroke-linejoin: miter; stroke-miterlimit: 4; fill: rgb(56,189,248); fill-rule: nonzero; opacity: 1;" vector-effect="non-scaling-stroke"  transform=" translate(-466.52, -596.73)" d="M 419.98619 642.40821 C 413.6366397920456 642.4195206641363 408.03161298209443 638.26413542248 406.19703977273645 632.1853808696161 C 404.36246656337846 626.1066263167522 406.73286434914564 619.5442512601072 412.02855 616.04102 L 508.45628999999997 552.22119 C 510.0044157795987 551.1963489028016 511.89629315042276 550.8285807549298 513.7156118280917 551.1988134561462 C 515.5349305057606 551.5690461573627 517.1326140705048 552.6469425455983 518.1570899999999 554.19531 L 526.3030899999999 566.50293 C 528.4318448685916 569.7277596408879 527.5488179976336 574.0671567720094 524.3290899999998 576.20362 L 427.90134999999987 640.02393 C 425.5551085524006 641.580339716891 422.8017286339343 642.4097390811492 419.98619 642.40821 Z" stroke-linecap="round" />
</g>
		<g transform="matrix(1 0 0 1 -197.52 82.34)"  >
<circle style="stroke: none; stroke-width: 1; stroke-dasharray: none; stroke-linecap: butt; stroke-dashoffset: 0; stroke-linejoin: miter; stroke-miterlimit: 4; fill: rgb(56,189,248); fill-rule: nonzero; opacity: 1;" vector-effect="non-scaling-stroke"  cx="0" cy="0" r="51" />
</g>
		<g transform="matrix(1 0 0 1 -190.61 86.72)"  >
<path style="stroke: none; stroke-width: 1; stroke-dasharray: none; stroke-linecap: butt; stroke-dashoffset: 0; stroke-linejoin: miter; stroke-miterlimit: 4; fill: rgb(47,46,65); fill-rule: nonzero; opacity: 1;" vector-effect="non-scaling-stroke"  transform=" translate(-409.39, -536.71)" d="M 402.51531 553.73809 C 405.82122 553.64629 409.9356 553.53155 413.10531 551.21609 C 415.01586626087396 549.7632340723637 416.1870810313811 547.5406245014028 416.30537999999996 545.14333 C 416.4216009214701 543.4371698407067 415.733317476023 541.7748155724719 414.44503 540.65018 C 412.78950999999995 539.2512399999999 410.37203 538.9231199999999 407.76680999999996 539.6887399999999 L 410.46603 519.9631599999999 L 408.48458 519.6916699999999 L 405.31136 542.88167 L 406.96603 542.12239 C 408.88436 541.2425 411.51766 540.79475 413.15403 542.17756 C 413.9685077548654 542.910350524304 414.39473686908116 543.9810019999595 414.30674 545.0730699999999 C 414.20859451178404 546.8566453064185 413.33944214975884 548.5093097442714 411.92551 549.6008999999999 C 409.45883999999995 551.4026599999999 406.17929 551.6350799999999 402.45968999999997 551.7390899999999 Z" stroke-linecap="round" />
</g>
		<g transform="matrix(1 0 0 1 -174.35 72.67)"  >
<rect style="stroke: none; stroke-width: 1; stroke-dasharray: none; stroke-linecap: butt; stroke-dashoffset: 0; stroke-linejoin: miter; stroke-miterlimit: 4; fill: rgb(47,46,65); fill-rule: nonzero; opacity: 1;" vector-effect="non-scaling-stroke"  x="-5.385805" y="-1" rx="0" ry="0" width="10.77161" height="2" />
</g>
		<g transform="matrix(1 0 0 1 -208.35 72.67)"  >
<rect style="stroke: none; stroke-width: 1; stroke-dasharray: none; stroke-linecap: butt; stroke-dashoffset: 0; stroke-linejoin: miter; stroke-miterlimit: 4; fill: rgb(47,46,65); fill-rule: nonzero; opacity: 1;" vector-effect="non-scaling-stroke"  x="-5.385805" y="-1" rx="0" ry="0" width="10.77161" height="2" />
</g>
		<g transform="matrix(1 0 0 1 -199.82 231.51)"  >
<path style="stroke: none; stroke-width: 1; stroke-dasharray: none; stroke-linecap: butt; stroke-dashoffset: 0; stroke-linejoin: miter; stroke-miterlimit: 4; fill: rgb(47,46,65); fill-rule: nonzero; opacity: 1;" vector-effect="non-scaling-stroke"  transform=" translate(-400.18, -681.5)" d="M 350.96145 738.30969 C 350.96145 738.30969 346.55808 588.59493 408.20533 598.8694700000001 C 469.85258 609.1440100000002 444.16623 753.7214700000001 444.16623 753.7214700000001 C 444.16623 753.7214700000001 430.9561 780.1417200000001 398.66468 750.78588 C 366.37325999999996 721.43004 350.96145 738.30969 350.96145 738.30969 Z" stroke-linecap="round" />
</g>
		<g transform="matrix(1 0 0 1 -213.99 71.25)"  >
<path style="stroke: none; stroke-width: 1; stroke-dasharray: none; stroke-linecap: butt; stroke-dashoffset: 0; stroke-linejoin: miter; stroke-miterlimit: 4; fill: rgb(47,46,65); fill-rule: nonzero; opacity: 1;" vector-effect="non-scaling-stroke"  transform=" translate(-386.01, -521.25)" d="M 373.71187 489.25261 C 383.63512 482.51494 396.15963 487.09205000000003 405.80187 491.9004 C 415.16627 496.57018 425.71866 502.51198 436.31425 498.01388 C 440.45225 496.25721 443.81558 492.82108999999997 444.40017 488.22371 C 445.09655 482.74715 441.78478 477.62012 438.10159 473.89657 C 434.0985707092718 470.0661881549381 429.4348331469867 466.9925724147722 424.33623 464.82457 C 419.3378633328402 462.5755888220325 414.07258834469536 460.9745683599588 408.66833999999994 460.06041 C 386.94786050434965 456.3075986167551 364.7529736829872 463.28535573569246 349.0873399999999 478.79183 C 333.9794532778013 494.20072495030206 326.1821433130772 515.3348319155365 327.66204999999997 536.8637 C 328.50469 548.20902 332.12805 559.77756 339.39743999999996 568.68376 C 346.21784999999994 577.03993 356.43064 582.91461 367.33066999999994 583.40504 C 370.00152895353926 583.5300651677143 372.6774069502519 583.3127226072567 375.2930799999999 582.7583099999999 C 377.1760799999999 582.3567999999999 377.9807799999999 585.2480999999999 376.09059999999994 585.6511499999999 C 364.7380099999999 588.07188 352.9775399999999 584.4751499999999 343.97353999999996 577.3927799999999 C 334.49504999999994 569.9372299999999 328.67936999999995 558.6503199999999 326.12953999999996 547.02078 C 321.25003999999996 524.7656099999999 327.36285 500.81537999999995 341.37116 482.99888999999996 C 348.28851421308826 474.12430976473945 357.2489297007594 467.05368914892694 367.48876999999993 462.38960999999995 C 378.0643516267666 457.6675413430943 389.6172494280056 455.5475875455192 401.18037 456.20721 C 412.71179121708286 456.78631318949846 423.89872305379885 460.3309557464728 433.65944999999994 466.49839 C 442.38998 472.14063 452.22978 484.10139 445.10945 494.68382999999994 C 442.44683 498.64107999999993 438.02652 501.0516999999999 433.43752 502.04227999999995 C 428.1713476241091 503.0668609335052 422.72329772210514 502.5922708428235 417.71361 500.67253999999997 C 406.30722000000003 496.64473 395.75784 487.64466 382.99054 489.00854 C 380.2079202444648 489.2973906305051 377.54023369802303 490.2712433715277 375.22596 491.84304 C 373.62449 492.93039 372.12181 490.33218999999997 373.7118 489.25262999999995 Z" stroke-linecap="round" />
</g>
		<g transform="matrix(1 0 0 1 270.53 -216.91)"  >
<path style="stroke: none; stroke-width: 1; stroke-dasharray: none; stroke-linecap: butt; stroke-dashoffset: 0; stroke-linejoin: miter; stroke-miterlimit: 4; fill: rgb(56,189,248); fill-rule: nonzero; opacity: 1;" vector-effect="non-scaling-stroke"  transform=" translate(-870.53, -233.08)" d="M 809.44118 256.9708 C 804.717997120222 253.93640389516253 802.2877877004495 248.35559985324653 803.2837701173244 242.83074372279773 C 804.2797525341991 237.30588759234897 808.5057817683454 232.92502369462767 813.9912400000001 231.73096999999999 L 926.97941 207.13481 C 930.4863158291295 206.37494566665748 933.9463292891317 208.59788056255942 934.71293 212.10332 L 934.2244900000001 212.2098 L 934.71293 212.10332 L 937.85245 226.52526 C 938.2192112660126 228.20972529146098 937.9017527057409 229.97089480177655 936.9699203163904 231.42128286796478 C 936.0380879270398 232.871670934153 934.5682231808279 233.8924527959621 932.8837199999999 234.25904 L 819.89555 258.85521 C 819.4058968200465 258.96193775644355 818.910900707552 259.0424787725896 818.4126699999999 259.09649 C 815.2667819868896 259.43948977692844 812.0987249646494 258.6888555866651 809.44118 256.9708 Z" stroke-linecap="round" />
</g>
		<g transform="matrix(1 0 0 1 242.36 -212.66)"  >
<path style="stroke: none; stroke-width: 1; stroke-dasharray: none; stroke-linecap: butt; stroke-dashoffset: 0; stroke-linejoin: miter; stroke-miterlimit: 4; fill: rgb(47,46,65); fill-rule: nonzero; opacity: 1;" vector-effect="non-scaling-stroke"  transform=" translate(-842.36, -237.34)" d="M 800.19042 248.81836 L 800.19042 248.81836 Q 800.08897 248.41627000000003 800.01073 248.00536000000002 C 799.08173 243.11181000000002 800.7787999999999 237.95995000000002 804.78905 233.49755000000002 C 809.144111510371 228.86337592753839 814.830613391128 225.69574373831634 821.06322 224.43212000000003 L 872.57445 213.16212000000002 C 874.2890815423367 212.78710796176549 876.0824952711934 213.12137137088655 877.5468980978862 214.08890416928188 C 879.011300924579 215.05643696767717 880.0222384727408 216.57501199158796 880.34984 218.29933000000003 L 884.84398 241.97316000000004 C 885.5194709526022 245.43466717776437 883.2965090247199 248.7989759847176 879.8474 249.53516000000005 L 828.01024 260.87549000000007 C 825.6731006266126 261.3913707350447 823.2871831854667 261.65395257569634 820.89379 261.6586900000001 C 810.68187 261.65869 802.17919 256.68457 800.19042 248.81836 Z" stroke-linecap="round" />
</g>
		<g transform="matrix(1 0 0 1 209.21 -305.15)"  >
<circle style="stroke: none; stroke-width: 1; stroke-dasharray: none; stroke-linecap: butt; stroke-dashoffset: 0; stroke-linejoin: miter; stroke-miterlimit: 4; fill: rgb(56,189,248); fill-rule: nonzero; opacity: 1;" vector-effect="non-scaling-stroke"  cx="0" cy="0" r="51" />
</g>
		<g transform="matrix(1 0 0 1 259.12 -303.76)"  >
<path style="stroke: none; stroke-width: 1; stroke-dasharray: none; stroke-linecap: butt; stroke-dashoffset: 0; stroke-linejoin: miter; stroke-miterlimit: 4; fill: rgb(47,46,65); fill-rule: nonzero; opacity: 1;" vector-effect="non-scaling-stroke"  transform=" translate(-859.12, -146.23)" d="M 852.24278 163.25537 C 855.5486900000001 163.16358 859.6630700000001 163.04883 862.8327800000001 160.73337 C 864.7433368808232 159.2805190175896 865.9145522047462 157.0579120563814 866.03285 154.66062 C 866.1490756376347 152.95445906863236 865.4607913576136 151.29210278471987 864.1725 150.16746999999998 C 862.51698 148.76852999999997 860.0995 148.44039999999998 857.49428 149.20602999999997 L 860.1935 129.48043999999996 L 858.212 129.209 L 855.03879 152.39894 L 856.69345 151.63966000000002 C 858.61178 150.75978000000003 861.24508 150.31202000000002 862.88145 151.69484000000003 C 863.6959287318706 152.42762560669527 864.1221583664045 153.49827469171515 864.0341599999999 154.59034000000003 C 863.9360121121521 156.37391741696607 863.0668605424929 158.0265839981724 861.65293 159.11818000000002 C 859.18626 160.91993000000002 855.90672 161.15236000000002 852.18711 161.25636000000003 Z" stroke-linecap="round" />
</g>
		<g transform="matrix(1 0 0 1 241.38 -317.81)"  >
<rect style="stroke: none; stroke-width: 1; stroke-dasharray: none; stroke-linecap: butt; stroke-dashoffset: 0; stroke-linejoin: miter; stroke-miterlimit: 4; fill: rgb(47,46,65); fill-rule: nonzero; opacity: 1;" vector-effect="non-scaling-stroke"  x="-5.385805" y="-1" rx="0" ry="0" width="10.77161" height="2" />
</g>
		<g transform="matrix(1 0 0 1 132.09 -291.99)"  >
<path style="stroke: none; stroke-width: 1; stroke-dasharray: none; stroke-linecap: butt; stroke-dashoffset: 0; stroke-linejoin: miter; stroke-miterlimit: 4; fill: rgb(47,46,65); fill-rule: nonzero; opacity: 1;" vector-effect="non-scaling-stroke"  transform=" translate(-732.09, -158)" d="M 805.63715 93.69558 C 804.8779472505521 81.49739116455734 798.8628083395823 70.22891856551642 789.15035 62.80999999999999 C 779.103716962336 55.37023549978583 766.215200030795 52.91214448596735 754.13557 56.132000000000005 C 742.1313079164015 59.251336400974765 732.2222622618239 67.70662394363012 727.25305 79.07058000000004 C 724.7844405562846 84.63760672377015 723.5527469463657 90.6738549081854 723.64292 96.76300000000002 C 723.9148871486013 103.38472081781745 725.559887576795 109.87767918277115 728.4736 115.83011000000002 C 731.48076 122.38226 735.2736 128.52936 738.5676000000001 134.93436 C 741.8120089744008 141.25033237045707 744.6112294560537 147.7852395305516 746.94482 154.49135999999987 C 751.6928364482804 168.1556474764886 754.4942173368909 182.42014459029127 755.26655 196.86520999999988 C 756.49067 219.63591 754.3121000000001 252.8795 728.6065500000001 261.61827 C 722.0697500000001 263.8405 715.0180600000001 264.25421 708.1645500000001 264.2361 C 700.9462509711386 264.32419547342016 693.7467344314041 263.4809053249216 686.74418 261.7271 C 674.6087200000001 258.48666000000003 663.08865 250.87749 657.91778 239.05537 C 656.7262713432954 236.3253276911301 655.9273408803284 233.4403200975715 655.54478 230.48626000000002 C 655.43715 229.67635 656.31138 228.99391000000003 657.04478 228.98626000000002 C 657.8650188148429 229.00570250115166 658.5253374988483 229.66602118515706 658.54478 230.48626000000002 C 660.21889 243.08415000000002 670.71642 252.7451 682.11407 257.08838000000003 C 688.7735830030568 259.50204979699305 695.7706486326373 260.855591478273 702.84987 261.0996 C 709.89613 261.4556 717.2121500000001 261.40049 724.11168 259.77906 C 730.2534208331293 258.44985218502484 735.8414690697889 255.27338852832443 740.12554 250.67616 C 743.944589708606 246.27942278721838 746.793086590847 241.12643491580315 748.48495 235.55382 C 752.5424 223.16872 752.96759 209.55165 752.25463 196.64316 C 751.4477305658941 182.24553789925832 748.5861893918136 168.0372717750363 743.7568899999999 154.44975999999986 C 741.3174076887178 147.58953301669948 738.3747834943299 140.9187663961393 734.95301 134.49184999999997 C 731.6105699999999 128.20559 727.8993499999999 122.09702 725.0831499999999 115.54463 C 722.3343007803405 109.5220907611551 720.822897170234 103.0088514300418 720.6385799999999 96.39121 C 720.6164690615855 90.27955170720804 721.8328370246234 84.22676974122346 724.2142799999999 78.59813 C 728.9492845195105 67.16819980682914 738.3402981888216 58.30452997217637 750.02451 54.23725 C 761.9089706397662 50.10038597557805 774.9874580809058 51.17167271272109 786.0403 57.187379999999976 C 796.5425681055465 63.22458192122994 804.1954776000499 73.20979369418274 807.29547 84.92027999999996 C 808.0413095345529 87.79186458113631 808.4908948776306 90.73232582917777 808.6371800000001 93.69557999999998 C 808.7360600000001 95.62513999999999 805.7357900000001 95.61980999999999 805.6371800000001 93.69557999999999 Z" stroke-linecap="round" />
</g>
		<g transform="matrix(1 0 0 1 184.37 -366.07)"  >
<path style="stroke: none; stroke-width: 1; stroke-dasharray: none; stroke-linecap: butt; stroke-dashoffset: 0; stroke-linejoin: miter; stroke-miterlimit: 4; fill: rgb(47,46,65); fill-rule: nonzero; opacity: 1;" vector-effect="non-scaling-stroke"  transform=" translate(-784.37, -83.92)" d="M 795.66388 94.74877 C 794.8453736455645 89.18458438671728 792.0574838165102 84.09880593794824 787.807 80.41594 C 783.2891111798807 76.62905136872637 777.4976166640473 74.7067114737123 771.612 75.04042000000001 C 769.6823099999999 75.13694000000001 769.6874399999999 72.13668000000001 771.612 72.04042000000001 C 784.8540182820841 71.44332369869915 796.4411393686344 80.86570284164239 798.55674 93.95126 C 798.845 95.83994000000001 795.95474 96.65418000000003 795.6639 94.74877000000002 Z" stroke-linecap="round" />
</g>
		<g transform="matrix(1 0 0 1 201.71 -359.15)"  >
<path style="stroke: none; stroke-width: 1; stroke-dasharray: none; stroke-linecap: butt; stroke-dashoffset: 0; stroke-linejoin: miter; stroke-miterlimit: 4; fill: rgb(47,46,65); fill-rule: nonzero; opacity: 1;" vector-effect="non-scaling-stroke"  transform=" translate(-801.71, -90.85)" d="M 789.36058 94.92237 C 788.4085131568328 92.03798476361459 789.9748151142577 88.92790023927023 792.8591200000001 87.97559 L 807.1027700000001 83.27246 C 809.9870301617876 82.32011950735803 813.0972095073581 83.88624983821244 814.0495500000001 86.77051000000002 C 815.001890492642 89.6547701617876 813.4357601617876 92.76494950735803 810.5515 93.71728999999999 L 796.30785 98.42040999999999 C 794.9227312311704 98.87828215396648 793.4124285304957 98.76692868668479 792.1094394474268 98.11086438911536 C 790.8064503643578 97.45480009154592 789.8175976080024 96.30781095969286 789.36058 94.92240999999999 Z" stroke-linecap="round" />
</g>
		<g transform="matrix(1 0 0 1 372.13 -254.53)"  >
<path style="stroke: none; stroke-width: 1; stroke-dasharray: none; stroke-linecap: butt; stroke-dashoffset: 0; stroke-linejoin: miter; stroke-miterlimit: 4; fill: rgb(204,204,204); fill-rule: nonzero; opacity: 1;" vector-effect="non-scaling-stroke"  transform=" translate(-972.13, -195.46)" d="M 900.59128 164.2202 C 898.7133234278617 164.61681491617193 897.2275218661425 166.0523409051149 896.7665223016296 167.91553807130157 C 896.3055227371166 169.77873523748823 896.9505132279577 171.74147016927668 898.42686 172.96802 L 920.43834 191.25662 C 920.7600597739523 191.52886727072226 921.0258291016912 191.86101949620414 921.2208800000001 192.23462 C 921.4023937747639 192.61203835886064 921.5044493382335 193.02271806060503 921.5207200000001 193.4412 L 922.8947900000001 226.98172 C 922.9457878730622 229.24050999519028 924.5367223562275 231.17067692076998 926.74423 231.65197 L 926.78323 231.66083 C 928.96321148339 232.1936217302963 931.2258366075275 231.17296580709117 932.26923 229.18613 L 940.20884 214.70675 C 940.7513382961475 213.735378855881 941.7853290682528 213.1423817679179 942.8977 213.16468 C 943.7097017095382 213.1688566312477 944.4830351213557 213.51208183539003 945.03088 214.11144000000002 L 983.13188 254.76655000000002 C 984.2478661013353 255.9647560613984 985.8825822703451 256.53614287644297 987.5020000000001 256.29405 C 989.115718587215 256.0538774461946 990.5119618593841 255.04422407208295 991.2455900000001 253.58698000000004 L 1047.112 141.81528 C 1047.9740402220882 140.0980324544086 1047.7762529958948 138.038783429738 1046.603110689074 136.51701156599353 C 1045.429968382253 134.99523970224905 1043.4888414058757 134.27994088774398 1041.60876 134.67661 L 1039.79963 135.05473 L 900.59123 164.22019 Z M 899.6991899999999 171.43194 C 898.8146126262028 170.69370492424042 898.4296868945079 169.51489726505895 898.708130676852 168.39689135389855 C 898.9865744591959 167.27888544273816 899.8794163832869 166.41831085860773 901.00691 166.18119 L 1040.17185 137.02623999999997 L 1042.02395 136.63751999999997 C 1043.1498570629522 136.40559349450197 1044.3094915407062 136.8356942531937 1045.0118578262363 137.74571525257156 C 1045.7142241117665 138.65573625194943 1045.8364715871962 139.88650606770452 1045.32684 140.91690999999997 L 989.46053 252.6886 C 989.0206779659916 253.56457267128133 988.1806874983365 254.17047413743765 987.2106771026814 254.31146266524772 C 986.2406667070263 254.45245119305778 985.2629445608459 254.110749602031 984.59192 253.39624 L 946.49133 212.74136000000001 C 946.119032282793 212.33472830100203 945.6793962740136 211.9953481653216 945.19175 211.73814000000002 L 1042.0039299999999 141.50436000000002 C 1042.7893389418455 140.94642898045728 1043.0661443751737 139.9083123048433 1042.6627896618616 139.03340705068837 C 1042.2594349485494 138.15850179653347 1041.2902584678936 137.69481609538272 1040.35593 137.92973 C 1040.2449838523626 137.95612147141526 1040.1368932352982 137.99332953614535 1040.03321 138.04082 L 922.48454 190.51182 C 922.2570565288256 190.21987144629222 921.9974431631858 189.95444819423636 921.7106 189.72056 L 899.69919 171.432 Z" stroke-linecap="round" />
</g>
		<g transform="matrix(1 0 0 1 372.13 -254.53)"  >
<path style="stroke: none; stroke-width: 1; stroke-dasharray: none; stroke-linecap: butt; stroke-dashoffset: 0; stroke-linejoin: miter; stroke-miterlimit: 4; fill: rgb(63,61,86); fill-rule: nonzero; opacity: 1;" vector-effect="non-scaling-stroke"  transform=" translate(-972.13, -195.46)" d="M 900.59128 164.2202 C 898.7133234278617 164.61681491617193 897.2275218661425 166.0523409051149 896.7665223016296 167.91553807130157 C 896.3055227371166 169.77873523748823 896.9505132279577 171.74147016927668 898.42686 172.96802 L 920.43834 191.25662 C 920.7600597739523 191.52886727072226 921.0258291016912 191.86101949620414 921.2208800000001 192.23462 C 921.4023937747639 192.61203835886064 921.5044493382335 193.02271806060503 921.5207200000001 193.4412 L 922.8947900000001 226.98172 C 922.9457878730622 229.24050999519028 924.5367223562275 231.17067692076998 926.74423 231.65197 L 926.78323 231.66083 C 928.96321148339 232.1936217302963 931.2258366075275 231.17296580709117 932.26923 229.18613 L 940.20884 214.70675 C 940.7513382961475 213.735378855881 941.7853290682528 213.1423817679179 942.8977 213.16468 C 943.7097017095382 213.1688566312477 944.4830351213557 213.51208183539003 945.03088 214.11144000000002 L 983.13188 254.76655000000002 C 984.2478661013353 255.9647560613984 985.8825822703451 256.53614287644297 987.5020000000001 256.29405 C 989.115718587215 256.0538774461946 990.5119618593841 255.04422407208295 991.2455900000001 253.58698000000004 L 1047.112 141.81528 C 1047.9740402220882 140.0980324544086 1047.7762529958948 138.038783429738 1046.603110689074 136.51701156599353 C 1045.429968382253 134.99523970224905 1043.4888414058757 134.27994088774398 1041.60876 134.67661 L 1039.79963 135.05473 L 900.59123 164.22019 Z M 899.6991899999999 171.43194 C 898.8146126262028 170.69370492424042 898.4296868945079 169.51489726505895 898.708130676852 168.39689135389855 C 898.9865744591959 167.27888544273816 899.8794163832869 166.41831085860773 901.00691 166.18119 L 1040.17185 137.02623999999997 L 1042.02395 136.63751999999997 C 1043.1498570629522 136.40559349450197 1044.3094915407062 136.8356942531937 1045.0118578262363 137.74571525257156 C 1045.7142241117665 138.65573625194943 1045.8364715871962 139.88650606770452 1045.32684 140.91690999999997 L 989.4605 252.68857 C 989.0206479659917 253.56454267128132 988.1806574983366 254.17044413743764 987.2106471026815 254.3114326652477 C 986.2406367070264 254.45242119305777 985.262914560846 254.110719602031 984.59189 253.39621 L 946.4913 212.74133 C 946.1190022827931 212.33469830100202 945.6793662740137 211.99531816532158 945.19172 211.73811 C 944.4937707242756 211.36377810850385 943.7149996682228 211.1654655883369 942.9230200000001 211.16039 C 942.8114700000001 211.15554 942.6976400000001 211.16039 942.58342 211.16512 L 942.57388 211.16295 C 940.847595378951 211.25250718197904 939.2906565015189 212.22920622052442 938.45874 213.74446 L 930.51691 228.23356 C 929.8924041559665 229.4311063043174 928.5261902250816 230.04178740616086 927.21738 229.70841000000001 L 927.19785 229.70396000000002 C 925.8686852664932 229.4242742854164 924.9108503208265 228.2607573342065 924.89172 226.90262 L 923.51811 193.36220000000003 C 923.50719179342 193.00772948363965 923.4564496790529 192.65561067426827 923.36684 192.31248000000002 L 923.3690700000001 192.30273000000003 C 923.2841755727027 191.9733282547236 923.1644752039406 191.65389373473636 923.0119900000001 191.34982000000002 C 922.8665169932947 191.0525028920917 922.6897005731884 190.7715758481641 922.4845500000001 190.51182000000003 C 922.2570665288257 190.21987144629225 921.9974531631859 189.9544481942364 921.7106100000001 189.72056000000003 L 899.69919 171.432 Z" stroke-linecap="round" />
</g>
		<g transform="matrix(1 0 0 1 382.44 -274.57)"  >
<path style="stroke: none; stroke-width: 1; stroke-dasharray: none; stroke-linecap: butt; stroke-dashoffset: 0; stroke-linejoin: miter; stroke-miterlimit: 4; fill: rgb(63,61,86); fill-rule: nonzero; opacity: 1;" vector-effect="non-scaling-stroke"  transform=" translate(-982.44, -175.42)" d="M 922.48452 190.5118 L 1040.03316 138.0408 C 1040.1368447081481 137.99331070978002 1040.2449348765329 137.9560994501508 1040.3558799999998 137.9297 C 1041.2902148192566 137.69477335267936 1042.2594046809907 138.15845940759218 1042.6627623435063 139.03337350633944 C 1043.0661200060222 139.9082876050867 1042.7893039433393 140.94641409692153 1042.0038799999998 141.50433999999998 L 945.1916999999997 211.73809 L 943.4835199999998 212.97998 L 942.3137099999998 211.36018 L 942.5738899999998 211.16299 L 942.5834299999998 211.16516000000001 L 1040.8245599999998 139.88241000000002 L 923.369 192.30273 L 923.36677 192.31248 L 922.85507 192.53457 L 922.03973 190.70811 Z" stroke-linecap="round" />
</g>
		<g transform="matrix(1 0 0 1 207.62 -84.76)"  >
<path style="stroke: none; stroke-width: 1; stroke-dasharray: none; stroke-linecap: butt; stroke-dashoffset: 0; stroke-linejoin: miter; stroke-miterlimit: 4; fill: rgb(47,46,65); fill-rule: nonzero; opacity: 1;" vector-effect="non-scaling-stroke"  transform=" translate(-807.62, -365.23)" d="M 775.6201 349.73 C 772.5839571290236 349.73343329165624 770.1235332916563 352.1938571290237 770.1201 355.23 L 770.1201 375.23 C 770.1235277926525 378.2661451523788 772.5839548476212 380.7265722073475 775.6201 380.73 L 839.6201 380.73 C 842.6562451523788 380.7265722073475 845.1166722073474 378.26614515237884 845.1201 375.23 L 845.1201 355.23 C 845.1166722073474 352.19385484762125 842.6562451523788 349.73342779265255 839.6201 349.73 Z" stroke-linecap="round" />
</g>
		<g transform="matrix(1 0 0 1 208.87 -157.76)"  >
<path style="stroke: none; stroke-width: 1; stroke-dasharray: none; stroke-linecap: butt; stroke-dashoffset: 0; stroke-linejoin: miter; stroke-miterlimit: 4; fill: rgb(47,46,65); fill-rule: nonzero; opacity: 1;" vector-effect="non-scaling-stroke"  transform=" translate(-808.87, -292.23)" d="M 768.07437 248.27973 C 765.0189931237181 257.13670076559407 764.4492396001999 266.6616207314458 766.42701 275.81966 C 771.51338 300.75419999999997 769.61987 330.23127 764.6201 361.72998 C 764.6201 365.0437 766.92823 367.72998 769.77544 367.72998 L 847.96476 367.72998 C 850.81198 367.72998 853.1201 365.04369 853.1201 361.72998 L 853.1201 268.22998 C 853.1201 240.59998000000002 834.3376 217.98998 810.8461 216.78998 C 810.1932899999999 216.74998000000002 809.53167 216.72998 808.8701 216.72998 C 790.543 216.73 774.78458 229.76024 768.07437 248.27973 Z" stroke-linecap="round" />
</g>
		<g transform="matrix(1 0 0 1 206.86 -141.87)"  >
<path style="stroke: none; stroke-width: 1; stroke-dasharray: none; stroke-linecap: butt; stroke-dashoffset: 0; stroke-linejoin: miter; stroke-miterlimit: 4; fill: rgb(56,189,248); fill-rule: nonzero; opacity: 1;" vector-effect="non-scaling-stroke"  transform=" translate(-806.86, -308.12)" d="M 792.97631 369.63086 L 792.97631 253.99658 C 792.97631 246.33093394651854 799.1905439465186 240.11669999999998 806.85619 240.11669999999998 C 814.5218360534815 240.11669999999998 820.73607 246.33093394651854 820.73607 253.99658 L 820.73607 369.63086 C 820.7320139732215 373.2190294697171 817.8242394697172 376.12680397322146 814.23607 376.13086 L 799.47631 376.13086 C 795.8881405302828 376.12680397322146 792.9803660267786 373.2190294697171 792.97631 369.63086 Z" stroke-linecap="round" />
</g>
		<g transform="matrix(1 0 0 1 207.26 -191.91)"  >
<path style="stroke: none; stroke-width: 1; stroke-dasharray: none; stroke-linecap: butt; stroke-dashoffset: 0; stroke-linejoin: miter; stroke-miterlimit: 4; fill: rgb(47,46,65); fill-rule: nonzero; opacity: 1;" vector-effect="non-scaling-stroke"  transform=" translate(-807.26, -258.08)" d="M 816.71874 286.80762 L 795.73874 285.88428 C 792.1542215542337 285.72225955570866 789.3772235921896 282.6893728648218 789.53097 279.10449 L 791.0046100000001 245.63672 C 791.2582673108834 239.559223288882 794.7397674753915 234.08038434143563 800.134160022251 231.26954152203047 C 805.5285525691105 228.45869870262527 812.0136879983498 228.74424742342265 817.1401532736338 232.0183369283572 C 822.2666185489178 235.29242643329175 825.2530984756097 241.05605873028915 824.97161 247.13233 L 823.4982200000001 280.6001 C 823.3451479588458 284.0723860004906 820.4876559631208 286.8099079334863 817.012 286.814 Q 816.86584 286.814 816.71874 286.80762 Z" stroke-linecap="round" />
</g>
		<g transform="matrix(1 0 0 1 253.12 -156.26)"  >
<ellipse style="stroke: none; stroke-width: 1; stroke-dasharray: none; stroke-linecap: butt; stroke-dashoffset: 0; stroke-linejoin: miter; stroke-miterlimit: 4; fill: rgb(47,46,65); fill-rule: nonzero; opacity: 1;" vector-effect="non-scaling-stroke"  cx="0" cy="0" rx="4.5" ry="14.5" />
</g>
		<g transform="matrix(1 0 0 1 6.51 -0.76)"  >
<circle style="stroke: none; stroke-width: 1; stroke-dasharray: none; stroke-linecap: butt; stroke-dashoffset: 0; stroke-linejoin: miter; stroke-miterlimit: 4; fill: rgb(204,204,204); fill-rule: nonzero; opacity: 1;" vector-effect="non-scaling-stroke"  cx="0" cy="0" r="25" />
</g>
		<g transform="matrix(1 0 0 1 157.73 16.24)"  >
<path style="stroke: none; stroke-width: 1; stroke-dasharray: none; stroke-linecap: butt; stroke-dashoffset: 0; stroke-linejoin: miter; stroke-miterlimit: 4; fill: rgb(204,204,204); fill-rule: nonzero; opacity: 1;" vector-effect="non-scaling-stroke"  transform=" translate(-757.73, -466.23)" d="M 853.73431 474.23 L 661.73431 474.23 C 657.3160320013537 474.23 653.73431 470.6482779986464 653.73431 466.23 C 653.73431 461.81172200135364 657.3160320013537 458.23 661.73431 458.23 L 853.73431 458.23 C 858.1525879986464 458.23 861.73431 461.81172200135364 861.73431 466.23 C 861.73431 470.64827799864634 858.1525879986464 474.23 853.73431 474.23 Z" stroke-linecap="round" />
</g>
		<g transform="matrix(1 0 0 1 131.73 -17.76)"  >
<path style="stroke: none; stroke-width: 1; stroke-dasharray: none; stroke-linecap: butt; stroke-dashoffset: 0; stroke-linejoin: miter; stroke-miterlimit: 4; fill: rgb(204,204,204); fill-rule: nonzero; opacity: 1;" vector-effect="non-scaling-stroke"  transform=" translate(-731.73, -432.23)" d="M 801.73431 440.23 L 661.73431 440.23 C 657.3160320013537 440.23 653.73431 436.6482779986464 653.73431 432.23 C 653.73431 427.81172200135364 657.3160320013537 424.23 661.73431 424.23 L 801.73431 424.23 C 806.1525879986464 424.23 809.73431 427.81172200135364 809.73431 432.23 C 809.73431 436.64827799864634 806.1525879986464 440.23 801.73431 440.23 Z" stroke-linecap="round" />
</g>
		<g transform="matrix(1 0 0 1 6.51 94.24)"  >
<circle style="stroke: none; stroke-width: 1; stroke-dasharray: none; stroke-linecap: butt; stroke-dashoffset: 0; stroke-linejoin: miter; stroke-miterlimit: 4; fill: rgb(204,204,204); fill-rule: nonzero; opacity: 1;" vector-effect="non-scaling-stroke"  cx="0" cy="0" r="25" />
</g>
		<g transform="matrix(1 0 0 1 157.73 111.24)"  >
<path style="stroke: none; stroke-width: 1; stroke-dasharray: none; stroke-linecap: butt; stroke-dashoffset: 0; stroke-linejoin: miter; stroke-miterlimit: 4; fill: rgb(204,204,204); fill-rule: nonzero; opacity: 1;" vector-effect="non-scaling-stroke"  transform=" translate(-757.73, -561.23)" d="M 853.73431 569.23 L 661.73431 569.23 C 657.3160320013537 569.23 653.73431 565.6482779986463 653.73431 561.23 C 653.73431 556.8117220013537 657.3160320013537 553.23 661.73431 553.23 L 853.73431 553.23 C 858.1525879986464 553.23 861.73431 556.8117220013537 861.73431 561.23 C 861.73431 565.6482779986463 858.1525879986464 569.23 853.73431 569.23 Z" stroke-linecap="round" />
</g>
		<g transform="matrix(1 0 0 1 131.73 77.24)"  >
<path style="stroke: none; stroke-width: 1; stroke-dasharray: none; stroke-linecap: butt; stroke-dashoffset: 0; stroke-linejoin: miter; stroke-miterlimit: 4; fill: rgb(204,204,204); fill-rule: nonzero; opacity: 1;" vector-effect="non-scaling-stroke"  transform=" translate(-731.73, -527.23)" d="M 801.73431 535.23 L 661.73431 535.23 C 657.3160320013537 535.23 653.73431 531.6482779986463 653.73431 527.23 C 653.73431 522.8117220013537 657.3160320013537 519.23 661.73431 519.23 L 801.73431 519.23 C 806.1525879986464 519.23 809.73431 522.8117220013537 809.73431 527.23 C 809.73431 531.6482779986463 806.1525879986464 535.23 801.73431 535.23 Z" stroke-linecap="round" />
</g>
		<g transform="matrix(1 0 0 1 6.51 190.24)"  >
<circle style="stroke: none; stroke-width: 1; stroke-dasharray: none; stroke-linecap: butt; stroke-dashoffset: 0; stroke-linejoin: miter; stroke-miterlimit: 4; fill: rgb(204,204,204); fill-rule: nonzero; opacity: 1;" vector-effect="non-scaling-stroke"  cx="0" cy="0" r="25" />
</g>
		<g transform="matrix(1 0 0 1 157.73 207.24)"  >
<path style="stroke: none; stroke-width: 1; stroke-dasharray: none; stroke-linecap: butt; stroke-dashoffset: 0; stroke-linejoin: miter; stroke-miterlimit: 4; fill: rgb(204,204,204); fill-rule: nonzero; opacity: 1;" vector-effect="non-scaling-stroke"  transform=" translate(-757.73, -657.23)" d="M 853.73431 665.23 L 661.73431 665.23 C 657.3160320013537 665.23 653.73431 661.6482779986463 653.73431 657.23 C 653.73431 652.8117220013537 657.3160320013537 649.23 661.73431 649.23 L 853.73431 649.23 C 858.1525879986464 649.23 861.73431 652.8117220013537 861.73431 657.23 C 861.73431 661.6482779986463 858.1525879986464 665.23 853.73431 665.23 Z" stroke-linecap="round" />
</g>
		<g transform="matrix(1 0 0 1 131.73 173.24)"  >
<path style="stroke: none; stroke-width: 1; stroke-dasharray: none; stroke-linecap: butt; stroke-dashoffset: 0; stroke-linejoin: miter; stroke-miterlimit: 4; fill: rgb(204,204,204); fill-rule: nonzero; opacity: 1;" vector-effect="non-scaling-stroke"  transform=" translate(-731.73, -623.23)" d="M 801.73431 631.23 L 661.73431 631.23 C 657.3160320013537 631.23 653.73431 627.6482779986463 653.73431 623.23 C 653.73431 618.8117220013537 657.3160320013537 615.23 661.73431 615.23 L 801.73431 615.23 C 806.1525879986464 615.23 809.73431 618.8117220013537 809.73431 623.23 C 809.73431 627.6482779986463 806.1525879986464 631.23 801.73431 631.23 Z" stroke-linecap="round" />
</g>
		<g transform="matrix(1 0 0 1 121.62 94.74)"  >
<path style="stroke: none; stroke-width: 1; stroke-dasharray: none; stroke-linecap: butt; stroke-dashoffset: 0; stroke-linejoin: miter; stroke-miterlimit: 4; fill: rgb(63,61,86); fill-rule: nonzero; opacity: 1;" vector-effect="non-scaling-stroke"  transform=" translate(-721.62, -544.73)" d="M 920.6201 710.23 L 522.6201 710.23 C 513.2356364142748 710.2194409983967 505.63065900160325 702.6144635857252 505.6201 693.23 L 505.6201 396.23 C 505.6306645007007 386.84553869570186 513.2356386957018 379.2405645007007 522.6201 379.23 L 920.6201 379.23 C 930.0045613042981 379.2405645007007 937.6095354992992 386.84553869570186 937.6201 396.23 L 937.6201 693.23 C 937.6095409983967 702.6144635857252 930.0045635857251 710.2194409983967 920.6201 710.23 Z M 522.6201 381.23 C 514.3397124258788 381.23936852176996 507.6294685217699 387.9496124258789 507.6201 396.23 L 507.6201 693.23 C 507.6294685217699 701.5103875741212 514.3397124258788 708.2206314782301 522.6201 708.23 L 920.6201 708.23 C 928.9004875741211 708.2206314782301 935.61073147823 701.5103875741212 935.6201 693.23 L 935.6201 396.23 C 935.61073147823 387.9496124258789 928.9004875741211 381.23936852176996 920.6201 381.23 Z" stroke-linecap="round" />
</g>
		<g transform="matrix(1 0 0 1 -87.38 -65.76)"  >
<circle style="stroke: none; stroke-width: 1; stroke-dasharray: none; stroke-linecap: butt; stroke-dashoffset: 0; stroke-linejoin: miter; stroke-miterlimit: 4; fill: rgb(56,189,248); fill-rule: nonzero; opacity: 1;" vector-effect="non-scaling-stroke"  cx="0" cy="0" r="56" />
</g>
		<g transform="matrix(1 0 0 1 -87.66 -65.7)"  >
<path style="stroke: none; stroke-width: 1; stroke-dasharray: none; stroke-linecap: butt; stroke-dashoffset: 0; stroke-linejoin: miter; stroke-miterlimit: 4; fill: rgb(255,255,255); fill-rule: nonzero; opacity: 1;" vector-effect="non-scaling-stroke"  transform=" translate(-512.34, -384.3)" d="M 507.06922 405.59268 C 505.8092862349195 405.5950409876478 504.58275361092046 405.1876217641823 503.57464 404.43188 L 503.51214999999996 404.38495 L 490.35176 394.3089 C 487.78852915617034 392.34493953109296 487.30272453109296 388.67492584382967 489.266685 386.111695 C 491.230645468907 383.5484641561703 494.9006591561703 383.06265953109295 497.46389 385.02662 L 505.98818 391.56293 L 526.13245 365.29187 C 527.0759841190776 364.0612695473032 528.469744161678 363.25590809531224 530.0070957649779 363.05296929697 C 531.5444473682777 362.8500304986277 533.099448165414 363.2661394334128 534.32999 364.20975000000004 L 534.2047399999999 364.37981 L 534.3332399999999 364.21223000000003 C 536.892361934847 366.17907678530105 537.3764465101541 369.84628887435997 535.4153499999999 372.40982 L 511.72087999999985 403.31088 C 510.61011903159573 404.7541829972268 508.89045251637225 405.59773885780925 507.06922 405.59268 Z" stroke-linecap="round" />
</g>
		<g transform="matrix(1 0 0 1 -139.72 231.35)"  >
<path style="stroke: none; stroke-width: 1; stroke-dasharray: none; stroke-linecap: butt; stroke-dashoffset: 0; stroke-linejoin: miter; stroke-miterlimit: 4; fill: rgb(56,189,248); fill-rule: nonzero; opacity: 1;" vector-effect="non-scaling-stroke"  transform=" translate(-460.28, -681.34)" d="M 512.19029 719.06738 C 511.205781915613 719.0681823397385 510.23241264360786 718.8591098664667 509.33507000000003 718.4540999999999 L 509.335 718.4540999999999 L 403.83068 671.124 C 399.13972490295276 669.0236596219715 395.9265072469263 664.5792496108494 395.4024307493427 659.466341118536 C 394.8783542517592 654.3534326262226 397.12311832478366 649.3495758828273 401.29043247897556 646.3412570555814 C 405.45774663316746 643.3329382283355 410.91386276128 642.7776501512852 415.60179 644.88474 L 521.10643 692.21433 C 522.8003329768541 692.9740564371309 524.123025058485 694.3756117079681 524.7834890522736 696.1106272315815 C 525.4439530460621 697.8456427551948 525.3880789073636 699.7719733604247 524.6281600000001 701.46579 L 518.58716 714.93259 C 517.4533471583385 717.4487368855436 514.9500954915411 719.0667813290538 512.19029 719.06738 Z" stroke-linecap="round" />
</g>
		<g transform="matrix(1 0 0 1 -256.14 397.24)"  >
<path style="stroke: none; stroke-width: 1; stroke-dasharray: none; stroke-linecap: butt; stroke-dashoffset: 0; stroke-linejoin: miter; stroke-miterlimit: 4; fill: rgb(63,61,86); fill-rule: nonzero; opacity: 1;" vector-effect="non-scaling-stroke"  transform=" translate(-343.86, -847.23)" d="M 534.35632 848.23 L 153.35631999999998 848.23 C 152.8040352501692 848.23 152.35631999999998 847.7822847498309 152.35631999999998 847.23 C 152.35631999999998 846.6777152501692 152.8040352501692 846.23 153.35631999999998 846.23 L 534.35632 846.23 C 534.9086047498308 846.23 535.35632 846.6777152501692 535.35632 847.23 C 535.35632 847.7822847498309 534.9086047498308 848.23 534.35632 848.23 Z" stroke-linecap="round" />
</g>
</g>
</g>
<g transform="matrix(0.35 0 0 0.35 205.08 704.55)"  >
<g style="" vector-effect="non-scaling-stroke"   >
		<g transform="matrix(1 0 0 1 -73.45 96.8)"  >
<path style="stroke: none; stroke-width: 1; stroke-dasharray: none; stroke-linecap: butt; stroke-dashoffset: 0; stroke-linejoin: miter; stroke-miterlimit: 4; fill: rgb(240,240,240); fill-rule: nonzero; opacity: 1;" vector-effect="non-scaling-stroke"  transform=" translate(-526.55, -545.95)" d="M 465.59076 496.88433 C 498.18982 439.53909999999996 560.373 395.50739 626.1991399999999 399.74915999999996 C 577.6438322848722 452.5509268095396 549.3302165260918 520.8255625169653 546.26779 592.4933100000001 C 545.18693 620.1368399999999 546.8630899999999 650.99565 528.50861 671.6948 C 517.0882799999999 684.57454 499.63196999999997 690.81223 482.46860999999996 692.1208 C 465.30441999999994 693.42898 448.14421999999996 690.32793 431.20941999999997 687.2400200000001 L 427.10141999999996 688.50102 C 425.53748 622.55617 432.9917 554.22955 465.59076 496.88433 Z" stroke-linecap="round" />
</g>
		<g transform="matrix(1 0 0 1 -72.97 93.44)"  >
<path style="stroke: none; stroke-width: 1; stroke-dasharray: none; stroke-linecap: butt; stroke-dashoffset: 0; stroke-linejoin: miter; stroke-miterlimit: 4; fill: rgb(255,255,255); fill-rule: nonzero; opacity: 1;" vector-effect="non-scaling-stroke"  transform=" translate(-527.03, -542.59)" d="M 626.29714 401.1298 C 577.6195 424.56328 536.113 463.69962 510.63332 511.42944 C 505.12469000000004 521.74852 500.43468 532.6958 498.38883000000004 544.27062 C 496.34206000000006 555.85062 497.77171000000004 566.8737600000001 501.72693000000004 577.87226 C 505.34281000000004 587.9271 510.20584 597.79338 511.31457000000006 608.5521 C 512.48323 619.89235 508.31073000000004 630.49574 500.79990000000004 638.9111 C 491.61019000000005 649.20754 479.26890000000003 655.58792 466.98323000000005 661.40799 C 453.34239 667.87005 439.0714300000001 674.36599 429.40985000000006 686.42656 C 428.23921000000007 687.88787 426.04021000000006 685.98599 427.2090800000001 684.52689 C 444.0185800000001 663.54359 472.7922200000001 659.59915 492.7452200000001 642.69609 C 502.05565000000007 634.80881 509.04557000000005 624.06793 508.60444000000007 611.48256 C 508.2186900000001 600.4771900000001 503.2125900000001 590.29871 499.46344000000005 580.14961 C 495.52678000000003 569.49288 493.56361000000004 558.77778 494.97535000000005 547.41605 C 496.41948 535.7936400000001 500.69135000000006 524.63993 505.91204000000005 514.22528 C 517.68588 490.73773 533.79885 469.17437 552.2570400000001 450.53413 C 573.4708530011287 429.107808338016 598.1935997914296 411.4682743058761 625.35564 398.3787100000001 C 627.0371300000002 397.56924000000004 627.9676400000001 400.3256 626.2971400000001 401.12979 Z" stroke-linecap="round" />
</g>
		<g transform="matrix(1 0 0 1 -88.66 21.54)"  >
<path style="stroke: none; stroke-width: 1; stroke-dasharray: none; stroke-linecap: butt; stroke-dashoffset: 0; stroke-linejoin: miter; stroke-miterlimit: 4; fill: rgb(255,255,255); fill-rule: nonzero; opacity: 1;" vector-effect="non-scaling-stroke"  transform=" translate(-511.34, -470.69)" d="M 518.09691 495.47812 C 502.6843296075582 484.2083999098818 497.7055547834174 463.43227042324577 506.33608 446.40088 C 507.18733 444.73524999999995 509.81561999999997 445.97979 508.96324 447.64763999999997 C 500.89424774057613 463.49828007545074 505.5770266507243 482.8644777693654 519.99658 493.27734999999996 C 521.51191 494.37434999999994 519.60358 496.56883999999997 518.09691 495.47811999999993 Z" stroke-linecap="round" />
</g>
		<g transform="matrix(1 0 0 1 -76.37 111.51)"  >
<path style="stroke: none; stroke-width: 1; stroke-dasharray: none; stroke-linecap: butt; stroke-dashoffset: 0; stroke-linejoin: miter; stroke-miterlimit: 4; fill: rgb(255,255,255); fill-rule: nonzero; opacity: 1;" vector-effect="non-scaling-stroke"  transform=" translate(-523.63, -560.66)" d="M 499.22208 573.01552 C 517.9211946641537 570.2832576066841 534.9034959137001 560.6034649403936 546.7827 545.9063 C 547.95847 544.44919 550.15782 546.3506199999999 548.98347 547.80597 C 536.593155288644 563.0771294650597 518.8999835393479 573.1145311344981 499.435 575.915 C 497.57953 576.18065 497.37669 573.27976 499.22209 573.0155599999999 Z" stroke-linecap="round" />
</g>
		<g transform="matrix(1 0 0 1 -15.68 -11.54)"  >
<path style="stroke: none; stroke-width: 1; stroke-dasharray: none; stroke-linecap: butt; stroke-dashoffset: 0; stroke-linejoin: miter; stroke-miterlimit: 4; fill: rgb(255,255,255); fill-rule: nonzero; opacity: 1;" vector-effect="non-scaling-stroke"  transform=" translate(-584.32, -437.61)" d="M 574.90706 432.68514 C 579.8786452988073 438.19598716089433 587.2880971821237 440.8375764313821 594.62468 439.71479 C 596.47587 439.42579 596.67673 442.32709 594.83759 442.61424 C 586.7296195312066 443.81648292894886 578.5529267056434 440.92176916248843 573.00739 434.88590999999997 C 572.4243630256386 434.3491543036767 572.3584732141488 433.4518536772228 572.85684 432.83568999999994 C 573.3833766346003 432.23186796741675 574.2979681399546 432.16470846690896 574.90706 432.68513999999993 Z" stroke-linecap="round" />
</g>
		<g transform="matrix(1 0 0 1 -9.23 190.42)"  >
<path style="stroke: none; stroke-width: 1; stroke-dasharray: none; stroke-linecap: butt; stroke-dashoffset: 0; stroke-linejoin: miter; stroke-miterlimit: 4; fill: rgb(240,240,240); fill-rule: nonzero; opacity: 1;" vector-effect="non-scaling-stroke"  transform=" translate(-590.77, -639.57)" d="M 757.17329 580.65231 C 756.0225099999999 580.86567 754.87172 581.07902 753.71042 581.3146 C 738.253794964216 584.2630889060312 723.0622535473134 588.4624146798168 708.2856999999999 593.8711400000001 C 707.13661 594.2711400000001 705.97811 594.6938600000001 704.8429100000001 595.12607 C 669.381772519507 608.5363936760092 636.7185552954313 628.4138105393448 608.5136799999999 653.7478600000002 C 597.2995657398449 663.8391911981289 586.8694473431168 674.7690650823786 577.31362 686.4428600000001 C 564.11752 702.5655700000001 551.09241 721.0966500000001 533.8484100000001 731.6089700000001 C 532.061662117717 732.7259100585106 530.2074452221939 733.7311046828469 528.29641 734.6187800000001 L 428.95855000000006 693.4147800000002 C 428.77979000000005 693.2078400000001 428.59055000000006 693.0230000000001 428.41069000000005 692.8156000000001 L 424.36921000000007 691.3518100000001 C 424.82000000000005 690.7153200000001 425.3012100000001 690.0648700000002 425.75200000000007 689.4283800000001 C 426.01200000000006 689.05808 426.29400000000004 688.6969600000001 426.5540000000001 688.3266500000001 C 426.7343200000001 688.0826500000001 426.9157900000001 687.8390600000001 427.0645600000001 687.6086500000001 C 427.1242700000001 687.5272200000002 427.1851000000001 687.4462600000002 427.2354600000001 687.3873800000001 C 427.3842300000001 687.1569200000001 427.5468800000001 686.9586600000001 427.6862400000001 686.7508900000001 Q 431.7059900000001 681.2859700000001 435.8165300000001 675.8585500000002 C 435.8259400000001 675.8358700000001 435.8259400000001 675.8358700000001 435.8575300000001 675.8223600000001 C 456.8081400000001 648.3061100000001 480.2399700000001 622.2971700000002 506.8745300000001 600.6715600000001 C 507.6760800000001 600.0211900000002 508.4859400000001 599.3476800000001 509.3328700000001 598.7161300000001 C 521.3925927064722 589.0349331420932 534.2233984994468 580.3555871404592 547.69715 572.7647700000002 C 555.0883151314432 568.632003164425 562.6839590470527 564.8760564634609 570.4549200000001 561.5113500000001 C 590.5506085982763 552.8560448580131 611.8826506077548 547.4155036411837 633.6689999999999 545.38918 C 677.10048 541.35618 721.33832 551.25818 754.64879 578.54272 C 755.50038 579.24131 756.33106 579.931 757.17329 580.65231 Z" stroke-linecap="round" />
</g>
		<g transform="matrix(1 0 0 1 -7.96 186.47)"  >
<path style="stroke: none; stroke-width: 1; stroke-dasharray: none; stroke-linecap: butt; stroke-dashoffset: 0; stroke-linejoin: miter; stroke-miterlimit: 4; fill: rgb(255,255,255); fill-rule: nonzero; opacity: 1;" vector-effect="non-scaling-stroke"  transform=" translate(-592.04, -635.62)" d="M 756.427 581.82048 C 703.452 571.22348 646.7486200000001 577.4818799999999 597.66791 600.2509699999999 C 587.05678 605.17359 576.72105 611.0906799999999 568.11871 619.10078 C 559.51252 627.11447 554.0173199999999 636.77657 550.55349 647.93957 C 547.38685 658.14481 545.32949 668.95037 539.7373 678.20813 C 533.84279 687.9662999999999 524.1273 693.92038 513.0637 696.11754 C 499.52707000000004 698.80584 485.83177000000006 696.46988 472.51830000000007 693.72007 C 457.73624000000007 690.6669499999999 442.4306700000001 687.2615 427.45515000000006 691.0742399999999 C 425.6406600000001 691.5362399999999 425.02994000000007 688.6937099999999 426.8416900000001 688.2324399999999 C 452.8965300000001 681.5989299999999 478.2455100000001 695.7732399999999 504.3536900000001 694.2901699999999 C 516.5362400000001 693.5981699999999 528.58405 689.2305699999998 535.8091000000001 678.9162599999999 C 542.1271 669.8968399999999 544.2581 658.7558699999998 547.3751000000001 648.3951399999999 C 550.64799 637.5161999999998 555.53173 627.7788199999999 563.4994700000001 619.5571399999999 C 571.6500300000001 611.1467699999998 581.7762000000001 604.8131399999999 592.21495 599.6408099999999 C 615.7568200000001 587.9759799999998 641.60476 580.4599699999999 667.5653000000001 576.6898799999999 C 697.4034692832228 572.3543442562308 727.7634175198361 573.1549639616044 757.3316100000001 579.0571 C 759.1615400000001 579.4231599999998 758.24499 582.1841999999999 756.4270100000001 581.8205299999998 Z" stroke-linecap="round" />
</g>
		<g transform="matrix(1 0 0 1 23.54 120.18)"  >
<path style="stroke: none; stroke-width: 1; stroke-dasharray: none; stroke-linecap: butt; stroke-dashoffset: 0; stroke-linejoin: miter; stroke-miterlimit: 4; fill: rgb(255,255,255); fill-rule: nonzero; opacity: 1;" vector-effect="non-scaling-stroke"  transform=" translate(-623.54, -569.33)" d="M 613.231 592.00833 C 607.7100536588033 573.7306518683594 616.2434474924664 554.1445014991344 633.38852 545.74207 C 635.07101 544.92466 636.42026 547.50078 634.73552 548.31927 C 618.7497030747649 556.117028817362 610.8288526353921 574.3992086048983 616.0727899999999 591.39487 C 616.62223 593.18309 613.77729 593.7863199999999 613.231 592.00833 Z" stroke-linecap="round" />
</g>
		<g transform="matrix(1 0 0 1 -21.66 199.37)"  >
<path style="stroke: none; stroke-width: 1; stroke-dasharray: none; stroke-linecap: butt; stroke-dashoffset: 0; stroke-linejoin: miter; stroke-miterlimit: 4; fill: rgb(255,255,255); fill-rule: nonzero; opacity: 1;" vector-effect="non-scaling-stroke"  transform=" translate(-578.34, -648.52)" d="M 551.4776 642.55365 C 568.052806503258 651.6302455250171 587.4401241750654 654.1259898398955 605.77371 649.54323 C 607.58978 649.08771 608.20105 651.9300499999999 606.3871700000001 652.38503 C 587.2999050641515 657.1183484476301 567.1296980926351 654.480128009218 549.9019300000001 644.99688 C 548.2605000000001 644.0918800000001 549.84508 641.65354 551.4776 642.5536500000001 Z" stroke-linecap="round" />
</g>
		<g transform="matrix(1 0 0 1 101.07 136.41)"  >
<path style="stroke: none; stroke-width: 1; stroke-dasharray: none; stroke-linecap: butt; stroke-dashoffset: 0; stroke-linejoin: miter; stroke-miterlimit: 4; fill: rgb(255,255,255); fill-rule: nonzero; opacity: 1;" vector-effect="non-scaling-stroke"  transform=" translate(-701.07, -585.56)" d="M 696.3964 576.07528 C 697.0480164338524 583.4686192921725 701.3736263221258 590.0387828067767 707.90747 593.55943 C 709.55956 594.4432 707.97314 596.88068 706.3318 596.00267 C 699.1342069665782 592.0810338782435 694.3483946542299 584.8468320191637 693.5546 576.6887399999999 C 693.4122534187459 575.9091477357772 693.899880153208 575.153034597514 694.66877 574.96111 C 695.4527240202219 574.7960018050055 696.2234107913731 575.2930272559491 696.3964 576.0752799999999 Z" stroke-linecap="round" />
</g>
		<g transform="matrix(1 0 0 1 -250.87 171.37)"  >
<path style="stroke: none; stroke-width: 1; stroke-dasharray: none; stroke-linecap: butt; stroke-dashoffset: 0; stroke-linejoin: miter; stroke-miterlimit: 4; fill: rgb(63,61,86); fill-rule: nonzero; opacity: 1;" vector-effect="non-scaling-stroke"  transform=" translate(-349.13, -620.52)" d="M 567.94141 648.63076 C 554.02941 581.36386 536.63941 558.93691 536.63941 558.93691 L 529.99598 553.78506 L 522.0067200000001 547.57925 L 522.0453000000001 546.7814 L 520.1504000000001 546.13729 L 519.7052700000002 545.79153 L 518.9758400000002 545.23147 L 518.8585300000002 545.3574699999999 L 518.6108500000003 545.61394 L 482.4585100000003 533.32524 L 436.59315000000026 517.7459 L 415.35455 490.14 C 408.34251545140376 481.0257386749293 397.4670101623467 475.7210306216793 385.96783 475.80613999999997 L 318.13867 476.30803 C 308.9673534458398 476.3759020820941 300.1531654432667 479.872106670571 293.42895 486.10929999999996 L 248.84589 527.4634199999999 L 179.37689 560.6412799999999 L 179.25964 560.5240299999999 L 178.53015 561.04509 L 167.79657 566.17741 L 168.2395 568.48302 L 161.59607 573.27678 C 161.59607 573.27678 144.20607 594.1447800000001 130.29401 656.73578 C 126.75493999999999 672.66178 125.01287999999998 706.82557 124.38408999999999 748.92408 C 124.32029140382969 753.2258502802162 125.9841589777815 757.3735507986963 129.00319924366534 760.4386272541207 C 132.02223950954917 763.503703709545 136.14428685224465 765.2301453098393 140.44653 765.23145 L 511.49408 765.23145 L 511.49408 765.23139 L 557.8056 765.23139 C 562.1047241329082 765.2293603229047 566.2238210463449 763.5049962740204 569.2422547159803 760.4437006966946 C 572.2606883856157 757.3824051193687 573.9268049027512 753.2394054202744 573.8682200000001 748.94068 C 573.25409 703.131 571.51269 665.902 567.94141 648.63076 Z" stroke-linecap="round" />
</g>
		<g transform="matrix(1 0 0 1 218.37 -202.99)"  >
<path style="stroke: none; stroke-width: 1; stroke-dasharray: none; stroke-linecap: butt; stroke-dashoffset: 0; stroke-linejoin: miter; stroke-miterlimit: 4; fill: rgb(229,229,229); fill-rule: nonzero; opacity: 1;" vector-effect="non-scaling-stroke"  transform=" translate(-818.37, -246.16)" d="M 615.54847 191.73153 C 585.4872078988425 191.73153 561.1177399999999 216.10099789884254 561.1177399999999 246.16226 C 561.1177399999999 276.22352210115747 585.4872078988425 300.59299 615.54847 300.59299 L 1021.187 300.59299 C 1051.2482621011575 300.59299 1075.61773 276.22352210115747 1075.61773 246.16226 C 1075.61773 216.10099789884254 1051.2482621011575 191.73153 1021.187 191.73153 Z" stroke-linecap="round" />
</g>
		<g transform="matrix(1 0 0 1 218.37 -202.99)"  >
<path style="stroke: none; stroke-width: 1; stroke-dasharray: none; stroke-linecap: butt; stroke-dashoffset: 0; stroke-linejoin: miter; stroke-miterlimit: 4; fill: rgb(255,255,255); fill-rule: nonzero; opacity: 1;" vector-effect="non-scaling-stroke"  transform=" translate(-818.37, -246.16)" d="M 615.54847 202.74727 C 591.5710275860961 202.74727 572.13347 222.1848275860961 572.13347 246.16226999999998 C 572.13347 270.1397124139039 591.5710275860961 289.57727 615.54847 289.57727 L 1021.187 289.57727 C 1045.1644421393937 289.5772696117841 1064.601999297073 270.1397121393938 1064.601999297073 246.16227 C 1064.601999297073 222.18482786060622 1045.1644421393937 202.7472703882159 1021.187 202.74727000000001 Z" stroke-linecap="round" />
</g>
		<g transform="matrix(1 0 0 1 -237.29 -87.69)" id="e096411a-cdc3-4e6d-bbd4-4630e1fee17e"  >
<circle style="stroke: none; stroke-width: 1; stroke-dasharray: none; stroke-linecap: butt; stroke-dashoffset: 0; stroke-linejoin: miter; stroke-miterlimit: 4; fill: rgb(158,97,106); fill-rule: nonzero; opacity: 1;" vector-effect="non-scaling-stroke"  cx="0" cy="0" r="88.86282" />
</g>
		<g transform="matrix(1 0 0 1 -260.6 -4.44)"  >
<path style="stroke: none; stroke-width: 1; stroke-dasharray: none; stroke-linecap: butt; stroke-dashoffset: 0; stroke-linejoin: miter; stroke-miterlimit: 4; fill: rgb(47,46,65); fill-rule: nonzero; opacity: 1;" vector-effect="non-scaling-stroke"  transform=" translate(-339.4, -444.71)" d="M 339.97228 445.973 Q 339.40283 444.71924 338.83654 443.45682 C 338.98205 443.46148 339.12608 443.48241 339.27154 443.48622 Z" stroke-linecap="round" />
</g>
		<g transform="matrix(1 0 0 1 -243.04 -110.46)"  >
<path style="stroke: none; stroke-width: 1; stroke-dasharray: none; stroke-linecap: butt; stroke-dashoffset: 0; stroke-linejoin: miter; stroke-miterlimit: 4; fill: rgb(47,46,65); fill-rule: nonzero; opacity: 1;" vector-effect="non-scaling-stroke"  transform=" translate(-356.96, -338.69)" d="M 271.37112 276.63954 C 275.86557 273.05424 281.11848000000003 269.75535 286.86485000000005 269.94077 C 292.61098000000004 270.12595999999996 298.43809000000005 275.31584 297.24760000000003 280.94050999999996 C 319.03395591896435 242.3658874468947 365.365017085904 224.99297688467385 407.14284000000004 239.73272999999995 C 421.42467000000005 244.77146999999994 435.43021000000005 254.85192999999995 438.71093 269.63687999999996 C 439.55313 273.43220999999994 439.73393000000004 277.59376999999995 442.10367 280.67573 C 445.09153000000003 284.56146 450.80822 285.44048 455.51546 284.07353 Q 455.58608000000004 284.05303 455.65646000000004 284.03199 C 457.28353666934527 283.4763565741386 459.0849518222089 283.9688830444814 460.2029891827258 285.2750604644173 C 461.32102654324274 286.58123788435324 461.52971867063957 288.43707367259464 460.72970000000004 289.95894 L 456.68870000000004 297.49544 C 461.78267027294453 298.6308856472066 467.0756074377604 298.51832324872487 472.11670000000004 297.16733999999997 C 473.8326421032298 296.71728281191656 475.6461803192836 297.3952421666834 476.64608859536787 298.8605722365312 C 477.6459968714521 300.325902306379 477.61608803176375 302.2617884624099 476.57139000000006 303.69552999999996 C 463.2466600000001 321.98967999999996 440.98532000000006 333.80307999999997 418.26812000000007 333.66425999999996 C 402.12221000000005 333.56579999999997 385.80998000000005 328.00116999999995 370.0963300000001 331.71413999999993 C 357.78398722695755 334.62337264886133 347.4489274759882 342.94696588246455 341.9824090542342 354.35637408406376 C 336.5158906324802 365.7657822856629 336.5048993334507 379.0358818921443 341.9525100000001 390.4543299999999 C 337.12518000000006 385.1742799999999 327.7935100000001 386.42432999999994 322.8555100000001 391.6013299999999 C 317.9177700000001 396.7783299999999 316.6393900000001 404.5051799999999 317.1369800000001 411.6421799999999 C 317.8977500000001 422.5579499999999 322.17457000000013 432.8436199999999 326.6832800000001 442.85438999999985 C 288.8820500000001 441.66438999999986 253.12828000000007 415.14738999999986 241.0935100000001 379.28249999999986 C 229.00827 343.26738 241.674 300.32986 271.37112 276.63954 Z" stroke-linecap="round" />
</g>
		<g transform="matrix(1 0 0 1 -368.21 247.63)"  >
<polygon style="stroke: none; stroke-width: 1; stroke-dasharray: none; stroke-linecap: butt; stroke-dashoffset: 0; stroke-linejoin: miter; stroke-miterlimit: 4; fill: rgb(0,0,0); fill-rule: nonzero; opacity: 0.2;" vector-effect="non-scaling-stroke"  points="-19.94,-68.45 4.98,67.15 19.94,68.45 -19.94,-68.45 " />
</g>
		<g transform="matrix(1 0 0 1 -133.55 242.51)"  >
<polygon style="stroke: none; stroke-width: 1; stroke-dasharray: none; stroke-linecap: butt; stroke-dashoffset: 0; stroke-linejoin: miter; stroke-miterlimit: 4; fill: rgb(0,0,0); fill-rule: nonzero; opacity: 0.2;" vector-effect="non-scaling-stroke"  points="19.94,-73.57 -4.98,72.17 -19.94,73.57 19.94,-73.57 " />
</g>
		<g transform="matrix(1 0 0 1 -329.61 -266.75)"  >
<path style="stroke: none; stroke-width: 1; stroke-dasharray: none; stroke-linecap: butt; stroke-dashoffset: 0; stroke-linejoin: miter; stroke-miterlimit: 4; fill: rgb(56,189,248); fill-rule: nonzero; opacity: 1;" vector-effect="non-scaling-stroke"  transform=" translate(-270.39, -182.4)" d="M 292.62933 231.00135 C 287.85051 232.99682 282.86401 230.80991 280.77277 225.80174 C 278.64955 220.71698 280.63259999999997 215.55526 285.48802 213.52781 C 290.3439 211.50017 295.24161 213.69241 297.39902 218.85917999999998 C 299.52417 223.94845 297.5627 228.94135 292.62933 231.00135 Z M 283.47514 203.51935 L 279.67542000000003 205.10598000000002 C 277.7074929881365 205.91794055067658 275.4455476160979 205.08831321803723 274.46930000000003 203.19650000000001 L 274.2814 202.82889 C 270.19294 195.45552 269.7248 186.49422 272.8974 176.20795 C 275.8364 166.98064000000002 277.0571 160.49112000000002 274.60217 154.61195 C 271.76381 147.81454 265.70287 145.68524000000002 257.97379 148.76977 C 254.9761 150.0215 254.0222 150.00155999999998 251.66315 152.34177 C 250.62631746829294 153.38280215518142 249.2110296414177 153.95792322333267 247.74193 153.93520999999998 C 246.32173242346857 153.91848954129364 244.96927302263845 153.32547814442086 243.9948 152.29220999999998 C 242.06689243039898 150.24735342934648 242.05079677023227 147.05909762575843 243.95795999999999 144.99488 C 247.9231423968008 140.84411988282295 252.7056601760691 137.56033254299075 258.0037 135.35075 C 274.61017 128.41646 282.96995999999996 138.65395 286.79552 147.81554 C 290.53735 156.77662 288.43252 165.091 285.05052 175.85895 C 282.21636 184.80647 282.38144 191.43645999999998 285.60085 198.02872 C 286.070534401616 199.03575199640179 286.1092633196013 200.1907668199917 285.7080918333781 201.2269995725815 C 285.30692034715486 202.26323232517126 284.5005420714299 203.09106881158607 283.4752 203.51931 Z" stroke-linecap="round" />
</g>
		<g transform="matrix(1 0 0 1 64.78 -178.97)"  >
<path style="stroke: none; stroke-width: 1; stroke-dasharray: none; stroke-linecap: butt; stroke-dashoffset: 0; stroke-linejoin: miter; stroke-miterlimit: 4; fill: rgb(56,189,248); fill-rule: nonzero; opacity: 1;" vector-effect="non-scaling-stroke"  transform=" translate(-664.78, -270.18)" d="M 705.14883 272.122 L 624.44183 272.122 C 623.7441704518725 272.12674705437934 623.0974656380054 271.75727302361105 622.7472583202502 271.15386088070244 C 622.3970510024952 270.55044873779383 622.3970510024952 269.8056412622062 622.7472583202502 269.2022291192976 C 623.0974656380054 268.598816976389 623.7441704518725 268.2293429456207 624.44183 268.23409000000004 L 705.14883 268.23409000000004 C 706.2172848821343 268.24136004086876 707.079602831934 269.1095653845412 707.079602831934 270.178045 C 707.079602831934 271.24652461545884 706.2172848821343 272.1147299591313 705.14883 272.122 Z" stroke-linecap="round" />
</g>
		<g transform="matrix(1 0 0 1 167.18 -178.32)"  >
<path style="stroke: none; stroke-width: 1; stroke-dasharray: none; stroke-linecap: butt; stroke-dashoffset: 0; stroke-linejoin: miter; stroke-miterlimit: 4; fill: rgb(56,189,248); fill-rule: nonzero; opacity: 1;" vector-effect="non-scaling-stroke"  transform=" translate(-767.18, -270.83)" d="M 807.53044 272.76994 L 726.82344 272.76994 C 726.1257804518725 272.77468705437934 725.4790756380054 272.40521302361105 725.1288683202503 271.80180088070244 C 724.7786610024953 271.19838873779383 724.7786610024953 270.4535812622062 725.1288683202503 269.8501691192976 C 725.4790756380054 269.246756976389 726.1257804518725 268.8772829456207 726.82344 268.88203000000004 L 807.53044 268.88203000000004 C 808.2280995481275 268.8772829456207 808.8748043619946 269.246756976389 809.2250116797497 269.8501691192976 C 809.5752189975047 270.4535812622062 809.5752189975047 271.19838873779383 809.2250116797497 271.80180088070244 C 808.8748043619946 272.40521302361105 808.2280995481275 272.77468705437934 807.53044 272.76994 Z" stroke-linecap="round" />
</g>
		<g transform="matrix(1 0 0 1 269.57 -177.68)"  >
<path style="stroke: none; stroke-width: 1; stroke-dasharray: none; stroke-linecap: butt; stroke-dashoffset: 0; stroke-linejoin: miter; stroke-miterlimit: 4; fill: rgb(56,189,248); fill-rule: nonzero; opacity: 1;" vector-effect="non-scaling-stroke"  transform=" translate(-869.57, -271.47)" d="M 909.91205 273.41793 L 829.205 273.41793 C 828.1365451178657 273.4106599591313 827.274227168066 272.54245461545884 827.274227168066 271.473975 C 827.274227168066 270.4054953845412 828.1365451178657 269.53729004086875 829.205 269.53002000000004 L 909.912 269.53002000000004 C 910.6096595481275 269.5252729456207 911.2563643619947 269.894746976389 911.6065716797498 270.4981591192976 C 911.9567789975048 271.1015712622062 911.9567789975048 271.8463787377938 911.6065716797498 272.44979088070244 C 911.2563643619947 273.05320302361105 910.6096595481275 273.42267705437934 909.912 273.41793 Z" stroke-linecap="round" />
</g>
		<g transform="matrix(1 0 0 1 371.94 -177.03)"  >
<path style="stroke: none; stroke-width: 1; stroke-dasharray: none; stroke-linecap: butt; stroke-dashoffset: 0; stroke-linejoin: miter; stroke-miterlimit: 4; fill: rgb(56,189,248); fill-rule: nonzero; opacity: 1;" vector-effect="non-scaling-stroke"  transform=" translate(-971.94, -272.12)" d="M 1012.29367 274.06591 L 931.58667 274.06591 C 930.5182151178657 274.05863995913126 929.655897168066 273.1904346154588 929.655897168066 272.12195499999996 C 929.655897168066 271.0534753845412 930.5182151178657 270.1852700408687 931.58667 270.178 L 1012.29367 270.178 C 1013.3621248821344 270.1852700408687 1014.2244428319341 271.0534753845412 1014.2244428319341 272.12195499999996 C 1014.2244428319341 273.1904346154588 1013.3621248821344 274.05863995913126 1012.29367 274.06591 Z" stroke-linecap="round" />
</g>
		<g transform="matrix(1 0 0 1 64.62 -209.92)"  >
<circle style="stroke: none; stroke-width: 1; stroke-dasharray: none; stroke-linecap: butt; stroke-dashoffset: 0; stroke-linejoin: miter; stroke-miterlimit: 4; fill: rgb(56,189,248); fill-rule: nonzero; opacity: 1;" vector-effect="non-scaling-stroke"  cx="0" cy="0" r="15" />
</g>
		<g transform="matrix(1 0 0 1 167.62 -209.92)"  >
<circle style="stroke: none; stroke-width: 1; stroke-dasharray: none; stroke-linecap: butt; stroke-dashoffset: 0; stroke-linejoin: miter; stroke-miterlimit: 4; fill: rgb(56,189,248); fill-rule: nonzero; opacity: 1;" vector-effect="non-scaling-stroke"  cx="0" cy="0" r="15" />
</g>
		<g transform="matrix(1 0 0 1 270.62 -209.92)"  >
<circle style="stroke: none; stroke-width: 1; stroke-dasharray: none; stroke-linecap: butt; stroke-dashoffset: 0; stroke-linejoin: miter; stroke-miterlimit: 4; fill: rgb(56,189,248); fill-rule: nonzero; opacity: 1;" vector-effect="non-scaling-stroke"  cx="0" cy="0" r="15" />
</g>
		<g transform="matrix(1 0 0 1 373.62 -209.92)"  >
<circle style="stroke: none; stroke-width: 1; stroke-dasharray: none; stroke-linecap: butt; stroke-dashoffset: 0; stroke-linejoin: miter; stroke-miterlimit: 4; fill: rgb(56,189,248); fill-rule: nonzero; opacity: 1;" vector-effect="non-scaling-stroke"  cx="0" cy="0" r="15" />
</g>
</g>
</g>
</svg>