<svg id="_0077_marketing" xmlns="http://www.w3.org/2000/svg" xmlns:xlink="http://www.w3.org/1999/xlink" viewBox="0 0 500 500" data-imageid="marketing-74" imageName="Marketing" class="illustrations_image" style="width: 166px;"><defs><style>.cls-1_marketing-74{opacity:.18;}.cls-1_marketing-74,.cls-2_marketing-74{isolation:isolate;}.cls-1_marketing-74,.cls-2_marketing-74,.cls-3_marketing-74,.cls-4_marketing-74,.cls-5_marketing-74,.cls-6_marketing-74,.cls-7_marketing-74,.cls-8_marketing-74,.cls-9_marketing-74,.cls-10_marketing-74,.cls-11_marketing-74,.cls-12_marketing-74,.cls-13_marketing-74{stroke-width:0px;}.cls-1_marketing-74,.cls-13_marketing-74{fill:#68e1fd;}.cls-14_marketing-74{fill:none;stroke:#fff;stroke-linecap:round;stroke-miterlimit:10;stroke-width:3.49px;}.cls-2_marketing-74{fill:url(#linear-gradient);opacity:.69;}.cls-3_marketing-74{fill:url(#linear-gradient-4-marketing-74);}.cls-4_marketing-74{fill:url(#linear-gradient-2-marketing-74);}.cls-5_marketing-74{fill:url(#linear-gradient-3-marketing-74);}.cls-6_marketing-74{fill:url(#linear-gradient-8-marketing-74);}.cls-7_marketing-74{fill:url(#linear-gradient-7-marketing-74);}.cls-8_marketing-74{fill:url(#linear-gradient-5-marketing-74);}.cls-9_marketing-74{fill:url(#linear-gradient-6-marketing-74);}.cls-10_marketing-74{fill:#231f20;}.cls-11_marketing-74{fill:#fff;}.cls-12_marketing-74{fill:#ffb4a3;}</style><linearGradient id="linear-gradient-marketing-74" x1="227.1" y1="2491.7" x2="284.12" y2="2641.13" gradientTransform="translate(-33.16 2945.35) scale(1 -1)" gradientUnits="userSpaceOnUse"><stop offset=".02" stop-color="#fff" stop-opacity="0"/><stop offset=".58" stop-color="#fff" stop-opacity=".39"/><stop offset=".68" stop-color="#fff" stop-opacity=".68"/><stop offset="1" stop-color="#fff"/></linearGradient><linearGradient id="linear-gradient-2-marketing-74" x1="275.9" y1="2783.27" x2="266.74" y2="2503.99" gradientTransform="translate(-33.16 2945.35) scale(1 -1)" gradientUnits="userSpaceOnUse"><stop offset="0" stop-color="#231f20" stop-opacity="0"/><stop offset="1" stop-color="#231f20"/></linearGradient><linearGradient id="linear-gradient-3-marketing-74" x1="276.65" y1="2515.67" x2="435.27" y2="2820.16" xlink:href="#linear-gradient-2-marketing-74"/><linearGradient id="linear-gradient-4-marketing-74" x1="462.55" y1="2826.37" x2="318.36" y2="2770.44" xlink:href="#linear-gradient-2-marketing-74"/><linearGradient id="linear-gradient-5-marketing-74" x1="489.77" y1="2731.22" x2="439.96" y2="2606.21" gradientTransform="translate(-31 2945.64) scale(1 -1)" xlink:href="#linear-gradient-2-marketing-74"/><linearGradient id="linear-gradient-6-marketing-74" x1="295.07" y1="2772.89" x2="281.31" y2="2763.28" gradientTransform="translate(-1737.27 2117.76) rotate(39.74) scale(1 -1)" xlink:href="#linear-gradient-2-marketing-74"/><linearGradient id="linear-gradient-7-marketing-74" x1="280.92" y1="2664.92" x2="25.34" y2="2603.6" xlink:href="#linear-gradient-2-marketing-74"/><linearGradient id="linear-gradient-8-marketing-74" x1="325.15" y1="2726.38" x2="322.73" y2="2652.32" xlink:href="#linear-gradient-2-marketing-74"/></defs><path id="background_marketing-74" class="cls-1_marketing-74 targetColor" d="M188.41,57.72c-22.85,20.61-38.18,49.63-60.84,71.02-10.59,10-22.69,18.24-34.73,26.43-18.5,12.58-47.08,25.23-60.61,43.26-10.49,14-18.33,36.22-21.94,53-6.9,32.07,1.28,72.77,27.1,95.06,13.28,11.44,24.59,17.59,34.16,33.47,8.46,14.06,14.77,30.51,27.12,41.8,11.69,10.69,27.72,16.53,42.59,21.13,56.74,17.55,118.22,19.54,175.97,5.68,9.39-2.25,19.06-5.12,26.17-11.66,7.01-6.45,10.67-15.68,16.2-23.43,15.7-21.99,44.41-29.97,65.33-47.06,13.69-11.19,23.8-26.11,32.68-41.4,12.03-20.71,22.32-43,25.13-66.79s-2.71-49.42-18.98-67.01c-15.17-16.41-36.9-23.92-56.43-33.62-21.66-10.76-33.54-24.42-47.76-43.23-14.22-18.79-24.69-40.64-41.87-56.76-30.38-28.52-80.54-33.07-115.56-10.5-4.91,3.17-9.46,6.73-13.75,10.6Z" style="fill: rgb(104, 225, 253);"/><g id="message_marketing-74"><path class="cls-13_marketing-74 targetColor" d="M96.67,239.35v184.17s0,12.45,12.45,13.77c12.45,1.32,260.85,0,260.85,0,0,0,9.18.65,13.77-11.83,4.59-12.48,0-186.14,0-186.14l-287.06.03Z" style="fill: rgb(104, 225, 253);"/><path class="cls-2_marketing-74" d="M96.67,239.35v184.17s0,12.45,12.45,13.77c12.45,1.32,260.85,0,260.85,0,0,0,9.18.65,13.77-11.83,4.59-12.48,0-186.14,0-186.14l-287.06.03Z"/><path class="cls-13_marketing-74 targetColor" d="M244.13,113.52l-147.46,125.83,98.6,84.86c6.16,5.3,14.01,8.21,22.13,8.21h49.5c5.61,0,11.03-2.01,15.28-5.67l101.55-87.4-139.6-125.83Z" style="fill: rgb(104, 225, 253);"/><path class="cls-4_marketing-74" d="M244.13,113.52l-147.46,125.83,97.19,83.66c7.05,6.07,16.05,9.41,25.35,9.41h45.52c7.03,0,13.83-2.52,19.16-7.11l99.85-85.96-139.6-125.83Z"/><path class="cls-13_marketing-74 targetColor" d="M109.12,437.29l77.98-85.46c11.28-12.38,27.25-19.43,44-19.44h17.98c16.89,0,32.98,7.17,44.27,19.72l76.62,85.15-260.85.03Z" style="fill: rgb(104, 225, 253);"/><path class="cls-5_marketing-74" d="M109.12,437.29l77.62-85.07c11.51-12.61,27.8-19.8,44.87-19.8h16.9c17.22,0,33.64,7.31,45.16,20.11l76.27,84.75H109.12Z"/></g><g id="pie_chart_marketing-74"><path class="cls-13_marketing-74 targetColor" d="M417.82,154.15c.01,21.72-17.58,39.33-39.3,39.34-21.72.01-39.33-17.58-39.34-39.3-.01-20.71,16.03-37.87,36.69-39.26v39.21h41.95Z" style="fill: rgb(104, 225, 253);"/><path class="cls-13_marketing-74 targetColor" d="M422.08,149.59h-41.95v-39.25c.85-.07,1.74-.09,2.62-.09,21.72,0,39.33,17.61,39.33,39.33v.02Z" style="fill: rgb(104, 225, 253);"/><path class="cls-3_marketing-74" d="M422.08,149.59h-41.95v-39.25c.85-.07,1.74-.09,2.62-.09,21.72,0,39.33,17.61,39.33,39.33v.02Z"/></g><g id="video_marketing-74"><rect class="cls-13_marketing-74 targetColor" x="416.07" y="219.69" width="65.98" height="46.31" rx="10.81" ry="10.81" style="fill: rgb(104, 225, 253);"/><polygon class="cls-8_marketing-74" points="438.12 233.24 438.12 253.78 460.85 242.2 438.12 233.24"/></g><g id="stars_marketing-74"><polygon class="cls-13_marketing-74 targetColor" points="451.4 163.5 450.74 173.49 441.73 178.73 451.56 183.65 452.55 194.46 461.56 184.47 471.56 185.45 466.8 178.07 468.61 167.43 459.27 171.19 451.4 163.5" style="fill: rgb(104, 225, 253);"/><polygon class="cls-13_marketing-74 targetColor" points="120.26 94.02 119.61 104.02 110.59 109.26 120.43 114.18 121.41 124.98 130.42 115 140.42 115.98 135.67 108.61 137.47 97.95 128.13 101.72 120.26 94.02" style="fill: rgb(104, 225, 253);"/></g><g id="data_marketing-74"><rect class="cls-13_marketing-74 targetColor" x="18.02" y="148.58" width="9.18" height="29.49" style="fill: rgb(104, 225, 253);"/><rect class="cls-13_marketing-74 targetColor" x="30.96" y="160.33" width="9.18" height="17.75" style="fill: rgb(104, 225, 253);"/><rect class="cls-13_marketing-74 targetColor" x="43.91" y="153.79" width="9.18" height="24.28" style="fill: rgb(104, 225, 253);"/></g><g id="character_marketing-74"><path class="cls-12_marketing-74" d="M124.25,179.61c-1.93-2.99-2.4-6.66-3.6-10.01-1.2-3.36-3.63-6.76-7.17-7.14s-6.66,2.38-8.87,5.21c-1.27,1.5-2.25,3.22-2.91,5.07-1.61,5.19,1.28,10.7,6.47,12.31.3.09.6.17.91.24,1.77.37,3.68.27,5.31,1.07,1.1.66,2.1,1.47,2.97,2.42,2.05,1.92,4.68,3.52,7.49,3.34,2.48-.17,5.7-2.7,4.98-5.5-.68-2.59-4.13-4.76-5.58-7Z"/><path class="cls-13_marketing-74 targetColor" d="M308.03,211.28c-.04.23-.08.46-.12.69-1.99,11.14-7.95,21.17-16.79,28.23-4.84,3.85-10.67,6.91-13.6,12.36-1.84,3.38-2.32,7.36-2.69,11.23-2.2,22.61-3.14,44.72-.67,67.31l-6.76,1.32h-27.8c-2.69,0-11.06.72-18.54.7h-.04c-5.92,0-11.33-.54-12.8-2.26-.05-.06-.1-.12-.14-.19-.07-.09-.13-.19-.18-.29-.07-.12-.14-.24-.21-.37s-.15-.3-.23-.46l-.08-.15c-1.98-4.48-1.8-12.25-2.26-16.61-.64-6.2-1.05-12.45-1.74-18.65-1.44-12.57-4.31-25.46-11.99-35.49-1.11-1.44-3.14-3.69-5.7-6.41-9.13-9.64-25.14-25.08-31.27-30.48-.99-.85-35.66-27.64-35.98-28.91-.85-3.67,9.36-8.59,10.99-11.97,11.41,6.56,56.44,38.95,67.84,45.52,5.53,3.18,11.14,6.4,17.33,7.93,13.02,3.22,26.57-1.41,39.2-5.98,8.66-3.14,20.23-7.93,29.33-13.52,3.93-2.41,9.91-7.13,4.34-6.91-9.36.36-19.39-.34-27.1.06-.81.17-1.66-.03-2.31-.55-.4-.58-.56-1.29-.44-1.99.35-6.81-.79-7,1.34-13.48,8.23,2.03,18.07.24,26.54.34,9.07.1,12.85-1.23,18.63,4.96,1.53,1.53,2.73,3.37,3.52,5.38,1.01,2.74.82,5.76.37,8.65Z" style="fill: rgb(104, 225, 253);"/><path class="cls-12_marketing-74" d="M219.87,235.25c2.2,3.58,1.58,5.92,4.88,8.51,1.55,1.23,8.16,2.54,10.75.57,3.23-2.48,2.85-9.54,2.91-10.02.02-.8-.16-1.59-.52-2.3-1.07-2.32-2.01-4.71-2.82-7.13-.82-2.45-.93-5.09-.33-7.61-1.43-1.41-3.38-2.16-5.39-2.08-1.89.25-3.68.96-5.23,2.07-1.21.85-4.97-5.21-5.75-3.97-.68,1.12,1.45,19.01,1.5,21.96Z"/><path class="cls-12_marketing-74" d="M218.16,210.05s3.53,17.39,10.38,21.36c6.85,3.96,9.79,1.55,9.79,1.55l-5.21-13.19-14.96-9.72Z"/><path class="cls-12_marketing-74" d="M230.61,225.04c1.4.18,2.81.09,4.17-.27,3.38-1.11,5-5.27,4.58-9.3-.42-4.02-2.47-7.9-4.73-11.43-2.82-4.41-6.06-8.53-9.68-12.31-1.93-2.19-4.21-4.04-6.76-5.48-3.39-1.75-7.37-1.97-10.93-.6-3.35,1.43-6.07,4.01-7.68,7.28-1.76,3.31-2.41,7.11-1.84,10.82,2.29,14.29,22.29,20.44,32.87,21.3Z"/><path class="cls-11_marketing-74" d="M241.64,201.71c-1.19.74-2.76.41-4-.25-1.82-.97-3.2-2.59-3.86-4.55-.64-1.98-.39-4.14.68-5.92.85-1.3,2.1-2.38,2.37-3.89,0,0,9.92-7.86,11.67-19,1.75-11.14,13.11-.85,13.11-.85,0,0,12.57,11.16,6.64,18.03-1.2,1.29-3.01,1.85-4.73,1.45-2.54-.49-7.53-.1-14.72,6.65l-7.16,8.31Z"/><path class="cls-12_marketing-74" d="M248.8,193.4c-1.3-.18-2.61-.04-3.85.4-1.32.73-2.38,1.85-3.04,3.2-.62.95-1,2.04-1.1,3.17-.04,1.51.77,2.9,1.56,4.18.44.86,1.07,1.61,1.86,2.18.83.42,1.74.65,2.67.67,1.52.15,3.17.26,4.47-.55.5-.41,1.03-.77,1.59-1.09,1.6-.66,3.75.62,5-.57.52-.65.79-1.47.74-2.31l.31-4.91c.09-1.39.7-2.84-.77-3.34-2.7-.91-6.61-1.04-9.46-1.04Z"/><path class="cls-11_marketing-74" d="M251.12,203.31s9.84,10.05,12.68,10.05-3.94,9.62-7.21,7.87-9.68-14.02-9.68-14.02c0,0,1.82-3.79,2.75-4.12.49-.21,1.06-.13,1.47.22Z"/><ellipse class="cls-13_marketing-74 targetColor" cx="259.74" cy="173.96" rx="5.24" ry="12.73" transform="translate(-51.2 206.25) rotate(-39.74)" style="fill: rgb(104, 225, 253);"/><ellipse class="cls-9_marketing-74" cx="259.74" cy="173.96" rx="5.24" ry="12.73" transform="translate(-51.2 206.25) rotate(-39.74)"/><path class="cls-10_marketing-74" d="M218.67,183.28c-.78,3.06-2.53,5.79-5,7.77-1.42,1.21-3.01,2.22-4.4,3.46-1.47,1.18-2.55,2.77-3.11,4.56-.44,2.29.02,4.65,1.28,6.61,1.25,1.93,2.63,3.77,4.12,5.51.41.39.6.96.5,1.51-.21.59-.97.76-1.6.72-.76-.05-1.5-.28-2.15-.66-.35-.25-.75-.43-1.17-.52-.76.03-1.36.65-1.39,1.4,0,.74.25,1.46.72,2.03,1.49,2.07,3.83,3.38,6.37,3.57.15.52-.15,1.06-.67,1.21h0c-.51.12-1.05.09-1.55-.1-1.31-.37-2.59-.85-3.85-1.33l-4.91-1.85c-1.96-.73-3.92-1.45-5.85-2.26-1.51-.51-2.88-1.36-4.01-2.48-1.21-1.39-1.69-3.28-1.96-5.07-.42-1.76-.41-3.59.05-5.34.54-1.62,1.77-3.02,1.9-4.72s-.96-3.38-1.78-4.94c-.95-1.83-1.56-3.97-.95-5.92.55-1.53,1.65-2.8,3.08-3.57,1.42-.76,2.97-1.26,4.56-1.48,1.39-.25,2.88-.44,3.94-1.38,2.42-2.13,1.14-6.76,3.68-8.7,2.71-2.1,7.06.56,9.59,1.95,3.63,1.89,5.5,6,4.56,9.98Z"/><line class="cls-14_marketing-74" x1="270.68" y1="145.31" x2="265.43" y2="154.81"/><line class="cls-14_marketing-74" x1="281.66" y1="154.16" x2="271.99" y2="161.04"/><line class="cls-14_marketing-74" x1="288.86" y1="166.28" x2="276.74" y2="169.55"/><path class="cls-7_marketing-74" d="M227.75,331.98c-2.2.5-4.43.88-6.68,1.14h-.04c-4.77.53-10.7.53-12.8-2.26-.05-.06-.1-.12-.14-.19-.07-.09-.13-.19-.18-.29-.07-.12-.14-.24-.21-.37s-.15-.3-.23-.46l-.08-.15c-1.98-4.48-1.8-12.25-2.26-16.61-.64-6.2-1.05-12.45-1.74-18.65-1.44-12.57-4.31-25.46-11.99-35.49-1.11-1.44-5.76-6.76-8.33-9.44l3.61,1.53s28.4,12.23,31.01,23.59c2.62,11.37,10.05,57.65,10.05,57.65Z"/><path class="cls-6_marketing-74" d="M307.91,211.97c-1.99,11.14-7.95,21.17-16.79,28.23-4.84,3.85-10.67,6.91-13.6,12.36-1.84,3.38-2.32,7.36-2.69,11.23,0,0,.92-18.48,7.48-24.6,6.56-6.12,23.66-24.3,24.96-32.6.36,1.77.58,3.57.64,5.38Z"/></g></svg>