<svg version="1.1" id="Layer_1" xmlns="http://www.w3.org/2000/svg" xmlns:xlink="http://www.w3.org/1999/xlink" x="0px" y="0px" viewBox="0 0 500 500" style="width: 166px;" xml:space="preserve" data-imageid="city-2-38" imageName="City 2" class="illustrations_image">
<style type="text/css">
	.st0_city-2-38{fill:#C4C4C4;}
	.st1_city-2-38{fill:#999999;}
	.st2_city-2-38{fill:#68E1FD;}
	.st3_city-2-38{opacity:0.33;fill:#1E4549;enable-background:new    ;}
	.st4_city-2-38{fill:#1E4549;}
	.st5_city-2-38{fill:#E0E0E0;}
	.st6_city-2-38{fill:url(#SVGID_1_);}
	.st7_city-2-38{fill:#AAAAAA;}
	.st8_city-2-38{fill:#3C637A;}
	.st9_city-2-38{fill:url(#SVGID_00000061471337872712181560000013510917961762860220_);}
	.st10_city-2-38{fill:url(#SVGID_00000081624769916718208970000004230897060169713815_);}
	.st11_city-2-38{fill:#BC532A;}
	.st12_city-2-38{fill:#2C9135;}
	.st13_city-2-38{fill:#156819;}
</style>
<g id="streets_city-2-38">
	<path class="st0_city-2-38" d="M257,444.1l220.2-130.1c7-3.9,13-10.4,6.2-14.6l-221-127.4c-3.3-2-8.4-3.4-11.7-1.4L19.5,304.6&#10;&#9;&#9;c-7,4.1-8.3,15.5-1.2,19.5L228,443.9C236.9,449.1,248,449.1,257,444.1z"/>
	<path class="st1_city-2-38" d="M419.7,261.8c0,0-63.8,30.6-20.3,97.4l-20.2,11.9c0,0-53.3-73.2,22.7-119.5L419.7,261.8z"/>
	<polygon class="st1_city-2-38" points="113.7,378.3 366.8,231.3 384.4,241.5 132,388.3 &#9;"/>
	<path class="st1_city-2-38" d="M272.5,306.5c0,0-39.6,57.8-52.8,131.9l-24.6-14c0,0,23.8-77.6,46.6-105.7L272.5,306.5z"/>
	<path class="st1_city-2-38" d="M95.3,259.2c-5,4-12.6,7.4-17.9,11l116.2,66.7l17.9-10.2L95.3,259.2z"/>
	<path class="st1_city-2-38" d="M195.5,202.6c-6.5,3.2-11.3,6.4-18,9.3l120.6,70.2l17.9-10.2L195.5,202.6z"/>
</g>
<g id="building5_city-2-38">
	<polygon class="st2_city-2-38 targetColor" points="270,242.7 270,85.2 304.3,104.4 304.3,262.5 &#9;" style="fill: rgb(104, 225, 253);"/>
	<polygon class="st3_city-2-38" points="270,242.7 270,85.2 304.3,104.4 304.3,262.5 &#9;"/>
	<polygon class="st2_city-2-38 targetColor" points="304.3,104.4 339.2,85.2 339.2,242.1 304.3,262.5 &#9;" style="fill: rgb(104, 225, 253);"/>
	<polygon class="st0_city-2-38" points="270,85.2 304.3,64.2 339.2,85.2 304.3,104.4 &#9;"/>
	<polygon class="st4_city-2-38" points="339.2,85.2 304.3,104.4 270,85.2 270,89.9 304.3,108.8 339.2,89.6 &#9;"/>
	<polygon class="st5_city-2-38" points="335,105.5 335,98.2 330.6,100.6 330.6,107.6 &#9;"/>
	<polygon class="st5_city-2-38" points="324.1,111.4 324.1,104 319.8,106.4 319.8,113.5 &#9;"/>
	<polygon class="st5_city-2-38" points="312.8,118.3 312.8,111 308.4,113.4 308.4,120.5 &#9;"/>
	<polygon class="st5_city-2-38" points="335,131.9 335,124.5 330.6,126.9 330.6,134 &#9;"/>
	<polygon class="st5_city-2-38" points="324.1,137.8 324.1,130.4 319.8,132.8 319.8,139.9 &#9;"/>
	<polygon class="st5_city-2-38" points="312.8,144.7 312.8,137.4 308.4,139.8 308.4,146.8 &#9;"/>
	<polygon class="st5_city-2-38" points="335,162.1 335,154.7 330.6,157.1 330.6,164.2 &#9;"/>
	<polygon class="st5_city-2-38" points="324.1,167.9 324.1,160.6 319.8,163 319.8,170.1 &#9;"/>
	<polygon class="st5_city-2-38" points="312.8,174.9 312.8,167.5 308.4,169.9 308.4,177 &#9;"/>
	<polygon class="st5_city-2-38" points="335,191.9 335,184.6 330.6,187 330.6,194.1 &#9;"/>
	<polygon class="st5_city-2-38" points="324.1,197.8 324.1,190.5 319.8,192.9 319.8,199.9 &#9;"/>
	<polygon class="st5_city-2-38" points="312.8,204.8 312.8,197.4 308.4,199.8 308.4,206.9 &#9;"/>
	<polygon class="st5_city-2-38" points="335,221.8 335,214.5 330.6,216.9 330.6,223.9 &#9;"/>
	<polygon class="st5_city-2-38" points="324.1,227.7 324.1,220.3 319.8,222.7 319.8,229.8 &#9;"/>
	<polygon class="st5_city-2-38" points="312.8,234.6 312.8,227.3 308.4,229.7 308.4,236.8 &#9;"/>
	<polygon class="st5_city-2-38" points="272,105.6 272,98.2 276.3,100.6 276.3,107.7 &#9;"/>
	<polygon class="st5_city-2-38" points="282.9,111.5 282.9,104.1 287.2,106.5 287.2,113.6 &#9;"/>
	<polygon class="st5_city-2-38" points="294.2,118.4 294.2,111.1 298.5,113.5 298.5,120.5 &#9;"/>
	<polygon class="st5_city-2-38" points="272,132 272,124.6 276.3,127 276.3,134.1 &#9;"/>
	<polygon class="st5_city-2-38" points="282.9,137.9 282.9,130.5 287.2,132.9 287.2,140 &#9;"/>
	<polygon class="st5_city-2-38" points="294.2,144.8 294.2,137.4 298.5,139.8 298.5,146.9 &#9;"/>
	<polygon class="st5_city-2-38" points="272,162.1 272,154.8 276.3,157.2 276.3,164.3 &#9;"/>
	<polygon class="st5_city-2-38" points="282.9,168 282.9,160.7 287.2,163.1 287.2,170.1 &#9;"/>
	<polygon class="st5_city-2-38" points="294.2,175 294.2,167.6 298.5,170 298.5,177.1 &#9;"/>
	<polygon class="st5_city-2-38" points="272,192 272,184.7 276.3,187.1 276.3,194.1 &#9;"/>
	<polygon class="st5_city-2-38" points="282.9,197.9 282.9,190.6 287.2,192.9 287.2,200 &#9;"/>
	<polygon class="st5_city-2-38" points="294.2,204.9 294.2,197.5 298.5,199.9 298.5,207 &#9;"/>
	<polygon class="st5_city-2-38" points="272,221.9 272,214.5 276.3,216.9 276.3,224 &#9;"/>
	<polygon class="st5_city-2-38" points="282.9,227.8 282.9,220.4 287.2,222.8 287.2,229.9 &#9;"/>
	<polygon class="st5_city-2-38" points="294.2,234.7 294.2,227.4 298.5,229.8 298.5,236.8 &#9;"/>
	<polygon class="st4_city-2-38" points="339.2,139.8 304,158 270,140.1 270,147.4 304.3,165.3 339.2,147.4 &#9;"/>
	<polygon class="st4_city-2-38" points="339.2,170.1 304,188.2 270,170.4 270,177.6 304.3,195.5 339.2,177.6 &#9;"/>
	<polygon class="st4_city-2-38" points="339.2,199.9 304,218.1 270,200.2 270,207.5 304.3,225.4 339.2,207.5 &#9;"/>
	<polygon class="st4_city-2-38" points="338.9,227.4 303.7,245.6 269.7,227.7 269.7,235 304,252.8 338.9,235 &#9;"/>
	<polygon class="st4_city-2-38" points="339.2,111 304,129.2 270,111.3 270,118.6 304.3,136.4 339.2,118.6 &#9;"/>
</g>
<g id="building4_city-2-38">
	
		<linearGradient id="SVGID_1_-city-2-38" gradientUnits="userSpaceOnUse" x1="115.5177" y1="167.7219" x2="89.8677" y2="136.0219" gradientTransform="matrix(1 0 0 -1 0 502)">
		<stop offset="0" style="stop-color:#999999"/>
		<stop offset="1" style="stop-color:#C4C4C4"/>
	</linearGradient>
	<polyline class="st6_city-2-38" points="105.3,316 57.1,345.6 106.1,374.2 157.3,343.6 &#9;"/>
	<polygon class="st2_city-2-38 targetColor" points="88.1,344.3 88.1,186.8 122.4,205.9 122.4,364.1 &#9;" style="fill: rgb(104, 225, 253);"/>
	<polygon class="st3_city-2-38" points="88.1,344.3 88.1,186.8 122.4,205.9 122.4,364.1 &#9;"/>
	<polygon class="st2_city-2-38 targetColor" points="122.4,205.9 157.3,186.8 157.3,343.6 122.4,364.1 &#9;" style="fill: rgb(104, 225, 253);"/>
	<polygon class="st0_city-2-38" points="88.1,186.8 122.4,165.7 157.3,186.8 122.4,205.9 &#9;"/>
	<polygon class="st4_city-2-38" points="157.3,186.8 122.4,205.9 88.1,186.8 88.1,191.4 122.4,210.3 157.3,191.1 &#9;"/>
	<polygon class="st5_city-2-38" points="153.1,207.1 153.1,199.7 148.8,202.1 148.8,209.2 &#9;"/>
	<polygon class="st5_city-2-38" points="142.2,212.9 142.2,205.6 137.9,208 137.9,215.1 &#9;"/>
	<polygon class="st5_city-2-38" points="130.9,219.9 130.9,212.5 126.6,214.9 126.6,222 &#9;"/>
	<polygon class="st5_city-2-38" points="153.1,233.4 153.1,226.1 148.8,228.5 148.8,235.5 &#9;"/>
	<polygon class="st5_city-2-38" points="142.2,239.3 142.2,231.9 137.9,234.4 137.9,241.4 &#9;"/>
	<polygon class="st5_city-2-38" points="130.9,246.3 130.9,238.9 126.6,241.3 126.6,248.4 &#9;"/>
	<polygon class="st5_city-2-38" points="153.1,263.6 153.1,256.2 148.8,258.6 148.8,265.7 &#9;"/>
	<polygon class="st5_city-2-38" points="142.2,269.5 142.2,262.1 137.9,264.5 137.9,271.6 &#9;"/>
	<polygon class="st5_city-2-38" points="130.9,276.4 130.9,269.1 126.6,271.5 126.6,278.5 &#9;"/>
	<polygon class="st5_city-2-38" points="153.1,293.5 153.1,286.1 148.8,288.5 148.8,295.6 &#9;"/>
	<polygon class="st5_city-2-38" points="142.2,299.4 142.2,292 137.9,294.4 137.9,301.5 &#9;"/>
	<polygon class="st5_city-2-38" points="130.9,306.3 130.9,299 126.6,301.4 126.6,308.4 &#9;"/>
	<polygon class="st5_city-2-38" points="153.1,323.4 153.1,316 148.8,318.4 148.8,325.5 &#9;"/>
	<polygon class="st5_city-2-38" points="142.2,329.2 142.2,321.9 137.9,324.3 137.9,331.4 &#9;"/>
	<polygon class="st5_city-2-38" points="130.9,336.2 130.9,328.8 126.6,331.2 126.6,338.3 &#9;"/>
	<polygon class="st5_city-2-38" points="90.1,207.1 90.1,199.8 94.4,202.2 94.4,209.2 &#9;"/>
	<polygon class="st5_city-2-38" points="100.9,213 100.9,205.7 105.3,208.1 105.3,215.1 &#9;"/>
	<polygon class="st5_city-2-38" points="112.3,220 112.3,212.6 116.6,215 116.6,222.1 &#9;"/>
	<polygon class="st5_city-2-38" points="90.1,233.5 90.1,226.1 94.4,228.6 94.4,235.6 &#9;"/>
	<polygon class="st5_city-2-38" points="100.9,239.4 100.9,232 105.3,234.4 105.3,241.5 &#9;"/>
	<polygon class="st5_city-2-38" points="112.3,246.3 112.3,239 116.6,241.4 116.6,248.4 &#9;"/>
	<polygon class="st5_city-2-38" points="90.1,263.7 90.1,256.3 94.4,258.7 94.4,265.8 &#9;"/>
	<polygon class="st5_city-2-38" points="100.9,269.6 100.9,262.2 105.3,264.6 105.3,271.7 &#9;"/>
	<polygon class="st5_city-2-38" points="112.3,276.5 112.3,269.2 116.6,271.6 116.6,278.6 &#9;"/>
	<polygon class="st5_city-2-38" points="90.1,293.6 90.1,286.2 94.4,288.6 94.4,295.7 &#9;"/>
	<polygon class="st5_city-2-38" points="100.9,299.4 100.9,292.1 105.3,294.5 105.3,301.5 &#9;"/>
	<polygon class="st5_city-2-38" points="112.3,306.4 112.3,299 116.6,301.4 116.6,308.5 &#9;"/>
	<polygon class="st5_city-2-38" points="90.1,323.4 90.1,316.1 94.4,318.5 94.4,325.5 &#9;"/>
	<polygon class="st5_city-2-38" points="100.9,329.3 100.9,322 105.3,324.4 105.3,331.4 &#9;"/>
	<polygon class="st5_city-2-38" points="112.3,336.3 112.3,328.9 116.6,331.3 116.6,338.4 &#9;"/>
	<polygon class="st4_city-2-38" points="157.3,241.4 122.1,259.6 88.1,241.7 88.1,249 122.4,266.8 157.3,249 &#9;"/>
	<polygon class="st4_city-2-38" points="157.3,271.6 122.1,289.8 88.1,271.9 88.1,279.2 122.4,297 157.3,279.2 &#9;"/>
	<polygon class="st4_city-2-38" points="157.3,301.5 122.1,319.7 88.1,301.8 88.1,309.1 122.4,326.9 157.3,309.1 &#9;"/>
	<polygon class="st4_city-2-38" points="157,328.9 121.8,347.1 87.8,329.2 87.8,336.5 122.1,354.4 157,336.5 &#9;"/>
	<polygon class="st4_city-2-38" points="157.3,212.5 122.1,230.7 88.1,212.8 88.1,220.1 122.4,238 157.3,220.1 &#9;"/>
</g>
<g id="building3_city-2-38">
	<polyline class="st7_city-2-38" points="168,252 168,231.9 259,228.1 259,248.3 &#9;"/>
	<path class="st7_city-2-38" d="M168,293.5c1,0.3,42,24.3,42,24.3l49-28.1l-42.4-24.1L168,293.5z"/>
	<path class="st7_city-2-38" d="M168,231.9c1,0.3,42,24.3,42,24.3l49-28.1L216.6,204L168,231.9z"/>
	<polygon class="st7_city-2-38" points="210,317.8 210,256.2 168,231.9 168,293.5 &#9;"/>
	<polygon class="st1_city-2-38" points="259,289.7 259,228.1 210,256.2 210,317.8 &#9;"/>
	<polygon class="st8_city-2-38" points="248.7,254.4 248.7,263.5 254.7,260.4 254.7,250.9 &#9;"/>
	<polygon class="st8_city-2-38" points="248.7,241.1 248.7,250.2 254.7,247.1 254.7,237.6 &#9;"/>
	<polygon class="st8_city-2-38" points="248.7,281.8 248.7,290.9 254.7,287.7 254.7,278.3 &#9;"/>
	<polygon class="st8_city-2-38" points="248.7,268.2 248.7,277.3 254.7,274.2 254.7,264.7 &#9;"/>
	<polygon class="st8_city-2-38" points="235.1,261.6 235.1,270.7 241.2,267.6 241.2,258.1 &#9;"/>
	<polygon class="st8_city-2-38" points="235.1,248.3 235.1,257.4 241.2,254.2 241.2,244.8 &#9;"/>
	<polygon class="st8_city-2-38" points="235.1,289 235.1,298.1 241.2,294.9 241.2,285.5 &#9;"/>
	<polygon class="st8_city-2-38" points="235.1,275.4 235.1,284.5 241.2,281.4 241.2,271.9 &#9;"/>
	<polygon class="st8_city-2-38" points="220.4,270 220.4,279.1 226.5,276 226.5,266.5 &#9;"/>
	<polygon class="st8_city-2-38" points="220.4,256.7 220.4,265.8 226.5,262.6 226.5,253.2 &#9;"/>
	<polygon class="st8_city-2-38" points="220.4,297.4 220.4,306.5 226.5,303.3 226.5,293.9 &#9;"/>
	<polygon class="st8_city-2-38" points="220.4,283.8 220.4,292.9 226.5,289.8 226.5,280.3 &#9;"/>
	<polygon class="st8_city-2-38" points="179.1,257.6 179.1,266.7 173,263.5 173,254.1 &#9;"/>
	<polygon class="st8_city-2-38" points="179.1,244.2 179.1,253.3 173,250.2 173,240.7 &#9;"/>
	<polygon class="st8_city-2-38" points="179.1,284.9 179.1,294 173,290.9 173,281.4 &#9;"/>
	<polygon class="st8_city-2-38" points="179.1,271.4 179.1,280.4 173,277.3 173,267.8 &#9;"/>
	<polygon class="st8_city-2-38" points="191,264.3 191,273.4 185,270.3 185,260.8 &#9;"/>
	<polygon class="st8_city-2-38" points="191,251 191,260.1 185,256.9 185,247.5 &#9;"/>
	<polygon class="st8_city-2-38" points="191,291.7 191,300.8 185,297.6 185,288.1 &#9;"/>
	<polygon class="st8_city-2-38" points="191,278.1 191,287.2 185,284 185,274.6 &#9;"/>
	<polygon class="st8_city-2-38" points="203.6,272.2 203.6,281.3 197.6,278.2 197.6,268.7 &#9;"/>
	<polygon class="st8_city-2-38" points="203.6,258.9 203.6,268 197.6,264.8 197.6,255.4 &#9;"/>
	<polygon class="st8_city-2-38" points="203.6,299.6 203.6,308.7 197.6,305.5 197.6,296 &#9;"/>
	<polygon class="st8_city-2-38" points="203.6,286 203.6,295.1 197.6,291.9 197.6,282.5 &#9;"/>
	<polygon class="st2_city-2-38 targetColor" points="175.5,230.8 175.5,73.2 209.9,92.4 209.9,250.6 &#9;" style="fill: rgb(104, 225, 253);"/>
	<polygon class="st3_city-2-38" points="175.5,230.8 175.5,73.2 209.9,92.4 209.9,250.6 &#9;"/>
	<polygon class="st2_city-2-38 targetColor" points="209.9,92.4 244.7,73.2 244.7,230.1 209.9,250.6 &#9;" style="fill: rgb(104, 225, 253);"/>
	<polygon class="st0_city-2-38" points="175.5,73.2 209.9,52.2 244.7,73.2 209.9,92.4 &#9;"/>
	<polygon class="st4_city-2-38" points="244.7,73.2 209.9,92.4 175.5,73.2 175.5,77.9 209.9,96.8 244.7,77.6 &#9;"/>
	<polygon class="st5_city-2-38" points="240.6,93.5 240.6,86.2 236.2,88.6 236.2,95.7 &#9;"/>
	<polygon class="st5_city-2-38" points="229.7,99.4 229.7,92.1 225.3,94.5 225.3,101.5 &#9;"/>
	<polygon class="st5_city-2-38" points="218.4,106.4 218.4,99 214,101.4 214,108.5 &#9;"/>
	<polygon class="st5_city-2-38" points="240.6,119.9 240.6,112.6 236.2,115 236.2,122 &#9;"/>
	<polygon class="st5_city-2-38" points="229.7,125.8 229.7,118.4 225.3,120.8 225.3,127.9 &#9;"/>
	<polygon class="st5_city-2-38" points="218.4,132.8 218.4,125.4 214,127.8 214,134.9 &#9;"/>
	<polygon class="st5_city-2-38" points="240.6,150.1 240.6,142.7 236.2,145.1 236.2,152.2 &#9;"/>
	<polygon class="st5_city-2-38" points="229.7,156 229.7,148.6 225.3,151 225.3,158.1 &#9;"/>
	<polygon class="st5_city-2-38" points="218.4,162.9 218.4,155.6 214,158 214,165 &#9;"/>
	<polygon class="st5_city-2-38" points="240.6,180 240.6,172.6 236.2,175 236.2,182.1 &#9;"/>
	<polygon class="st5_city-2-38" points="229.7,185.9 229.7,178.5 225.3,180.9 225.3,188 &#9;"/>
	<polygon class="st5_city-2-38" points="218.4,192.8 218.4,185.4 214,187.8 214,194.9 &#9;"/>
	<polygon class="st5_city-2-38" points="240.6,209.8 240.6,202.5 236.2,204.9 236.2,211.9 &#9;"/>
	<polygon class="st5_city-2-38" points="229.7,215.7 229.7,208.4 225.3,210.8 225.3,217.8 &#9;"/>
	<polygon class="st5_city-2-38" points="218.4,222.7 218.4,215.3 214,217.7 214,224.8 &#9;"/>
	<polygon class="st5_city-2-38" points="177.5,93.6 177.5,86.3 181.9,88.7 181.9,95.7 &#9;"/>
	<polygon class="st5_city-2-38" points="188.4,99.5 188.4,92.2 192.8,94.6 192.8,101.6 &#9;"/>
	<polygon class="st5_city-2-38" points="199.7,106.4 199.7,99.1 204.1,101.5 204.1,108.6 &#9;"/>
	<polygon class="st5_city-2-38" points="177.5,120 177.5,112.6 181.9,115 181.9,122.1 &#9;"/>
	<polygon class="st5_city-2-38" points="188.4,125.9 188.4,118.5 192.8,120.9 192.8,128 &#9;"/>
	<polygon class="st5_city-2-38" points="199.7,132.8 199.7,125.5 204.1,127.9 204.1,134.9 &#9;"/>
	<polygon class="st5_city-2-38" points="177.5,150.2 177.5,142.8 181.9,145.2 181.9,152.3 &#9;"/>
	<polygon class="st5_city-2-38" points="188.4,156.1 188.4,148.7 192.8,151.1 192.8,158.2 &#9;"/>
	<polygon class="st5_city-2-38" points="199.7,163 199.7,155.6 204.1,158 204.1,165.1 &#9;"/>
	<polygon class="st5_city-2-38" points="177.5,180.1 177.5,172.7 181.9,175.1 181.9,182.2 &#9;"/>
	<polygon class="st5_city-2-38" points="188.4,185.9 188.4,178.6 192.8,181 192.8,188 &#9;"/>
	<polygon class="st5_city-2-38" points="199.7,192.9 199.7,185.5 204.1,187.9 204.1,195 &#9;"/>
	<polygon class="st5_city-2-38" points="177.5,209.9 177.5,202.6 181.9,205 181.9,212 &#9;"/>
	<polygon class="st5_city-2-38" points="188.4,215.8 188.4,208.4 192.8,210.9 192.8,217.9 &#9;"/>
	<polygon class="st5_city-2-38" points="199.7,222.8 199.7,215.4 204.1,217.8 204.1,224.9 &#9;"/>
	<polygon class="st4_city-2-38" points="244.7,127.9 209.6,146.1 175.5,128.2 175.5,135.4 209.9,153.3 244.7,135.4 &#9;"/>
	<polygon class="st4_city-2-38" points="244.7,158.1 209.6,176.3 175.5,158.4 175.5,165.7 209.9,183.5 244.7,165.7 &#9;"/>
	<polygon class="st4_city-2-38" points="244.7,188 209.6,206.1 175.5,188.3 175.5,195.6 209.9,213.4 244.7,195.6 &#9;"/>
	<polygon class="st4_city-2-38" points="244.5,215.4 209.3,233.6 175.2,215.7 175.2,223 209.6,240.9 244.5,223 &#9;"/>
	<polygon class="st4_city-2-38" points="244.7,99 209.6,117.2 175.5,99.3 175.5,106.6 209.9,124.5 244.7,106.6 &#9;"/>
</g>
<g id="building2_city-2-38">
	<polyline class="st7_city-2-38" points="291,276 291,266.3 334.7,264.5 334.7,274.2 &#9;"/>
	<path class="st7_city-2-38" d="M291,295.9c0.5,0.2,20.2,11.7,20.2,11.7l23.5-13.5l-20.4-11.6L291,295.9z"/>
	<path class="st7_city-2-38" d="M291,266.3c0.5,0.2,20.2,11.7,20.2,11.7l23.5-13.5L314.3,253L291,266.3z"/>
	<polygon class="st7_city-2-38" points="311.1,307.6 311.1,278 291,266.3 291,295.9 &#9;"/>
	<polygon class="st1_city-2-38" points="334.7,294.1 334.7,264.5 311.1,278 311.1,307.6 &#9;"/>
	<polygon class="st8_city-2-38" points="329.7,277.2 329.7,281.5 332.6,280 332.6,275.5 &#9;"/>
	<polygon class="st8_city-2-38" points="329.7,270.8 329.7,275.1 332.6,273.6 332.6,269.1 &#9;"/>
	<polygon class="st8_city-2-38" points="329.7,290.3 329.7,294.7 332.6,293.2 332.6,288.6 &#9;"/>
	<polygon class="st8_city-2-38" points="329.7,283.8 329.7,288.1 332.6,286.6 332.6,282.1 &#9;"/>
	<polygon class="st8_city-2-38" points="323.2,280.6 323.2,285 326.1,283.5 326.1,278.9 &#9;"/>
	<polygon class="st8_city-2-38" points="323.2,274.2 323.2,278.6 326.1,277.1 326.1,272.5 &#9;"/>
	<polygon class="st8_city-2-38" points="323.2,293.8 323.2,298.1 326.1,296.6 326.1,292.1 &#9;"/>
	<polygon class="st8_city-2-38" points="323.2,287.2 323.2,291.6 326.1,290.1 326.1,285.5 &#9;"/>
	<polygon class="st8_city-2-38" points="316.2,284.7 316.2,289 319.1,287.5 319.1,283 &#9;"/>
	<polygon class="st8_city-2-38" points="316.2,278.2 316.2,282.6 319.1,281.1 319.1,276.6 &#9;"/>
	<polygon class="st8_city-2-38" points="316.2,297.8 316.2,302.2 319.1,300.7 319.1,296.1 &#9;"/>
	<polygon class="st8_city-2-38" points="316.2,291.3 316.2,295.6 319.1,294.1 319.1,289.6 &#9;"/>
	<polygon class="st8_city-2-38" points="296.3,278.7 296.3,283 293.4,281.5 293.4,277 &#9;"/>
	<polygon class="st8_city-2-38" points="296.3,272.3 296.3,276.6 293.4,275.1 293.4,270.6 &#9;"/>
	<polygon class="st8_city-2-38" points="296.3,291.8 296.3,296.2 293.4,294.7 293.4,290.1 &#9;"/>
	<polygon class="st8_city-2-38" points="296.3,285.3 296.3,289.7 293.4,288.1 293.4,283.6 &#9;"/>
	<polygon class="st8_city-2-38" points="302,281.9 302,286.3 299.1,284.8 299.1,280.2 &#9;"/>
	<polygon class="st8_city-2-38" points="302,275.5 302,279.9 299.1,278.4 299.1,273.8 &#9;"/>
	<polygon class="st8_city-2-38" points="302,295.1 302,299.4 299.1,297.9 299.1,293.4 &#9;"/>
	<polygon class="st8_city-2-38" points="302,288.5 302,292.9 299.1,291.4 299.1,286.8 &#9;"/>
	<polygon class="st8_city-2-38" points="308.1,285.7 308.1,290.1 305.2,288.6 305.2,284 &#9;"/>
	<polygon class="st8_city-2-38" points="308.1,279.3 308.1,283.7 305.2,282.2 305.2,277.6 &#9;"/>
	<polygon class="st8_city-2-38" points="308.1,298.9 308.1,303.2 305.2,301.7 305.2,297.2 &#9;"/>
	<polygon class="st8_city-2-38" points="308.1,292.3 308.1,296.7 305.2,295.2 305.2,290.6 &#9;"/>
</g>
<g id="building1_city-2-38">
	
		<linearGradient id="SVGID_00000030466797859497215490000018085263442850486418_-city-2-38" gradientUnits="userSpaceOnUse" x1="300.8029" y1="160.0977" x2="280.2829" y2="134.7277" gradientTransform="matrix(1 0 0 -1 0 502)">
		<stop offset="0" style="stop-color:#999999"/>
		<stop offset="1" style="stop-color:#C4C4C4"/>
	</linearGradient>
	<polyline style="fill:url(#SVGID_00000030466797859497215490000018085263442850486418_);" points="292.6,327.3 254.1,350.9 &#10;&#9;&#9;293.3,373.9 334.2,349.4 &#9;"/>
	<polyline class="st7_city-2-38" points="278.5,311.8 278.5,296 349.6,293.1 349.6,308.8 &#9;"/>
	<path class="st7_city-2-38" d="M278.5,344.1c0.8,0.3,32.8,19,32.8,19l38.3-21.9l-33.1-18.9L278.5,344.1z"/>
	<path class="st7_city-2-38" d="M278.5,296c0.8,0.3,32.8,19,32.8,19l38.3-21.9l-33.1-18.9L278.5,296z"/>
	<polygon class="st7_city-2-38" points="311.3,363.2 311.3,315 278.5,296 278.5,344.1 &#9;"/>
	<polygon class="st1_city-2-38" points="349.6,341.2 349.6,293.1 311.3,315 311.3,363.2 &#9;"/>
	<polygon class="st8_city-2-38" points="341.6,313.6 341.6,320.8 346.3,318.3 346.3,310.9 &#9;"/>
	<polygon class="st8_city-2-38" points="341.6,303.2 341.6,310.3 346.3,307.9 346.3,300.5 &#9;"/>
	<polygon class="st8_city-2-38" points="341.6,335 341.6,342.1 346.3,339.7 346.3,332.3 &#9;"/>
	<polygon class="st8_city-2-38" points="341.6,324.4 341.6,331.5 346.3,329.1 346.3,321.6 &#9;"/>
	<polygon class="st8_city-2-38" points="331,319.3 331,326.4 335.7,323.9 335.7,316.5 &#9;"/>
	<polygon class="st8_city-2-38" points="331,308.9 331,316 335.7,313.5 335.7,306.1 &#9;"/>
	<polygon class="st8_city-2-38" points="331,340.7 331,347.8 335.7,345.3 335.7,337.9 &#9;"/>
	<polygon class="st8_city-2-38" points="331,330 331,337.1 335.7,334.7 335.7,327.3 &#9;"/>
	<polygon class="st8_city-2-38" points="319.5,325.8 319.5,333 324.2,330.5 324.2,323.1 &#9;"/>
	<polygon class="st8_city-2-38" points="319.5,315.4 319.5,322.5 324.2,320.1 324.2,312.6 &#9;"/>
	<polygon class="st8_city-2-38" points="319.5,347.2 319.5,354.3 324.2,351.9 324.2,344.5 &#9;"/>
	<polygon class="st8_city-2-38" points="319.5,336.6 319.5,343.7 324.2,341.2 324.2,333.8 &#9;"/>
	<polygon class="st8_city-2-38" points="287.1,316.1 287.1,323.2 282.4,320.7 282.4,313.3 &#9;"/>
	<polygon class="st8_city-2-38" points="287.1,305.7 287.1,312.8 282.4,310.3 282.4,302.9 &#9;"/>
	<polygon class="st8_city-2-38" points="287.1,337.5 287.1,344.6 282.4,342.1 282.4,334.7 &#9;"/>
	<polygon class="st8_city-2-38" points="287.1,326.9 287.1,334 282.4,331.5 282.4,324.1 &#9;"/>
	<polygon class="st8_city-2-38" points="296.5,321.4 296.5,328.5 291.8,326 291.8,318.6 &#9;"/>
	<polygon class="st8_city-2-38" points="296.5,311 296.5,318.1 291.8,315.6 291.8,308.2 &#9;"/>
	<polygon class="st8_city-2-38" points="296.5,342.8 296.5,349.9 291.8,347.4 291.8,340 &#9;"/>
	<polygon class="st8_city-2-38" points="296.5,332.1 296.5,339.2 291.8,336.8 291.8,329.4 &#9;"/>
	<polygon class="st8_city-2-38" points="306.4,327.5 306.4,334.7 301.6,332.2 301.6,324.8 &#9;"/>
	<polygon class="st8_city-2-38" points="306.4,317.1 306.4,324.2 301.6,321.8 301.6,314.4 &#9;"/>
	<polygon class="st8_city-2-38" points="306.4,348.9 306.4,356 301.6,353.6 301.6,346.2 &#9;"/>
	<polygon class="st8_city-2-38" points="306.4,338.3 306.4,345.4 301.6,343 301.6,335.5 &#9;"/>
</g>
<g id="trees_city-2-38">
	
		<linearGradient id="SVGID_00000049220788976446578220000013154065231177585798_-city-2-38" gradientUnits="userSpaceOnUse" x1="259.5346" y1="123.3963" x2="253.2946" y2="115.6863" gradientTransform="matrix(1 0 0 -1 0 502)">
		<stop offset="0" style="stop-color:#999999"/>
		<stop offset="1" style="stop-color:#C4C4C4"/>
	</linearGradient>
	<polyline style="fill:url(#SVGID_00000049220788976446578220000013154065231177585798_);" points="263.9,376.2 248.2,383.7 &#10;&#9;&#9;253.7,386.9 266.1,379.4 &#9;"/>
	<path class="st11_city-2-38" d="M264.3,355h1.2c0.7,0,1.3,0.6,1.3,1.3v22.2c0,0.7-0.6,1.3-1.3,1.3h-1.2c-0.7,0-1.3-0.6-1.3-1.3v-22.2&#10;&#9;&#9;C263,355.6,263.6,355,264.3,355z"/>
	<path class="st12_city-2-38" d="M274.1,360.1c-0.9-3.7-4.7-20.2-11.4-15.3c-3.5,2.5-4.5,6.3-5.8,10.1c-1.3,3.1-2,6.4-2.2,9.8&#10;&#9;&#9;c-0.1,6.8,6.9,7.7,12.2,7.6c3.1,0,7.4-1.8,8.1-5.1c0.4-2-0.3-4.4-0.7-6.4C274.2,360.6,274.1,360.3,274.1,360.1z"/>
	<path class="st13_city-2-38" d="M274.4,360.8c0-0.2-0.1-0.5-0.2-0.7c-0.8-3.3-3.8-16.5-9.2-16.2c1.6,7,4,14.3,2.7,21.5&#10;&#9;&#9;c-0.4,2.5-1.4,4.9-2.8,6.9c0.7,0,1.4,0,2.1,0c3.1,0,7.4-1.8,8.1-5.2C275.6,365.1,274.8,362.8,274.4,360.8z"/>
</g>
</svg>